STARTFONT 2.1
FONT -DIGITAL-VT220-Bold-I-Normal-80col-60-600-75-75-c-300-iso10646-1
SIZE 60 75 75
FONTBOUNDINGBOX 49 60 -9 -12
STARTPROPERTIES 21
FOUNDRY "DIGITAL"
FAMILY_NAME "vt220"
WEIGHT_NAME "Bold"
RELATIVE_SETWIDTH 50
SLANT "I"
SETWIDTH_NAME "Normal"
ADD_STYLE_NAME "80col"
PIXEL_SIZE 60
POINT_SIZE 600
RESOLUTION_X 75
RESOLUTION_Y 75
SPACING "c"
CHARSET_REGISTRY "ISO10646"
CHARSET_ENCODING "1"
CAP_HEIGHT 42
X_HEIGHT 30
WEIGHT 10
QUAD_WIDTH 30
FONT_ASCENT 48
FONT_DESCENT 12
AVERAGE_WIDTH 300
ENDPROPERTIES
CHARS 237
STARTCHAR U+00FD
ENCODING 253
SWIDTH 1000 0
DWIDTH 30 0
BBX 49 60 -9 -12
BITMAP
00000000000000
00000000000000
00000000000000
00000000000000
00000000000000
00000000000000
00000000000000
00000000000000
00000000000000
00000000000000
00000000000000
00000000000000
00000000000000
00000000000000
00000000000000
00000000000000
00000000000000
00000000000000
00000000000000
00000000000000
00000000000000
00000000000000
00000000000000
00000000000000
00000000000000
00000000000000
00000000000000
00000000000000
00000000000000
00000000000000
00000000000000
00000000000000
00000000000000
00000000000000
00000000000000
00000000000000
00000000000000
00000000000000
00000000000000
00000000000000
00000000000000
00000000000000
00000000000000
00000000000000
00000000000000
00000000000000
00000000000000
00000000000000
00000000000000
00000000000000
00000000000000
00000000000000
00000000000000
00000000000000
00000000000000
00000000000000
00000000000000
00000000000000
00000000000000
00000000000000
ENDCHAR
STARTCHAR U+25A1
ENCODING 9633
SWIDTH 1000 0
DWIDTH 30 0
BBX 49 60 -9 -12
BITMAP
00000000000000
00000000000000
00000000000000
00000000000000
00000000000000
00000000000000
0000ffffff8000
0000ffffff8000
0000ffffff8000
0001ffffff0000
0001ffffff0000
0001ffffff0000
0003f800fe0000
0003f800fe0000
0003f800fe0000
0007f001fc0000
0007f001fc0000
0007f001fc0000
000fe003f80000
000fe003f80000
000fe003f80000
001fc007f00000
001fc007f00000
001fc007f00000
003f800fe00000
003f800fe00000
003f800fe00000
007f001fc00000
007f001fc00000
007f001fc00000
00fe003f800000
00fe003f800000
00fe003f800000
01fc007f000000
01fc007f000000
01fc007f000000
03f800fe000000
03f800fe000000
03f800fe000000
07f001fc000000
07f001fc000000
07f001fc000000
0ffffff8000000
0ffffff8000000
0ffffff8000000
1ffffff0000000
1ffffff0000000
1ffffff0000000
00000000000000
00000000000000
00000000000000
00000000000000
00000000000000
00000000000000
00000000000000
00000000000000
00000000000000
00000000000000
00000000000000
00000000000000
ENDCHAR
STARTCHAR U+00FE
ENCODING 254
SWIDTH 1000 0
DWIDTH 30 0
BBX 49 60 -9 -12
BITMAP
00000000000000
00000000000000
00000000000000
00000000000000
00000000000000
00000000000000
0000fe00000000
0000fe00000000
0000fe00000000
0001fc00000000
0001fc00000000
0001fc00000000
0003f800000000
0003f800000000
0003f800000000
0007f000000000
0007f000000000
0007f000000000
000fffffc00000
000fffffc00000
000fffffc00000
001fffff800000
001fffff800000
001fffff800000
003ff00fe00000
003ff00fe00000
003ff00fe00000
007fe01fc00000
007fe01fc00000
007fe01fc00000
00ffc03f800000
00ffc03f800000
00ffc03f800000
01ff807f000000
01ff807f000000
01ff807f000000
03fffff0000000
03fffff0000000
03fffff0000000
07ffffe0000000
07ffffe0000000
07ffffe0000000
0fe00000000000
0fe00000000000
0fe00000000000
1fc00000000000
1fc00000000000
1fc00000000000
3f800000000000
3f800000000000
3f800000000000
7f000000000000
7f000000000000
7f000000000000
fe000000000000
fe000000000000
fe000000000000
fc000000000000
fc000000000000
fc000000000000
ENDCHAR
STARTCHAR U+00FF
ENCODING 255
SWIDTH 1000 0
DWIDTH 30 0
BBX 49 60 -9 -12
BITMAP
00000000000000
00000000000000
00000000000000
00000000000000
00000000000000
00000000000000
00001fc1fc0000
00001fc1fc0000
00001fc1fc0000
00003f83f80000
00003f83f80000
00003f83f80000
00000000000000
00000000000000
00000000000000
00000000000000
00000000000000
00000000000000
000fe01fc00000
000fe01fc00000
000fe01fc00000
001fc03f800000
001fc03f800000
001fc03f800000
003f807f000000
003f807f000000
003f807f000000
007f00fe000000
007f00fe000000
007f00fe000000
00fe0ffc000000
00fe0ffc000000
00fe0ffc000000
01fc1ff8000000
01fc1ff8000000
01fc1ff8000000
007ffff0000000
007ffff0000000
007ffff0000000
00ffffe0000000
00ffffe0000000
00ffffe0000000
00001fc0000000
00001fc0000000
00001fc0000000
00003f80000000
00003f80000000
00003f80000000
3f807f00000000
3f807f00000000
3f807f00000000
7f00fe00000000
7f00fe00000000
7f00fe00000000
1fffe000000000
1fffe000000000
1fffe000000000
3fffc000000000
3fffc000000000
3fffc000000000
ENDCHAR
STARTCHAR U+00FC
ENCODING 252
SWIDTH 1000 0
DWIDTH 30 0
BBX 49 60 -9 -12
BITMAP
00000000000000
00000000000000
00000000000000
00000000000000
00000000000000
00000000000000
00001fc1fc0000
00001fc1fc0000
00001fc1fc0000
00003f83f80000
00003f83f80000
00003f83f80000
00000000000000
00000000000000
00000000000000
00000000000000
00000000000000
00000000000000
000fe01fc00000
000fe01fc00000
000fe01fc00000
001fc03f800000
001fc03f800000
001fc03f800000
003f807f000000
003f807f000000
003f807f000000
007f00fe000000
007f00fe000000
007f00fe000000
00fe01fc000000
00fe01fc000000
00fe01fc000000
01fc03f8000000
01fc03f8000000
01fc03f8000000
03f807f0000000
03f807f0000000
03f807f0000000
07f00fe0000000
07f00fe0000000
07f00fe0000000
01fffff8000000
01fffff8000000
01fffff8000000
03fffff0000000
03fffff0000000
03fffff0000000
00000000000000
00000000000000
00000000000000
00000000000000
00000000000000
00000000000000
00000000000000
00000000000000
00000000000000
00000000000000
00000000000000
00000000000000
ENDCHAR
STARTCHAR U+00FB
ENCODING 251
SWIDTH 1000 0
DWIDTH 30 0
BBX 49 60 -9 -12
BITMAP
000000fff80000
000000fff80000
000000fff80000
000001fff00000
000001fff00000
000001fff00000
00001fc1fc0000
00001fc1fc0000
00001fc1fc0000
00003f83f80000
00003f83f80000
00003f83f80000
00000000000000
00000000000000
00000000000000
00000000000000
00000000000000
00000000000000
000fe01fc00000
000fe01fc00000
000fe01fc00000
001fc03f800000
001fc03f800000
001fc03f800000
003f807f000000
003f807f000000
003f807f000000
007f00fe000000
007f00fe000000
007f00fe000000
00fe01fc000000
00fe01fc000000
00fe01fc000000
01fc03f8000000
01fc03f8000000
01fc03f8000000
03f807f0000000
03f807f0000000
03f807f0000000
07f00fe0000000
07f00fe0000000
07f00fe0000000
01fffff8000000
01fffff8000000
01fffff8000000
03fffff0000000
03fffff0000000
03fffff0000000
00000000000000
00000000000000
00000000000000
00000000000000
00000000000000
00000000000000
00000000000000
00000000000000
00000000000000
00000000000000
00000000000000
00000000000000
ENDCHAR
STARTCHAR U+00FA
ENCODING 250
SWIDTH 1000 0
DWIDTH 30 0
BBX 49 60 -9 -12
BITMAP
00000000000000
00000000000000
00000000000000
00000000000000
00000000000000
00000000000000
0000007fe00000
0000007fe00000
0000007fe00000
000000ffc00000
000000ffc00000
000000ffc00000
00007fe0000000
00007fe0000000
00007fe0000000
0000ffc0000000
0000ffc0000000
0000ffc0000000
000fe01fc00000
000fe01fc00000
000fe01fc00000
001fc03f800000
001fc03f800000
001fc03f800000
003f807f000000
003f807f000000
003f807f000000
007f00fe000000
007f00fe000000
007f00fe000000
00fe01fc000000
00fe01fc000000
00fe01fc000000
01fc03f8000000
01fc03f8000000
01fc03f8000000
03f807f0000000
03f807f0000000
03f807f0000000
07f00fe0000000
07f00fe0000000
07f00fe0000000
01fffff8000000
01fffff8000000
01fffff8000000
03fffff0000000
03fffff0000000
03fffff0000000
00000000000000
00000000000000
00000000000000
00000000000000
00000000000000
00000000000000
00000000000000
00000000000000
00000000000000
00000000000000
00000000000000
00000000000000
ENDCHAR
STARTCHAR U+00F9
ENCODING 249
SWIDTH 1000 0
DWIDTH 30 0
BBX 49 60 -9 -12
BITMAP
00000000000000
00000000000000
00000000000000
00000000000000
00000000000000
00000000000000
00001ff8000000
00001ff8000000
00001ff8000000
00003ff0000000
00003ff0000000
00003ff0000000
000001ff800000
000001ff800000
000001ff800000
000003ff000000
000003ff000000
000003ff000000
000fe01fc00000
000fe01fc00000
000fe01fc00000
001fc03f800000
001fc03f800000
001fc03f800000
003f807f000000
003f807f000000
003f807f000000
007f00fe000000
007f00fe000000
007f00fe000000
00fe01fc000000
00fe01fc000000
00fe01fc000000
01fc03f8000000
01fc03f8000000
01fc03f8000000
03f807f0000000
03f807f0000000
03f807f0000000
07f00fe0000000
07f00fe0000000
07f00fe0000000
01fffff8000000
01fffff8000000
01fffff8000000
03fffff0000000
03fffff0000000
03fffff0000000
00000000000000
00000000000000
00000000000000
00000000000000
00000000000000
00000000000000
00000000000000
00000000000000
00000000000000
00000000000000
00000000000000
00000000000000
ENDCHAR
STARTCHAR U+00F8
ENCODING 248
SWIDTH 1000 0
DWIDTH 30 0
BBX 49 60 -9 -12
BITMAP
00000000000000
00000000000000
00000000000000
00000000000000
00000000000000
00000000000000
00000000000000
00000000000000
00000000000000
00000000000000
00000000000000
00000000000000
00000000fe0000
00000000fe0000
00000000fe0000
00000001fc0000
00000001fc0000
00000001fc0000
0001ffffc00000
0001ffffc00000
0001ffffc00000
0003ffff800000
0003ffff800000
0003ffff800000
003f83ffe00000
003f83ffe00000
003f83ffe00000
007f07ffc00000
007f07ffc00000
007f07ffc00000
00fe7f3f800000
00fe7f3f800000
00fe7f3f800000
01fcfe7f000000
01fcfe7f000000
01fcfe7f000000
03ffe0fe000000
03ffe0fe000000
03ffe0fe000000
07ffc1fc000000
07ffc1fc000000
07ffc1fc000000
01ffffc0000000
01ffffc0000000
01ffffc0000000
03ffff80000000
03ffff80000000
03ffff80000000
3f800000000000
3f800000000000
3f800000000000
7f000000000000
7f000000000000
7f000000000000
00000000000000
00000000000000
00000000000000
00000000000000
00000000000000
00000000000000
ENDCHAR
STARTCHAR U+0153
ENCODING 339
SWIDTH 1000 0
DWIDTH 30 0
BBX 49 60 -9 -12
BITMAP
00000000000000
00000000000000
00000000000000
00000000000000
00000000000000
00000000000000
00000000000000
00000000000000
00000000000000
00000000000000
00000000000000
00000000000000
00000000000000
00000000000000
00000000000000
00000000000000
00000000000000
00000000000000
0001ffffc00000
0001ffffc00000
0001ffffc00000
0003ffff800000
0003ffff800000
0003ffff800000
003f9fcfe00000
003f9fcfe00000
003f9fcfe00000
007f3f9fc00000
007f3f9fc00000
007f3f9fc00000
00fe7fff800000
00fe7fff800000
00fe7fff800000
01fcffff000000
01fcffff000000
01fcffff000000
03f9fc00000000
03f9fc00000000
03f9fc00000000
07f3f800000000
07f3f800000000
07f3f800000000
01fffff8000000
01fffff8000000
01fffff8000000
03fffff0000000
03fffff0000000
03fffff0000000
00000000000000
00000000000000
00000000000000
00000000000000
00000000000000
00000000000000
00000000000000
00000000000000
00000000000000
00000000000000
00000000000000
00000000000000
ENDCHAR
STARTCHAR U+00F6
ENCODING 246
SWIDTH 1000 0
DWIDTH 30 0
BBX 49 60 -9 -12
BITMAP
00000000000000
00000000000000
00000000000000
00000000000000
00000000000000
00000000000000
00001fc1fc0000
00001fc1fc0000
00001fc1fc0000
00003f83f80000
00003f83f80000
00003f83f80000
00000000000000
00000000000000
00000000000000
00000000000000
00000000000000
00000000000000
0001ffffc00000
0001ffffc00000
0001ffffc00000
0003ffff800000
0003ffff800000
0003ffff800000
003f800fe00000
003f800fe00000
003f800fe00000
007f001fc00000
007f001fc00000
007f001fc00000
00fe003f800000
00fe003f800000
00fe003f800000
01fc007f000000
01fc007f000000
01fc007f000000
03f800fe000000
03f800fe000000
03f800fe000000
07f001fc000000
07f001fc000000
07f001fc000000
01ffffc0000000
01ffffc0000000
01ffffc0000000
03ffff80000000
03ffff80000000
03ffff80000000
00000000000000
00000000000000
00000000000000
00000000000000
00000000000000
00000000000000
00000000000000
00000000000000
00000000000000
00000000000000
00000000000000
00000000000000
ENDCHAR
STARTCHAR U+00F5
ENCODING 245
SWIDTH 1000 0
DWIDTH 30 0
BBX 49 60 -9 -12
BITMAP
000007fe7f0000
000007fe7f0000
000007fe7f0000
00000ffcfe0000
00000ffcfe0000
00000ffcfe0000
0000fe7fe00000
0000fe7fe00000
0000fe7fe00000
0001fcffc00000
0001fcffc00000
0001fcffc00000
00000000000000
00000000000000
00000000000000
00000000000000
00000000000000
00000000000000
0001ffffc00000
0001ffffc00000
0001ffffc00000
0003ffff800000
0003ffff800000
0003ffff800000
003f800fe00000
003f800fe00000
003f800fe00000
007f001fc00000
007f001fc00000
007f001fc00000
00fe003f800000
00fe003f800000
00fe003f800000
01fc007f000000
01fc007f000000
01fc007f000000
03f800fe000000
03f800fe000000
03f800fe000000
07f001fc000000
07f001fc000000
07f001fc000000
01ffffc0000000
01ffffc0000000
01ffffc0000000
03ffff80000000
03ffff80000000
03ffff80000000
00000000000000
00000000000000
00000000000000
00000000000000
00000000000000
00000000000000
00000000000000
00000000000000
00000000000000
00000000000000
00000000000000
00000000000000
ENDCHAR
STARTCHAR U+00F4
ENCODING 244
SWIDTH 1000 0
DWIDTH 30 0
BBX 49 60 -9 -12
BITMAP
000000fff80000
000000fff80000
000000fff80000
000001fff00000
000001fff00000
000001fff00000
00001fc1fc0000
00001fc1fc0000
00001fc1fc0000
00003f83f80000
00003f83f80000
00003f83f80000
00000000000000
00000000000000
00000000000000
00000000000000
00000000000000
00000000000000
0001ffffc00000
0001ffffc00000
0001ffffc00000
0003ffff800000
0003ffff800000
0003ffff800000
003f800fe00000
003f800fe00000
003f800fe00000
007f001fc00000
007f001fc00000
007f001fc00000
00fe003f800000
00fe003f800000
00fe003f800000
01fc007f000000
01fc007f000000
01fc007f000000
03f800fe000000
03f800fe000000
03f800fe000000
07f001fc000000
07f001fc000000
07f001fc000000
01ffffc0000000
01ffffc0000000
01ffffc0000000
03ffff80000000
03ffff80000000
03ffff80000000
00000000000000
00000000000000
00000000000000
00000000000000
00000000000000
00000000000000
00000000000000
00000000000000
00000000000000
00000000000000
00000000000000
00000000000000
ENDCHAR
STARTCHAR U+00F3
ENCODING 243
SWIDTH 1000 0
DWIDTH 30 0
BBX 49 60 -9 -12
BITMAP
00000000000000
00000000000000
00000000000000
00000000000000
00000000000000
00000000000000
0000007fe00000
0000007fe00000
0000007fe00000
000000ffc00000
000000ffc00000
000000ffc00000
00007fe0000000
00007fe0000000
00007fe0000000
0000ffc0000000
0000ffc0000000
0000ffc0000000
0001ffffc00000
0001ffffc00000
0001ffffc00000
0003ffff800000
0003ffff800000
0003ffff800000
003f800fe00000
003f800fe00000
003f800fe00000
007f001fc00000
007f001fc00000
007f001fc00000
00fe003f800000
00fe003f800000
00fe003f800000
01fc007f000000
01fc007f000000
01fc007f000000
03f800fe000000
03f800fe000000
03f800fe000000
07f001fc000000
07f001fc000000
07f001fc000000
01ffffc0000000
01ffffc0000000
01ffffc0000000
03ffff80000000
03ffff80000000
03ffff80000000
00000000000000
00000000000000
00000000000000
00000000000000
00000000000000
00000000000000
00000000000000
00000000000000
00000000000000
00000000000000
00000000000000
00000000000000
ENDCHAR
STARTCHAR U+00F2
ENCODING 242
SWIDTH 1000 0
DWIDTH 30 0
BBX 49 60 -9 -12
BITMAP
00000000000000
00000000000000
00000000000000
00000000000000
00000000000000
00000000000000
000003ff000000
000003ff000000
000003ff000000
000007fe000000
000007fe000000
000007fe000000
0000003ff00000
0000003ff00000
0000003ff00000
0000007fe00000
0000007fe00000
0000007fe00000
0001ffffc00000
0001ffffc00000
0001ffffc00000
0003ffff800000
0003ffff800000
0003ffff800000
003f800fe00000
003f800fe00000
003f800fe00000
007f001fc00000
007f001fc00000
007f001fc00000
00fe003f800000
00fe003f800000
00fe003f800000
01fc007f000000
01fc007f000000
01fc007f000000
03f800fe000000
03f800fe000000
03f800fe000000
07f001fc000000
07f001fc000000
07f001fc000000
01ffffc0000000
01ffffc0000000
01ffffc0000000
03ffff80000000
03ffff80000000
03ffff80000000
00000000000000
00000000000000
00000000000000
00000000000000
00000000000000
00000000000000
00000000000000
00000000000000
00000000000000
00000000000000
00000000000000
00000000000000
ENDCHAR
STARTCHAR U+00F1
ENCODING 241
SWIDTH 1000 0
DWIDTH 30 0
BBX 49 60 -9 -12
BITMAP
000007fe7f0000
000007fe7f0000
000007fe7f0000
00000ffcfe0000
00000ffcfe0000
00000ffcfe0000
0000fe7fe00000
0000fe7fe00000
0000fe7fe00000
0001fcffc00000
0001fcffc00000
0001fcffc00000
00000000000000
00000000000000
00000000000000
00000000000000
00000000000000
00000000000000
000fffffc00000
000fffffc00000
000fffffc00000
001fffff800000
001fffff800000
001fffff800000
003ff00fe00000
003ff00fe00000
003ff00fe00000
007fe01fc00000
007fe01fc00000
007fe01fc00000
00fe003f800000
00fe003f800000
00fe003f800000
01fc007f000000
01fc007f000000
01fc007f000000
03f800fe000000
03f800fe000000
03f800fe000000
07f001fc000000
07f001fc000000
07f001fc000000
0fe003f8000000
0fe003f8000000
0fe003f8000000
1fc007f0000000
1fc007f0000000
1fc007f0000000
00000000000000
00000000000000
00000000000000
00000000000000
00000000000000
00000000000000
00000000000000
00000000000000
00000000000000
00000000000000
00000000000000
00000000000000
ENDCHAR
STARTCHAR U+00F0
ENCODING 240
SWIDTH 1000 0
DWIDTH 30 0
BBX 49 60 -9 -12
BITMAP
0000001fcfe000
0000001fcfe000
0000001fcfe000
0000003f9fc000
0000003f9fc000
0000003f9fc000
0000000ffc0000
0000000ffc0000
0000000ffc0000
0000001ff80000
0000001ff80000
0000001ff80000
000001fcfe0000
000001fcfe0000
000001fcfe0000
000003f9fc0000
000003f9fc0000
000003f9fc0000
0001fffff80000
0001fffff80000
0001fffff80000
0003fffff00000
0003fffff00000
0003fffff00000
003f807fe00000
003f807fe00000
003f807fe00000
007f00ffc00000
007f00ffc00000
007f00ffc00000
00fe003f800000
00fe003f800000
00fe003f800000
01fc007f000000
01fc007f000000
01fc007f000000
03f807f0000000
03f807f0000000
03f807f0000000
07f00fe0000000
07f00fe0000000
07f00fe0000000
01fffe00000000
01fffe00000000
01fffe00000000
03fffc00000000
03fffc00000000
03fffc00000000
00000000000000
00000000000000
00000000000000
00000000000000
00000000000000
00000000000000
00000000000000
00000000000000
00000000000000
00000000000000
00000000000000
00000000000000
ENDCHAR
STARTCHAR U+00EF
ENCODING 239
SWIDTH 1000 0
DWIDTH 30 0
BBX 49 60 -9 -12
BITMAP
00000000000000
00000000000000
00000000000000
00000000000000
00000000000000
00000000000000
00001fc1fc0000
00001fc1fc0000
00001fc1fc0000
00003f83f80000
00003f83f80000
00003f83f80000
00000000000000
00000000000000
00000000000000
00000000000000
00000000000000
00000000000000
00003ff0000000
00003ff0000000
00003ff0000000
00007fe0000000
00007fe0000000
00007fe0000000
00001fc0000000
00001fc0000000
00001fc0000000
00003f80000000
00003f80000000
00003f80000000
00007f00000000
00007f00000000
00007f00000000
0000fe00000000
0000fe00000000
0000fe00000000
0001fc00000000
0001fc00000000
0001fc00000000
0003f800000000
0003f800000000
0003f800000000
01ffffc0000000
01ffffc0000000
01ffffc0000000
03ffff80000000
03ffff80000000
03ffff80000000
00000000000000
00000000000000
00000000000000
00000000000000
00000000000000
00000000000000
00000000000000
00000000000000
00000000000000
00000000000000
00000000000000
00000000000000
ENDCHAR
STARTCHAR U+00EE
ENCODING 238
SWIDTH 1000 0
DWIDTH 30 0
BBX 49 60 -9 -12
BITMAP
000000fff80000
000000fff80000
000000fff80000
000001fff00000
000001fff00000
000001fff00000
00001fc1fc0000
00001fc1fc0000
00001fc1fc0000
00003f83f80000
00003f83f80000
00003f83f80000
00000000000000
00000000000000
00000000000000
00000000000000
00000000000000
00000000000000
00003ff0000000
00003ff0000000
00003ff0000000
00007fe0000000
00007fe0000000
00007fe0000000
00001fc0000000
00001fc0000000
00001fc0000000
00003f80000000
00003f80000000
00003f80000000
00007f00000000
00007f00000000
00007f00000000
0000fe00000000
0000fe00000000
0000fe00000000
0001fc00000000
0001fc00000000
0001fc00000000
0003f800000000
0003f800000000
0003f800000000
01ffffc0000000
01ffffc0000000
01ffffc0000000
03ffff80000000
03ffff80000000
03ffff80000000
00000000000000
00000000000000
00000000000000
00000000000000
00000000000000
00000000000000
00000000000000
00000000000000
00000000000000
00000000000000
00000000000000
00000000000000
ENDCHAR
STARTCHAR U+00ED
ENCODING 237
SWIDTH 1000 0
DWIDTH 30 0
BBX 49 60 -9 -12
BITMAP
00000000000000
00000000000000
00000000000000
00000000000000
00000000000000
00000000000000
0000007fe00000
0000007fe00000
0000007fe00000
000000ffc00000
000000ffc00000
000000ffc00000
00007fe0000000
00007fe0000000
00007fe0000000
0000ffc0000000
0000ffc0000000
0000ffc0000000
00003ff0000000
00003ff0000000
00003ff0000000
00007fe0000000
00007fe0000000
00007fe0000000
00001fc0000000
00001fc0000000
00001fc0000000
00003f80000000
00003f80000000
00003f80000000
00007f00000000
00007f00000000
00007f00000000
0000fe00000000
0000fe00000000
0000fe00000000
0001fc00000000
0001fc00000000
0001fc00000000
0003f800000000
0003f800000000
0003f800000000
01ffffc0000000
01ffffc0000000
01ffffc0000000
03ffff80000000
03ffff80000000
03ffff80000000
00000000000000
00000000000000
00000000000000
00000000000000
00000000000000
00000000000000
00000000000000
00000000000000
00000000000000
00000000000000
00000000000000
00000000000000
ENDCHAR
STARTCHAR U+00EC
ENCODING 236
SWIDTH 1000 0
DWIDTH 30 0
BBX 49 60 -9 -12
BITMAP
00000000000000
00000000000000
00000000000000
00000000000000
00000000000000
00000000000000
00001ff8000000
00001ff8000000
00001ff8000000
00003ff0000000
00003ff0000000
00003ff0000000
000001ff800000
000001ff800000
000001ff800000
000003ff000000
000003ff000000
000003ff000000
00003ff0000000
00003ff0000000
00003ff0000000
00007fe0000000
00007fe0000000
00007fe0000000
00001fc0000000
00001fc0000000
00001fc0000000
00003f80000000
00003f80000000
00003f80000000
00007f00000000
00007f00000000
00007f00000000
0000fe00000000
0000fe00000000
0000fe00000000
0001fc00000000
0001fc00000000
0001fc00000000
0003f800000000
0003f800000000
0003f800000000
01ffffc0000000
01ffffc0000000
01ffffc0000000
03ffff80000000
03ffff80000000
03ffff80000000
00000000000000
00000000000000
00000000000000
00000000000000
00000000000000
00000000000000
00000000000000
00000000000000
00000000000000
00000000000000
00000000000000
00000000000000
ENDCHAR
STARTCHAR U+00EB
ENCODING 235
SWIDTH 1000 0
DWIDTH 30 0
BBX 49 60 -9 -12
BITMAP
00000000000000
00000000000000
00000000000000
00000000000000
00000000000000
00000000000000
00001fc1fc0000
00001fc1fc0000
00001fc1fc0000
00003f83f80000
00003f83f80000
00003f83f80000
00000000000000
00000000000000
00000000000000
00000000000000
00000000000000
00000000000000
0001ffffc00000
0001ffffc00000
0001ffffc00000
0003ffff800000
0003ffff800000
0003ffff800000
003f800fe00000
003f800fe00000
003f800fe00000
007f001fc00000
007f001fc00000
007f001fc00000
00ffffff800000
00ffffff800000
00ffffff800000
01ffffff000000
01ffffff000000
01ffffff000000
03f80000000000
03f80000000000
03f80000000000
07f00000000000
07f00000000000
07f00000000000
01ffffc0000000
01ffffc0000000
01ffffc0000000
03ffff80000000
03ffff80000000
03ffff80000000
00000000000000
00000000000000
00000000000000
00000000000000
00000000000000
00000000000000
00000000000000
00000000000000
00000000000000
00000000000000
00000000000000
00000000000000
ENDCHAR
STARTCHAR U+00EA
ENCODING 234
SWIDTH 1000 0
DWIDTH 30 0
BBX 49 60 -9 -12
BITMAP
000000fff80000
000000fff80000
000000fff80000
000001fff00000
000001fff00000
000001fff00000
00001fc1fc0000
00001fc1fc0000
00001fc1fc0000
00003f83f80000
00003f83f80000
00003f83f80000
00000000000000
00000000000000
00000000000000
00000000000000
00000000000000
00000000000000
0001ffffc00000
0001ffffc00000
0001ffffc00000
0003ffff800000
0003ffff800000
0003ffff800000
003f800fe00000
003f800fe00000
003f800fe00000
007f001fc00000
007f001fc00000
007f001fc00000
00ffffff800000
00ffffff800000
00ffffff800000
01ffffff000000
01ffffff000000
01ffffff000000
03f80000000000
03f80000000000
03f80000000000
07f00000000000
07f00000000000
07f00000000000
01ffffc0000000
01ffffc0000000
01ffffc0000000
03ffff80000000
03ffff80000000
03ffff80000000
00000000000000
00000000000000
00000000000000
00000000000000
00000000000000
00000000000000
00000000000000
00000000000000
00000000000000
00000000000000
00000000000000
00000000000000
ENDCHAR
STARTCHAR U+00E9
ENCODING 233
SWIDTH 1000 0
DWIDTH 30 0
BBX 49 60 -9 -12
BITMAP
00000000000000
00000000000000
00000000000000
00000000000000
00000000000000
00000000000000
0000007fe00000
0000007fe00000
0000007fe00000
000000ffc00000
000000ffc00000
000000ffc00000
00007fe0000000
00007fe0000000
00007fe0000000
0000ffc0000000
0000ffc0000000
0000ffc0000000
0001ffffc00000
0001ffffc00000
0001ffffc00000
0003ffff800000
0003ffff800000
0003ffff800000
003f800fe00000
003f800fe00000
003f800fe00000
007f001fc00000
007f001fc00000
007f001fc00000
00ffffff800000
00ffffff800000
00ffffff800000
01ffffff000000
01ffffff000000
01ffffff000000
03f80000000000
03f80000000000
03f80000000000
07f00000000000
07f00000000000
07f00000000000
01ffffc0000000
01ffffc0000000
01ffffc0000000
03ffff80000000
03ffff80000000
03ffff80000000
00000000000000
00000000000000
00000000000000
00000000000000
00000000000000
00000000000000
00000000000000
00000000000000
00000000000000
00000000000000
00000000000000
00000000000000
ENDCHAR
STARTCHAR U+00E8
ENCODING 232
SWIDTH 1000 0
DWIDTH 30 0
BBX 49 60 -9 -12
BITMAP
00000000000000
00000000000000
00000000000000
00000000000000
00000000000000
00000000000000
000003ff000000
000003ff000000
000003ff000000
000007fe000000
000007fe000000
000007fe000000
0000003ff00000
0000003ff00000
0000003ff00000
0000007fe00000
0000007fe00000
0000007fe00000
0001ffffc00000
0001ffffc00000
0001ffffc00000
0003ffff800000
0003ffff800000
0003ffff800000
003f800fe00000
003f800fe00000
003f800fe00000
007f001fc00000
007f001fc00000
007f001fc00000
00ffffff800000
00ffffff800000
00ffffff800000
01ffffff000000
01ffffff000000
01ffffff000000
03f80000000000
03f80000000000
03f80000000000
07f00000000000
07f00000000000
07f00000000000
01ffffc0000000
01ffffc0000000
01ffffc0000000
03ffff80000000
03ffff80000000
03ffff80000000
00000000000000
00000000000000
00000000000000
00000000000000
00000000000000
00000000000000
00000000000000
00000000000000
00000000000000
00000000000000
00000000000000
00000000000000
ENDCHAR
STARTCHAR U+00E7
ENCODING 231
SWIDTH 1000 0
DWIDTH 30 0
BBX 49 60 -9 -12
BITMAP
00000000000000
00000000000000
00000000000000
00000000000000
00000000000000
00000000000000
00000000000000
00000000000000
00000000000000
00000000000000
00000000000000
00000000000000
00000000000000
00000000000000
00000000000000
00000000000000
00000000000000
00000000000000
0001ffffc00000
0001ffffc00000
0001ffffc00000
0003ffff800000
0003ffff800000
0003ffff800000
003f800fe00000
003f800fe00000
003f800fe00000
007f001fc00000
007f001fc00000
007f001fc00000
00fe0000000000
00fe0000000000
00fe0000000000
01fc0000000000
01fc0000000000
01fc0000000000
03f800fe000000
03f800fe000000
03f800fe000000
07f001fc000000
07f001fc000000
07f001fc000000
01ffffc0000000
01ffffc0000000
01ffffc0000000
03ffff80000000
03ffff80000000
03ffff80000000
0003f800000000
0003f800000000
0003f800000000
0007f000000000
0007f000000000
0007f000000000
03ffe000000000
03ffe000000000
03ffe000000000
07ffc000000000
07ffc000000000
07ffc000000000
ENDCHAR
STARTCHAR U+00E6
ENCODING 230
SWIDTH 1000 0
DWIDTH 30 0
BBX 49 60 -9 -12
BITMAP
00000000000000
00000000000000
00000000000000
00000000000000
00000000000000
00000000000000
00000000000000
00000000000000
00000000000000
00000000000000
00000000000000
00000000000000
00000000000000
00000000000000
00000000000000
00000000000000
00000000000000
00000000000000
0001ffffc00000
0001ffffc00000
0001ffffc00000
0003ffff800000
0003ffff800000
0003ffff800000
00001fcfe00000
00001fcfe00000
00001fcfe00000
00003f9fc00000
00003f9fc00000
00003f9fc00000
001fffff800000
001fffff800000
001fffff800000
003fffff000000
003fffff000000
003fffff000000
03f9fc00000000
03f9fc00000000
03f9fc00000000
07f3f800000000
07f3f800000000
07f3f800000000
01fffff8000000
01fffff8000000
01fffff8000000
03fffff0000000
03fffff0000000
03fffff0000000
00000000000000
00000000000000
00000000000000
00000000000000
00000000000000
00000000000000
00000000000000
00000000000000
00000000000000
00000000000000
00000000000000
00000000000000
ENDCHAR
STARTCHAR U+00E5
ENCODING 229
SWIDTH 1000 0
DWIDTH 30 0
BBX 49 60 -9 -12
BITMAP
000000fff80000
000000fff80000
000000fff80000
000001fff00000
000001fff00000
000001fff00000
00001fc1fc0000
00001fc1fc0000
00001fc1fc0000
00003f83f80000
00003f83f80000
00003f83f80000
00000fff800000
00000fff800000
00000fff800000
00001fff000000
00001fff000000
00001fff000000
0001ffffc00000
0001ffffc00000
0001ffffc00000
0003ffff800000
0003ffff800000
0003ffff800000
0000000fe00000
0000000fe00000
0000000fe00000
0000001fc00000
0000001fc00000
0000001fc00000
001fffff800000
001fffff800000
001fffff800000
003fffff000000
003fffff000000
003fffff000000
03f807fe000000
03f807fe000000
03f807fe000000
07f00ffc000000
07f00ffc000000
07f00ffc000000
01fffff8000000
01fffff8000000
01fffff8000000
03fffff0000000
03fffff0000000
03fffff0000000
00000000000000
00000000000000
00000000000000
00000000000000
00000000000000
00000000000000
00000000000000
00000000000000
00000000000000
00000000000000
00000000000000
00000000000000
ENDCHAR
STARTCHAR U+00E4
ENCODING 228
SWIDTH 1000 0
DWIDTH 30 0
BBX 49 60 -9 -12
BITMAP
00000000000000
00000000000000
00000000000000
00000000000000
00000000000000
00000000000000
00001fc1fc0000
00001fc1fc0000
00001fc1fc0000
00003f83f80000
00003f83f80000
00003f83f80000
00000000000000
00000000000000
00000000000000
00000000000000
00000000000000
00000000000000
0001ffffc00000
0001ffffc00000
0001ffffc00000
0003ffff800000
0003ffff800000
0003ffff800000
0000000fe00000
0000000fe00000
0000000fe00000
0000001fc00000
0000001fc00000
0000001fc00000
001fffff800000
001fffff800000
001fffff800000
003fffff000000
003fffff000000
003fffff000000
03f807fe000000
03f807fe000000
03f807fe000000
07f00ffc000000
07f00ffc000000
07f00ffc000000
01fffff8000000
01fffff8000000
01fffff8000000
03fffff0000000
03fffff0000000
03fffff0000000
00000000000000
00000000000000
00000000000000
00000000000000
00000000000000
00000000000000
00000000000000
00000000000000
00000000000000
00000000000000
00000000000000
00000000000000
ENDCHAR
STARTCHAR U+00E3
ENCODING 227
SWIDTH 1000 0
DWIDTH 30 0
BBX 49 60 -9 -12
BITMAP
000000ffcfe000
000000ffcfe000
000000ffcfe000
000001ff9fc000
000001ff9fc000
000001ff9fc000
00001fcffc0000
00001fcffc0000
00001fcffc0000
00003f9ff80000
00003f9ff80000
00003f9ff80000
00000000000000
00000000000000
00000000000000
00000000000000
00000000000000
00000000000000
0001ffffc00000
0001ffffc00000
0001ffffc00000
0003ffff800000
0003ffff800000
0003ffff800000
0000000fe00000
0000000fe00000
0000000fe00000
0000001fc00000
0000001fc00000
0000001fc00000
001fffff800000
001fffff800000
001fffff800000
003fffff000000
003fffff000000
003fffff000000
03f807fe000000
03f807fe000000
03f807fe000000
07f00ffc000000
07f00ffc000000
07f00ffc000000
01fffff8000000
01fffff8000000
01fffff8000000
03fffff0000000
03fffff0000000
03fffff0000000
00000000000000
00000000000000
00000000000000
00000000000000
00000000000000
00000000000000
00000000000000
00000000000000
00000000000000
00000000000000
00000000000000
00000000000000
ENDCHAR
STARTCHAR U+00E2
ENCODING 226
SWIDTH 1000 0
DWIDTH 30 0
BBX 49 60 -9 -12
BITMAP
000000fff80000
000000fff80000
000000fff80000
000001fff00000
000001fff00000
000001fff00000
00001fc1fc0000
00001fc1fc0000
00001fc1fc0000
00003f83f80000
00003f83f80000
00003f83f80000
00000000000000
00000000000000
00000000000000
00000000000000
00000000000000
00000000000000
0001ffffc00000
0001ffffc00000
0001ffffc00000
0003ffff800000
0003ffff800000
0003ffff800000
0000000fe00000
0000000fe00000
0000000fe00000
0000001fc00000
0000001fc00000
0000001fc00000
001fffff800000
001fffff800000
001fffff800000
003fffff000000
003fffff000000
003fffff000000
03f807fe000000
03f807fe000000
03f807fe000000
07f00ffc000000
07f00ffc000000
07f00ffc000000
01fffff8000000
01fffff8000000
01fffff8000000
03fffff0000000
03fffff0000000
03fffff0000000
00000000000000
00000000000000
00000000000000
00000000000000
00000000000000
00000000000000
00000000000000
00000000000000
00000000000000
00000000000000
00000000000000
00000000000000
ENDCHAR
STARTCHAR U+00E1
ENCODING 225
SWIDTH 1000 0
DWIDTH 30 0
BBX 49 60 -9 -12
BITMAP
00000000000000
00000000000000
00000000000000
00000000000000
00000000000000
00000000000000
0000007fe00000
0000007fe00000
0000007fe00000
000000ffc00000
000000ffc00000
000000ffc00000
00007fe0000000
00007fe0000000
00007fe0000000
0000ffc0000000
0000ffc0000000
0000ffc0000000
0001ffffc00000
0001ffffc00000
0001ffffc00000
0003ffff800000
0003ffff800000
0003ffff800000
0000000fe00000
0000000fe00000
0000000fe00000
0000001fc00000
0000001fc00000
0000001fc00000
001fffff800000
001fffff800000
001fffff800000
003fffff000000
003fffff000000
003fffff000000
03f807fe000000
03f807fe000000
03f807fe000000
07f00ffc000000
07f00ffc000000
07f00ffc000000
01fffff8000000
01fffff8000000
01fffff8000000
03fffff0000000
03fffff0000000
03fffff0000000
00000000000000
00000000000000
00000000000000
00000000000000
00000000000000
00000000000000
00000000000000
00000000000000
00000000000000
00000000000000
00000000000000
00000000000000
ENDCHAR
STARTCHAR U+00E0
ENCODING 224
SWIDTH 1000 0
DWIDTH 30 0
BBX 49 60 -9 -12
BITMAP
00000000000000
00000000000000
00000000000000
00000000000000
00000000000000
00000000000000
000003ff000000
000003ff000000
000003ff000000
000007fe000000
000007fe000000
000007fe000000
0000003ff00000
0000003ff00000
0000003ff00000
0000007fe00000
0000007fe00000
0000007fe00000
0001ffffc00000
0001ffffc00000
0001ffffc00000
0003ffff800000
0003ffff800000
0003ffff800000
0000000fe00000
0000000fe00000
0000000fe00000
0000001fc00000
0000001fc00000
0000001fc00000
001fffff800000
001fffff800000
001fffff800000
003fffff000000
003fffff000000
003fffff000000
03f807fe000000
03f807fe000000
03f807fe000000
07f00ffc000000
07f00ffc000000
07f00ffc000000
01fffff8000000
01fffff8000000
01fffff8000000
03fffff0000000
03fffff0000000
03fffff0000000
00000000000000
00000000000000
00000000000000
00000000000000
00000000000000
00000000000000
00000000000000
00000000000000
00000000000000
00000000000000
00000000000000
00000000000000
ENDCHAR
STARTCHAR U+00DF
ENCODING 223
SWIDTH 1000 0
DWIDTH 30 0
BBX 49 60 -9 -12
BITMAP
00000000000000
00000000000000
00000000000000
00000000000000
00000000000000
00000000000000
000003ffe00000
000003ffe00000
000003ffe00000
000007ffc00000
000007ffc00000
000007ffc00000
00007f07f00000
00007f07f00000
00007f07f00000
0000fe0fe00000
0000fe0fe00000
0000fe0fe00000
000fe01fc00000
000fe01fc00000
000fe01fc00000
001fc03f800000
001fc03f800000
001fc03f800000
003ffff8000000
003ffff8000000
003ffff8000000
007ffff0000000
007ffff0000000
007ffff0000000
00fe01fc000000
00fe01fc000000
00fe01fc000000
01fc03f8000000
01fc03f8000000
01fc03f8000000
03ffe0fe000000
03ffe0fe000000
03ffe0fe000000
07ffc1fc000000
07ffc1fc000000
07ffc1fc000000
0fe7ffc0000000
0fe7ffc0000000
0fe7ffc0000000
1fcfff80000000
1fcfff80000000
1fcfff80000000
3f800000000000
3f800000000000
3f800000000000
7f000000000000
7f000000000000
7f000000000000
00000000000000
00000000000000
00000000000000
00000000000000
00000000000000
00000000000000
ENDCHAR
STARTCHAR U+00DE
ENCODING 222
SWIDTH 1000 0
DWIDTH 30 0
BBX 49 60 -9 -12
BITMAP
00000000000000
00000000000000
00000000000000
00000000000000
00000000000000
00000000000000
0000ffc0000000
0000ffc0000000
0000ffc0000000
0001ff80000000
0001ff80000000
0001ff80000000
00007ffff00000
00007ffff00000
00007ffff00000
0000ffffe00000
0000ffffe00000
0000ffffe00000
0001fc03f80000
0001fc03f80000
0001fc03f80000
0003f807f00000
0003f807f00000
0003f807f00000
0007f00fe00000
0007f00fe00000
0007f00fe00000
000fe01fc00000
000fe01fc00000
000fe01fc00000
001fc03f800000
001fc03f800000
001fc03f800000
003f807f000000
003f807f000000
003f807f000000
007ffff0000000
007ffff0000000
007ffff0000000
00ffffe0000000
00ffffe0000000
00ffffe0000000
0ffc0000000000
0ffc0000000000
0ffc0000000000
1ff80000000000
1ff80000000000
1ff80000000000
00000000000000
00000000000000
00000000000000
00000000000000
00000000000000
00000000000000
00000000000000
00000000000000
00000000000000
00000000000000
00000000000000
00000000000000
ENDCHAR
STARTCHAR U+0178
ENCODING 376
SWIDTH 1000 0
DWIDTH 30 0
BBX 49 60 -9 -12
BITMAP
000007f07f0000
000007f07f0000
000007f07f0000
00000fe0fe0000
00000fe0fe0000
00000fe0fe0000
00000000000000
00000000000000
00000000000000
00000000000000
00000000000000
00000000000000
0003f800fe0000
0003f800fe0000
0003f800fe0000
0007f001fc0000
0007f001fc0000
0007f001fc0000
0001fc1fc00000
0001fc1fc00000
0001fc1fc00000
0003f83f800000
0003f83f800000
0003f83f800000
0000fff8000000
0000fff8000000
0000fff8000000
0001fff0000000
0001fff0000000
0001fff0000000
00007f00000000
00007f00000000
00007f00000000
0000fe00000000
0000fe00000000
0000fe00000000
0001fc00000000
0001fc00000000
0001fc00000000
0003f800000000
0003f800000000
0003f800000000
0007f000000000
0007f000000000
0007f000000000
000fe000000000
000fe000000000
000fe000000000
00000000000000
00000000000000
00000000000000
00000000000000
00000000000000
00000000000000
00000000000000
00000000000000
00000000000000
00000000000000
00000000000000
00000000000000
ENDCHAR
STARTCHAR U+00DC
ENCODING 220
SWIDTH 1000 0
DWIDTH 30 0
BBX 49 60 -9 -12
BITMAP
000007f07f0000
000007f07f0000
000007f07f0000
00000fe0fe0000
00000fe0fe0000
00000fe0fe0000
00000000000000
00000000000000
00000000000000
00000000000000
00000000000000
00000000000000
0003f800fe0000
0003f800fe0000
0003f800fe0000
0007f001fc0000
0007f001fc0000
0007f001fc0000
000fe003f80000
000fe003f80000
000fe003f80000
001fc007f00000
001fc007f00000
001fc007f00000
003f800fe00000
003f800fe00000
003f800fe00000
007f001fc00000
007f001fc00000
007f001fc00000
00fe003f800000
00fe003f800000
00fe003f800000
01fc007f000000
01fc007f000000
01fc007f000000
03f800fe000000
03f800fe000000
03f800fe000000
07f001fc000000
07f001fc000000
07f001fc000000
01ffffc0000000
01ffffc0000000
01ffffc0000000
03ffff80000000
03ffff80000000
03ffff80000000
00000000000000
00000000000000
00000000000000
00000000000000
00000000000000
00000000000000
00000000000000
00000000000000
00000000000000
00000000000000
00000000000000
00000000000000
ENDCHAR
STARTCHAR U+00DB
ENCODING 219
SWIDTH 1000 0
DWIDTH 30 0
BBX 49 60 -9 -12
BITMAP
0000001fc00000
0000001fc00000
0000001fc00000
0000003f800000
0000003f800000
0000003f800000
000003ffe00000
000003ffe00000
000003ffe00000
000007ffc00000
000007ffc00000
00000fffc00000
0003f800fe0000
0003f800fe0000
0003f800fe0000
0007f001fc0000
0007f001fc0000
0007f001fc0000
000fe003f80000
000fe003f80000
000fe003f80000
001fc007f00000
001fc007f00000
001fc007f00000
003f800fe00000
003f800fe00000
003f800fe00000
007f001fc00000
007f001fc00000
007f001fc00000
00fe003f800000
00fe003f800000
00fe003f800000
01fc007f000000
01fc007f000000
01fc007f000000
03f800fe000000
03f800fe000000
03f800fe000000
07f001fc000000
07f001fc000000
07f001fc000000
01ffffc0000000
01ffffc0000000
01ffffc0000000
03ffff80000000
03ffff80000000
03ffff80000000
00000000000000
00000000000000
00000000000000
00000000000000
00000000000000
00000000000000
00000000000000
00000000000000
00000000000000
00000000000000
00000000000000
00000000000000
ENDCHAR
STARTCHAR U+00DA
ENCODING 218
SWIDTH 1000 0
DWIDTH 30 0
BBX 49 60 -9 -12
BITMAP
00000003ff0000
00000003ff0000
00000003ff0000
00000007fe0000
00000007fe0000
00000007fe0000
000003ff000000
000003ff000000
000003ff000000
000007fe000000
000007fe000000
00000ffe000000
0003f800fe0000
0003f800fe0000
0003f800fe0000
0007f001fc0000
0007f001fc0000
0007f001fc0000
000fe003f80000
000fe003f80000
000fe003f80000
001fc007f00000
001fc007f00000
001fc007f00000
003f800fe00000
003f800fe00000
003f800fe00000
007f001fc00000
007f001fc00000
007f001fc00000
00fe003f800000
00fe003f800000
00fe003f800000
01fc007f000000
01fc007f000000
01fc007f000000
03f800fe000000
03f800fe000000
03f800fe000000
07f001fc000000
07f001fc000000
07f001fc000000
01ffffc0000000
01ffffc0000000
01ffffc0000000
03ffff80000000
03ffff80000000
03ffff80000000
00000000000000
00000000000000
00000000000000
00000000000000
00000000000000
00000000000000
00000000000000
00000000000000
00000000000000
00000000000000
00000000000000
00000000000000
ENDCHAR
STARTCHAR U+00D9
ENCODING 217
SWIDTH 1000 0
DWIDTH 30 0
BBX 49 60 -9 -12
BITMAP
000007fe000000
000007fe000000
000007fe000000
00000ffc000000
00000ffc000000
00000ffc000000
0000007fe00000
0000007fe00000
0000007fe00000
000000ffc00000
000000ffc00000
000000ffc00000
0003f800fe0000
0003f800fe0000
0003f800fe0000
0007f001fc0000
0007f001fc0000
0007f001fc0000
000fe003f80000
000fe003f80000
000fe003f80000
001fc007f00000
001fc007f00000
001fc007f00000
003f800fe00000
003f800fe00000
003f800fe00000
007f001fc00000
007f001fc00000
007f001fc00000
00fe003f800000
00fe003f800000
00fe003f800000
01fc007f000000
01fc007f000000
01fc007f000000
03f800fe000000
03f800fe000000
03f800fe000000
07f001fc000000
07f001fc000000
07f001fc000000
01ffffc0000000
01ffffc0000000
01ffffc0000000
03ffff80000000
03ffff80000000
03ffff80000000
00000000000000
00000000000000
00000000000000
00000000000000
00000000000000
00000000000000
00000000000000
00000000000000
00000000000000
00000000000000
00000000000000
00000000000000
ENDCHAR
STARTCHAR U+00D8
ENCODING 216
SWIDTH 1000 0
DWIDTH 30 0
BBX 49 60 -9 -12
BITMAP
000000000fe000
000000000fe000
000000000fe000
000000001fc000
000000001fc000
000000001fc000
00001ffffc0000
00001ffffc0000
00001ffffc0000
00003ffff80000
00003ffff80000
00003ffff80000
0003f807fe0000
0003f807fe0000
0003f807fe0000
0007f00ffc0000
0007f00ffc0000
0007f00ffc0000
000fe0fff80000
000fe0fff80000
000fe0fff80000
001fc1fff00000
001fc1fff00000
001fc1fff00000
003f9fcfe00000
003f9fcfe00000
003f9fcfe00000
007f3f9fc00000
007f3f9fc00000
007f3f9fc00000
00fff83f800000
00fff83f800000
00fff83f800000
01fff07f000000
01fff07f000000
01fff07f000000
03ff00fe000000
03ff00fe000000
03ff00fe000000
07fe01fc000000
07fe01fc000000
07fe01fc000000
01ffffc0000000
01ffffc0000000
01ffffc0000000
03ffff80000000
03ffff80000000
03ffff80000000
3f800000000000
3f800000000000
3f800000000000
7f000000000000
7f000000000000
7f000000000000
00000000000000
00000000000000
00000000000000
00000000000000
00000000000000
00000000000000
ENDCHAR
STARTCHAR U+0152
ENCODING 338
SWIDTH 1000 0
DWIDTH 30 0
BBX 49 60 -9 -12
BITMAP
00000000000000
00000000000000
00000000000000
00000000000000
00000000000000
00000000000000
00001fffff8000
00001fffff8000
00001fffff8000
00003fffff0000
00003fffff0000
00003fffff0000
0003f9fc000000
0003f9fc000000
0003f9fc000000
0007f3f8000000
0007f3f8000000
0007f3f8000000
000fe7f0000000
000fe7f0000000
000fe7f0000000
001fcfe0000000
001fcfe0000000
001fcfe0000000
003f9fff000000
003f9fff000000
003f9fff000000
007f3ffe000000
007f3ffe000000
007f3ffe000000
00fe7f00000000
00fe7f00000000
00fe7f00000000
01fcfe00000000
01fcfe00000000
01fcfe00000000
03f9fc00000000
03f9fc00000000
03f9fc00000000
07f3f800000000
07f3f800000000
07f3f800000000
01fffff8000000
01fffff8000000
01fffff8000000
03fffff0000000
03fffff0000000
03fffff0000000
00000000000000
00000000000000
00000000000000
00000000000000
00000000000000
00000000000000
00000000000000
00000000000000
00000000000000
00000000000000
00000000000000
00000000000000
ENDCHAR
STARTCHAR U+00D6
ENCODING 214
SWIDTH 1000 0
DWIDTH 30 0
BBX 49 60 -9 -12
BITMAP
000007f07f0000
000007f07f0000
000007f07f0000
00000fe0fe0000
00000fe0fe0000
00000fe0fe0000
00000000000000
00000000000000
00000000000000
00000000000000
00000000000000
00000000000000
00007ffff00000
00007ffff00000
00007ffff00000
0000ffffe00000
0000ffffe00000
0000ffffe00000
000fe003f80000
000fe003f80000
000fe003f80000
001fc007f00000
001fc007f00000
001fc007f00000
003f800fe00000
003f800fe00000
003f800fe00000
007f001fc00000
007f001fc00000
007f001fc00000
00fe003f800000
00fe003f800000
00fe003f800000
01fc007f000000
01fc007f000000
01fc007f000000
03f800fe000000
03f800fe000000
03f800fe000000
07f001fc000000
07f001fc000000
07f001fc000000
01ffffc0000000
01ffffc0000000
01ffffc0000000
03ffff80000000
03ffff80000000
03ffff80000000
00000000000000
00000000000000
00000000000000
00000000000000
00000000000000
00000000000000
00000000000000
00000000000000
00000000000000
00000000000000
00000000000000
00000000000000
ENDCHAR
STARTCHAR U+00D5
ENCODING 213
SWIDTH 1000 0
DWIDTH 30 0
BBX 49 60 -9 -12
BITMAP
000007fe7f0000
000007fe7f0000
000007fe7f0000
00000ffcfe0000
00000ffcfe0000
00000ffcfe0000
0000fe7fe00000
0000fe7fe00000
0000fe7fe00000
0001fcffc00000
0001fcffc00000
0001fcffc00000
00007ffff00000
00007ffff00000
00007ffff00000
0000ffffe00000
0000ffffe00000
0000ffffe00000
000fe003f80000
000fe003f80000
000fe003f80000
001fc007f00000
001fc007f00000
001fc007f00000
003f800fe00000
003f800fe00000
003f800fe00000
007f001fc00000
007f001fc00000
007f001fc00000
00fe003f800000
00fe003f800000
00fe003f800000
01fc007f000000
01fc007f000000
01fc007f000000
03f800fe000000
03f800fe000000
03f800fe000000
07f001fc000000
07f001fc000000
07f001fc000000
01ffffc0000000
01ffffc0000000
01ffffc0000000
03ffff80000000
03ffff80000000
03ffff80000000
00000000000000
00000000000000
00000000000000
00000000000000
00000000000000
00000000000000
00000000000000
00000000000000
00000000000000
00000000000000
00000000000000
00000000000000
ENDCHAR
STARTCHAR U+00D4
ENCODING 212
SWIDTH 1000 0
DWIDTH 30 0
BBX 49 60 -9 -12
BITMAP
000000fff80000
000000fff80000
000000fff80000
000001fff00000
000001fff00000
000001fff00000
00001fc1fc0000
00001fc1fc0000
00001fc1fc0000
00003f83f80000
00003f83f80000
00003f83f80000
00007ffff00000
00007ffff00000
00007ffff00000
0000ffffe00000
0000ffffe00000
0000ffffe00000
000fe003f80000
000fe003f80000
000fe003f80000
001fc007f00000
001fc007f00000
001fc007f00000
003f800fe00000
003f800fe00000
003f800fe00000
007f001fc00000
007f001fc00000
007f001fc00000
00fe003f800000
00fe003f800000
00fe003f800000
01fc007f000000
01fc007f000000
01fc007f000000
03f800fe000000
03f800fe000000
03f800fe000000
07f001fc000000
07f001fc000000
07f001fc000000
01ffffc0000000
01ffffc0000000
01ffffc0000000
03ffff80000000
03ffff80000000
03ffff80000000
00000000000000
00000000000000
00000000000000
00000000000000
00000000000000
00000000000000
00000000000000
00000000000000
00000000000000
00000000000000
00000000000000
00000000000000
ENDCHAR
STARTCHAR U+00D3
ENCODING 211
SWIDTH 1000 0
DWIDTH 30 0
BBX 49 60 -9 -12
BITMAP
0000001ff80000
0000001ff80000
0000001ff80000
0000003ff00000
0000003ff00000
0000003ff00000
00001ff8000000
00001ff8000000
00001ff8000000
00003ff0000000
00003ff0000000
00003ff0000000
00007ffff00000
00007ffff00000
00007ffff00000
0000ffffe00000
0000ffffe00000
0000ffffe00000
000fe003f80000
000fe003f80000
000fe003f80000
001fc007f00000
001fc007f00000
001fc007f00000
003f800fe00000
003f800fe00000
003f800fe00000
007f001fc00000
007f001fc00000
007f001fc00000
00fe003f800000
00fe003f800000
00fe003f800000
01fc007f000000
01fc007f000000
01fc007f000000
03f800fe000000
03f800fe000000
03f800fe000000
07f001fc000000
07f001fc000000
07f001fc000000
01ffffc0000000
01ffffc0000000
01ffffc0000000
03ffff80000000
03ffff80000000
03ffff80000000
00000000000000
00000000000000
00000000000000
00000000000000
00000000000000
00000000000000
00000000000000
00000000000000
00000000000000
00000000000000
00000000000000
00000000000000
ENDCHAR
STARTCHAR U+00D2
ENCODING 210
SWIDTH 1000 0
DWIDTH 30 0
BBX 49 60 -9 -12
BITMAP
000000ffc00000
000000ffc00000
000000ffc00000
000001ff800000
000001ff800000
000001ff800000
0000000ffc0000
0000000ffc0000
0000000ffc0000
0000001ff80000
0000001ff80000
0000001ff80000
00007ffff00000
00007ffff00000
00007ffff00000
0000ffffe00000
0000ffffe00000
0000ffffe00000
000fe003f80000
000fe003f80000
000fe003f80000
001fc007f00000
001fc007f00000
001fc007f00000
003f800fe00000
003f800fe00000
003f800fe00000
007f001fc00000
007f001fc00000
007f001fc00000
00fe003f800000
00fe003f800000
00fe003f800000
01fc007f000000
01fc007f000000
01fc007f000000
03f800fe000000
03f800fe000000
03f800fe000000
07f001fc000000
07f001fc000000
07f001fc000000
01ffffc0000000
01ffffc0000000
01ffffc0000000
03ffff80000000
03ffff80000000
03ffff80000000
00000000000000
00000000000000
00000000000000
00000000000000
00000000000000
00000000000000
00000000000000
00000000000000
00000000000000
00000000000000
00000000000000
00000000000000
ENDCHAR
STARTCHAR U+00D1
ENCODING 209
SWIDTH 1000 0
DWIDTH 30 0
BBX 49 60 -9 -12
BITMAP
000000ffcfe000
000000ffcfe000
000000ffcfe000
000001ff9fc000
000001ff9fc000
000001ff9fc000
00001fcffc0000
00001fcffc0000
00001fcffc0000
00003f9ff80000
00003f9ff80000
00003f9ff80000
0003ff00fe0000
0003ff00fe0000
0003ff00fe0000
0007fe01fc0000
0007fe01fc0000
0007fe01fc0000
000fff83f80000
000fff83f80000
000fff83f80000
001fff07f00000
001fff07f00000
001fff07f00000
003f9fcfe00000
003f9fcfe00000
003f9fcfe00000
007f3f9fc00000
007f3f9fc00000
007f3f9fc00000
00fe0fff800000
00fe0fff800000
00fe0fff800000
01fc1fff000000
01fc1fff000000
01fc1fff000000
03f807fe000000
03f807fe000000
03f807fe000000
07f00ffc000000
07f00ffc000000
07f00ffc000000
0fe003f8000000
0fe003f8000000
0fe003f8000000
1fc007f0000000
1fc007f0000000
1fc007f0000000
00000000000000
00000000000000
00000000000000
00000000000000
00000000000000
00000000000000
00000000000000
00000000000000
00000000000000
00000000000000
00000000000000
00000000000000
ENDCHAR
STARTCHAR U+00D0
ENCODING 208
SWIDTH 1000 0
DWIDTH 30 0
BBX 49 60 -9 -12
BITMAP
00000000000000
00000000000000
00000000000000
00000000000000
00000000000000
00000000000000
0000ffffe00000
0000ffffe00000
0000ffffe00000
0001ffffc00000
0001ffffc00000
0001ffffc00000
00007f07f00000
00007f07f00000
00007f07f00000
0000fe0fe00000
0000fe0fe00000
0000fe0fe00000
0001fc03f80000
0001fc03f80000
0001fc03f80000
0003f807f00000
0003f807f00000
0003f807f00000
003fffcfe00000
003fffcfe00000
003fffcfe00000
007fff9fc00000
007fff9fc00000
007fff9fc00000
001fc03f800000
001fc03f800000
001fc03f800000
003f807f000000
003f807f000000
003f807f000000
007f07f0000000
007f07f0000000
007f07f0000000
00fe0fe0000000
00fe0fe0000000
00fe0fe0000000
0ffffe00000000
0ffffe00000000
0ffffe00000000
1ffffc00000000
1ffffc00000000
1ffffc00000000
00000000000000
00000000000000
00000000000000
00000000000000
00000000000000
00000000000000
00000000000000
00000000000000
00000000000000
00000000000000
00000000000000
00000000000000
ENDCHAR
STARTCHAR U+00CF
ENCODING 207
SWIDTH 1000 0
DWIDTH 30 0
BBX 49 60 -9 -12
BITMAP
000007f07f0000
000007f07f0000
000007f07f0000
00000fe0fe0000
00000fe0fe0000
00000fe0fe0000
00000000000000
00000000000000
00000000000000
00000000000000
00000000000000
00000000000000
00007ffff00000
00007ffff00000
00007ffff00000
0000ffffe00000
0000ffffe00000
0000ffffe00000
000007f0000000
000007f0000000
000007f0000000
00000fe0000000
00000fe0000000
00000fe0000000
00001fc0000000
00001fc0000000
00001fc0000000
00003f80000000
00003f80000000
00003f80000000
00007f00000000
00007f00000000
00007f00000000
0000fe00000000
0000fe00000000
0000fe00000000
0001fc00000000
0001fc00000000
0001fc00000000
0003f800000000
0003f800000000
0003f800000000
01ffffc0000000
01ffffc0000000
01ffffc0000000
03ffff80000000
03ffff80000000
03ffff80000000
00000000000000
00000000000000
00000000000000
00000000000000
00000000000000
00000000000000
00000000000000
00000000000000
00000000000000
00000000000000
00000000000000
00000000000000
ENDCHAR
STARTCHAR U+00CE
ENCODING 206
SWIDTH 1000 0
DWIDTH 30 0
BBX 49 60 -9 -12
BITMAP
000000fff80000
000000fff80000
000000fff80000
000001fff00000
000001fff00000
000001fff00000
00001fc1fc0000
00001fc1fc0000
00001fc1fc0000
00003f83f80000
00003f83f80000
00003f83f80000
00007ffff00000
00007ffff00000
00007ffff00000
0000ffffe00000
0000ffffe00000
0000ffffe00000
000007f0000000
000007f0000000
000007f0000000
00000fe0000000
00000fe0000000
00000fe0000000
00001fc0000000
00001fc0000000
00001fc0000000
00003f80000000
00003f80000000
00003f80000000
00007f00000000
00007f00000000
00007f00000000
0000fe00000000
0000fe00000000
0000fe00000000
0001fc00000000
0001fc00000000
0001fc00000000
0003f800000000
0003f800000000
0003f800000000
01ffffc0000000
01ffffc0000000
01ffffc0000000
03ffff80000000
03ffff80000000
03ffff80000000
00000000000000
00000000000000
00000000000000
00000000000000
00000000000000
00000000000000
00000000000000
00000000000000
00000000000000
00000000000000
00000000000000
00000000000000
ENDCHAR
STARTCHAR U+00CD
ENCODING 205
SWIDTH 1000 0
DWIDTH 30 0
BBX 49 60 -9 -12
BITMAP
0000001ff80000
0000001ff80000
0000001ff80000
0000003ff00000
0000003ff00000
0000003ff00000
00001ff8000000
00001ff8000000
00001ff8000000
00003ff0000000
00003ff0000000
00003ff0000000
00007ffff00000
00007ffff00000
00007ffff00000
0000ffffe00000
0000ffffe00000
0000ffffe00000
000007f0000000
000007f0000000
000007f0000000
00000fe0000000
00000fe0000000
00000fe0000000
00001fc0000000
00001fc0000000
00001fc0000000
00003f80000000
00003f80000000
00003f80000000
00007f00000000
00007f00000000
00007f00000000
0000fe00000000
0000fe00000000
0000fe00000000
0001fc00000000
0001fc00000000
0001fc00000000
0003f800000000
0003f800000000
0003f800000000
01ffffc0000000
01ffffc0000000
01ffffc0000000
03ffff80000000
03ffff80000000
03ffff80000000
00000000000000
00000000000000
00000000000000
00000000000000
00000000000000
00000000000000
00000000000000
00000000000000
00000000000000
00000000000000
00000000000000
00000000000000
ENDCHAR
STARTCHAR U+00CC
ENCODING 204
SWIDTH 1000 0
DWIDTH 30 0
BBX 49 60 -9 -12
BITMAP
000000ffc00000
000000ffc00000
000000ffc00000
000001ff800000
000001ff800000
000001ff800000
0000000ffc0000
0000000ffc0000
0000000ffc0000
0000001ff80000
0000001ff80000
0000001ff80000
00007ffff00000
00007ffff00000
00007ffff00000
0000ffffe00000
0000ffffe00000
0000ffffe00000
000007f0000000
000007f0000000
000007f0000000
00000fe0000000
00000fe0000000
00000fe0000000
00001fc0000000
00001fc0000000
00001fc0000000
00003f80000000
00003f80000000
00003f80000000
00007f00000000
00007f00000000
00007f00000000
0000fe00000000
0000fe00000000
0000fe00000000
0001fc00000000
0001fc00000000
0001fc00000000
0003f800000000
0003f800000000
0003f800000000
01ffffc0000000
01ffffc0000000
01ffffc0000000
03ffff80000000
03ffff80000000
03ffff80000000
00000000000000
00000000000000
00000000000000
00000000000000
00000000000000
00000000000000
00000000000000
00000000000000
00000000000000
00000000000000
00000000000000
00000000000000
ENDCHAR
STARTCHAR U+00CB
ENCODING 203
SWIDTH 1000 0
DWIDTH 30 0
BBX 49 60 -9 -12
BITMAP
000007f07f0000
000007f07f0000
000007f07f0000
00000fe0fe0000
00000fe0fe0000
00000fe0fe0000
00000000000000
00000000000000
00000000000000
00000000000000
00000000000000
00000000000000
0003fffffe0000
0003fffffe0000
0003fffffe0000
0007fffffc0000
0007fffffc0000
0007fffffc0000
000fe000000000
000fe000000000
000fe000000000
001fc000000000
001fc000000000
001fc000000000
003ffff8000000
003ffff8000000
003ffff8000000
007ffff0000000
007ffff0000000
007ffff0000000
00fe0000000000
00fe0000000000
00fe0000000000
01fc0000000000
01fc0000000000
01fc0000000000
03f80000000000
03f80000000000
03f80000000000
07f00000000000
07f00000000000
07f00000000000
0ffffff8000000
0ffffff8000000
0ffffff8000000
1ffffff0000000
1ffffff0000000
1ffffff0000000
00000000000000
00000000000000
00000000000000
00000000000000
00000000000000
00000000000000
00000000000000
00000000000000
00000000000000
00000000000000
00000000000000
00000000000000
ENDCHAR
STARTCHAR U+00CA
ENCODING 202
SWIDTH 1000 0
DWIDTH 30 0
BBX 49 60 -9 -12
BITMAP
000000fff80000
000000fff80000
000000fff80000
000001fff00000
000001fff00000
000001fff00000
00001fc1fc0000
00001fc1fc0000
00001fc1fc0000
00003f83f80000
00003f83f80000
00003f83f80000
0003fffffe0000
0003fffffe0000
0003fffffe0000
0007fffffc0000
0007fffffc0000
0007fffffc0000
000fe000000000
000fe000000000
000fe000000000
001fc000000000
001fc000000000
001fc000000000
003fffc0000000
003fffc0000000
003fffc0000000
007fff80000000
007fff80000000
007fff80000000
00fe0000000000
00fe0000000000
00fe0000000000
01fc0000000000
01fc0000000000
01fc0000000000
03f80000000000
03f80000000000
03f80000000000
07f00000000000
07f00000000000
07f00000000000
0ffffff8000000
0ffffff8000000
0ffffff8000000
1ffffff0000000
1ffffff0000000
1ffffff0000000
00000000000000
00000000000000
00000000000000
00000000000000
00000000000000
00000000000000
00000000000000
00000000000000
00000000000000
00000000000000
00000000000000
00000000000000
ENDCHAR
STARTCHAR U+00C9
ENCODING 201
SWIDTH 1000 0
DWIDTH 30 0
BBX 49 60 -9 -12
BITMAP
00000003ff0000
00000003ff0000
00000003ff0000
00000007fe0000
00000007fe0000
00000007fe0000
000003ff000000
000003ff000000
000003ff000000
000007fe000000
000007fe000000
000007fe000000
0003fffffe0000
0003fffffe0000
0003fffffe0000
0007fffffc0000
0007fffffc0000
0007fffffc0000
000fe000000000
000fe000000000
000fe000000000
001fc000000000
001fc000000000
001fc000000000
003ffff8000000
003ffff8000000
003ffff8000000
007ffff0000000
007ffff0000000
007ffff0000000
00fe0000000000
00fe0000000000
00fe0000000000
01fc0000000000
01fc0000000000
01fc0000000000
03f80000000000
03f80000000000
03f80000000000
07f00000000000
07f00000000000
07f00000000000
0ffffff8000000
0ffffff8000000
0ffffff8000000
1ffffff0000000
1ffffff0000000
1ffffff0000000
00000000000000
00000000000000
00000000000000
00000000000000
00000000000000
00000000000000
00000000000000
00000000000000
00000000000000
00000000000000
00000000000000
00000000000000
ENDCHAR
STARTCHAR U+00C8
ENCODING 200
SWIDTH 1000 0
DWIDTH 30 0
BBX 49 60 -9 -12
BITMAP
000007fe000000
000007fe000000
000007fe000000
00000ffc000000
00000ffc000000
00000ffc000000
0000007fe00000
0000007fe00000
0000007fe00000
000000ffc00000
000000ffc00000
000000ffc00000
0003fffffe0000
0003fffffe0000
0003fffffe0000
0007fffffc0000
0007fffffc0000
0007fffffc0000
000fe000000000
000fe000000000
000fe000000000
001fc000000000
001fc000000000
001fc000000000
003ffff8000000
003ffff8000000
003ffff8000000
007ffff0000000
007ffff0000000
007ffff0000000
00fe0000000000
00fe0000000000
00fe0000000000
01fc0000000000
01fc0000000000
01fc0000000000
03f80000000000
03f80000000000
03f80000000000
07f00000000000
07f00000000000
07f00000000000
0ffffff8000000
0ffffff8000000
0ffffff8000000
1ffffff0000000
1ffffff0000000
1ffffff0000000
00000000000000
00000000000000
00000000000000
00000000000000
00000000000000
00000000000000
00000000000000
00000000000000
00000000000000
00000000000000
00000000000000
00000000000000
ENDCHAR
STARTCHAR U+00C7
ENCODING 199
SWIDTH 1000 0
DWIDTH 30 0
BBX 49 60 -9 -12
BITMAP
00000000000000
00000000000000
00000000000000
00000000000000
00000000000000
00000000000000
000003fffc0000
000003fffc0000
000003fffc0000
000007fff80000
000007fff80000
000007fff80000
00007f00fe0000
00007f00fe0000
00007f00fe0000
0000fe01fc0000
0000fe01fc0000
0000fe01fc0000
000fe000000000
000fe000000000
000fe000000000
001fc000000000
001fc000000000
001fc000000000
003f8000000000
003f8000000000
003f8000000000
007f0000000000
007f0000000000
007f0000000000
00fe0000000000
00fe0000000000
00fe0000000000
01fc0000000000
01fc0000000000
01fc0000000000
007f00fe000000
007f00fe000000
007f00fe000000
00fe01fc000000
00fe01fc000000
00fe01fc000000
003fffc0000000
003fffc0000000
003fffc0000000
007fff80000000
007fff80000000
007fff80000000
0003f800000000
0003f800000000
0003f800000000
0007f000000000
0007f000000000
0007f000000000
03ffe000000000
03ffe000000000
03ffe000000000
07ffc000000000
07ffc000000000
07ffc000000000
ENDCHAR
STARTCHAR U+00C6
ENCODING 198
SWIDTH 1000 0
DWIDTH 30 0
BBX 49 60 -9 -12
BITMAP
00000000000000
00000000000000
00000000000000
00000000000000
00000000000000
00000000000000
000003ffff8000
000003ffff8000
000003ffff8000
000007ffff0000
000007ffff0000
000007ffff0000
00007ffc000000
00007ffc000000
00007ffc000000
0000fff8000000
0000fff8000000
0000fff8000000
000fe7f0000000
000fe7f0000000
000fe7f0000000
001fcfe0000000
001fcfe0000000
001fcfe0000000
003f9fff000000
003f9fff000000
003f9fff000000
007f3ffe000000
007f3ffe000000
007f3ffe000000
00ffff00000000
00ffff00000000
00ffff00000000
01fffe00000000
01fffe00000000
01fffe00000000
03f9fc00000000
03f9fc00000000
03f9fc00000000
07f3f800000000
07f3f800000000
07f3f800000000
0fe7fff8000000
0fe7fff8000000
0fe7fff8000000
1fcffff0000000
1fcffff0000000
1fcffff0000000
00000000000000
00000000000000
00000000000000
00000000000000
00000000000000
00000000000000
00000000000000
00000000000000
00000000000000
00000000000000
00000000000000
00000000000000
ENDCHAR
STARTCHAR U+00C5
ENCODING 197
SWIDTH 1000 0
DWIDTH 30 0
BBX 49 60 -9 -12
BITMAP
000000fff80000
000000fff80000
000000fff80000
000001fff00000
000001fff00000
000001fff00000
00001fc1fc0000
00001fc1fc0000
00001fc1fc0000
00003f83f80000
00003f83f80000
00003f83f80000
00000fff800000
00000fff800000
00000fff800000
00001fff000000
00001fff000000
00001fff000000
00003ffe000000
00003ffe000000
00003ffe000000
00007ffc000000
00007ffc000000
00007ffc000000
0007f07f000000
0007f07f000000
0007f07f000000
000fe0fe000000
000fe0fe000000
000fe0fe000000
00ffffff800000
00ffffff800000
00ffffff800000
01ffffff000000
01ffffff000000
01ffffff000000
03f800fe000000
03f800fe000000
03f800fe000000
07f001fc000000
07f001fc000000
07f001fc000000
0fe003f8000000
0fe003f8000000
0fe003f8000000
1fc007f0000000
1fc007f0000000
1fc007f0000000
00000000000000
00000000000000
00000000000000
00000000000000
00000000000000
00000000000000
00000000000000
00000000000000
00000000000000
00000000000000
00000000000000
00000000000000
ENDCHAR
STARTCHAR U+00C4
ENCODING 196
SWIDTH 1000 0
DWIDTH 30 0
BBX 49 60 -9 -12
BITMAP
000007f07f0000
000007f07f0000
000007f07f0000
00000fe0fe0000
00000fe0fe0000
00000fe0fe0000
00000000000000
00000000000000
00000000000000
00000000000000
00000000000000
00000000000000
000001fc000000
000001fc000000
000001fc000000
000003f8000000
000003f8000000
000003f8000000
00003ffe000000
00003ffe000000
00003ffe000000
00007ffc000000
00007ffc000000
00007ffc000000
0007f07f000000
0007f07f000000
0007f07f000000
000fe0fe000000
000fe0fe000000
000fe0fe000000
00ffffff800000
00ffffff800000
00ffffff800000
01ffffff000000
01ffffff000000
01ffffff000000
03f800fe000000
03f800fe000000
03f800fe000000
07f001fc000000
07f001fc000000
07f001fc000000
0fe003f8000000
0fe003f8000000
0fe003f8000000
1fc007f0000000
1fc007f0000000
1fc007f0000000
00000000000000
00000000000000
00000000000000
00000000000000
00000000000000
00000000000000
00000000000000
00000000000000
00000000000000
00000000000000
00000000000000
00000000000000
ENDCHAR
STARTCHAR U+00C3
ENCODING 195
SWIDTH 1000 0
DWIDTH 30 0
BBX 49 60 -9 -12
BITMAP
000000ffcfe000
000000ffcfe000
000000ffcfe000
000001ff9fc000
000001ff9fc000
000001ff9fc000
00001fcffc0000
00001fcffc0000
00001fcffc0000
00003f9ff80000
00003f9ff80000
00003f9ff80000
000001fc000000
000001fc000000
000001fc000000
000003f8000000
000003f8000000
000003f8000000
00003ffe000000
00003ffe000000
00003ffe000000
00007ffc000000
00007ffc000000
00007ffc000000
0007f07f000000
0007f07f000000
0007f07f000000
000fe0fe000000
000fe0fe000000
000fe0fe000000
00ffffff800000
00ffffff800000
00ffffff800000
01ffffff000000
01ffffff000000
01ffffff000000
03f800fe000000
03f800fe000000
03f800fe000000
07f001fc000000
07f001fc000000
07f001fc000000
0fe003f8000000
0fe003f8000000
0fe003f8000000
1fc007f0000000
1fc007f0000000
1fc007f0000000
00000000000000
00000000000000
00000000000000
00000000000000
00000000000000
00000000000000
00000000000000
00000000000000
00000000000000
00000000000000
00000000000000
00000000000000
ENDCHAR
STARTCHAR U+00C2
ENCODING 194
SWIDTH 1000 0
DWIDTH 30 0
BBX 49 60 -9 -12
BITMAP
000000fff80000
000000fff80000
000000fff80000
000001fff00000
000001fff00000
000001fff00000
00001fc1fc0000
00001fc1fc0000
00001fc1fc0000
00003f83f80000
00003f83f80000
00003f87f80000
000001fc000000
000001fc000000
000001fc000000
000003f8000000
000003f8000000
000003f8000000
00003ffe000000
00003ffe000000
00003ffe000000
00007ffc000000
00007ffc000000
00007ffc000000
0007f07f000000
0007f07f000000
0007f07f000000
000fe0fe000000
000fe0fe000000
000fe0fe000000
00ffffff800000
00ffffff800000
00ffffff800000
01ffffff000000
01ffffff000000
01ffffff000000
03f800fe000000
03f800fe000000
03f800fe000000
07f001fc000000
07f001fc000000
07f001fc000000
0fe003f8000000
0fe003f8000000
0fe003f8000000
1fc007f0000000
1fc007f0000000
1fc007f0000000
00000000000000
00000000000000
00000000000000
00000000000000
00000000000000
00000000000000
00000000000000
00000000000000
00000000000000
00000000000000
00000000000000
00000000000000
ENDCHAR
STARTCHAR U+00C1
ENCODING 193
SWIDTH 1000 0
DWIDTH 30 0
BBX 49 60 -9 -12
BITMAP
0000001ff80000
0000001ff80000
0000001ff80000
0000003ff00000
0000003ff00000
0000003ff00000
00001ff8000000
00001ff8000000
00001ff8000000
00003ff0000000
00003ff0000000
00003ff0000000
000001fc000000
000001fc000000
000001fc000000
000003f8000000
000003f8000000
000003f8000000
00003ffe000000
00003ffe000000
00003ffe000000
00007ffc000000
00007ffc000000
00007ffc000000
0007f07f000000
0007f07f000000
0007f07f000000
000fe0fe000000
000fe0fe000000
000fe0fe000000
00ffffff800000
00ffffff800000
00ffffff800000
01ffffff000000
01ffffff000000
01ffffff000000
03f800fe000000
03f800fe000000
03f800fe000000
07f001fc000000
07f001fc000000
07f001fc000000
0fe003f8000000
0fe003f8000000
0fe003f8000000
1fc007f0000000
1fc007f0000000
1fc007f0000000
00000000000000
00000000000000
00000000000000
00000000000000
00000000000000
00000000000000
00000000000000
00000000000000
00000000000000
00000000000000
00000000000000
00000000000000
ENDCHAR
STARTCHAR U+00C0
ENCODING 192
SWIDTH 1000 0
DWIDTH 30 0
BBX 49 60 -9 -12
BITMAP
000000ffc00000
000000ffc00000
000000ffc00000
000001ff800000
000001ff800000
000001ff800000
0000000ffc0000
0000000ffc0000
0000000ffc0000
0000001ff80000
0000001ff80000
0000001ff80000
000001fc000000
000001fc000000
000001fc000000
000003f8000000
000003f8000000
000003f8000000
00003ffe000000
00003ffe000000
00003ffe000000
00007ffc000000
00007ffc000000
00007ffc000000
0007f07f000000
0007f07f000000
0007f07f000000
000fe0fe000000
000fe0fe000000
000fe0fe000000
00ffffff800000
00ffffff800000
00ffffff800000
01ffffff000000
01ffffff000000
01ffffff000000
03f800fe000000
03f800fe000000
03f800fe000000
07f001fc000000
07f001fc000000
07f001fc000000
0fe003f8000000
0fe003f8000000
0fe003f8000000
1fc007f0000000
1fc007f0000000
1fc007f0000000
00000000000000
00000000000000
00000000000000
00000000000000
00000000000000
00000000000000
00000000000000
00000000000000
00000000000000
00000000000000
00000000000000
00000000000000
ENDCHAR
STARTCHAR U+00BF
ENCODING 191
SWIDTH 1000 0
DWIDTH 30 0
BBX 49 60 -9 -12
BITMAP
00000000000000
00000000000000
00000000000000
00000000000000
00000000000000
00000000000000
0000007f000000
0000007f000000
0000007f000000
000000fe000000
000000fe000000
000000fe000000
00000000000000
00000000000000
00000000000000
00000000000000
00000000000000
00000000000000
000007f0000000
000007f0000000
000007f0000000
00000fe0000000
00000fe0000000
00000fe0000000
00001fc0000000
00001fc0000000
00001fc0000000
00003f80000000
00003f80000000
00003f80000000
001ff800000000
001ff800000000
001ff800000000
003ff000000000
003ff000000000
003ff000000000
03f800fe000000
03f800fe000000
03f800fe000000
07f001fc000000
07f001fc000000
07f001fc000000
01ffffc0000000
01ffffc0000000
01ffffc0000000
03ffff80000000
03ffff80000000
03ffff80000000
00000000000000
00000000000000
00000000000000
00000000000000
00000000000000
00000000000000
00000000000000
00000000000000
00000000000000
00000000000000
00000000000000
00000000000000
ENDCHAR
STARTCHAR U+00BE
ENCODING 190
SWIDTH 1000 0
DWIDTH 30 0
BBX 49 60 -9 -12
BITMAP
00003fffc00000
00003fffc00000
00003fffc00000
00007fff800000
00007fff800000
00007fff800000
0000007f000000
0000007f000000
0000007f000000
000000fe000000
000000fe000000
000000fe000000
00007fe7f00000
00007fe7f00000
00007fe7f00000
0000ffcfe00000
0000ffcfe00000
0000ffcfe00000
000007fe000000
000007fe000000
000007fe000000
00000ffc000000
00000ffc000000
00000ffc000000
003fffc0000000
003fffc0000000
003fffc0000000
007fff80000000
007fff80000000
007fff80000000
0003f9fc000000
0003f9fc000000
0003f9fc000000
0007f3f8000000
0007f3f8000000
0007f3f8000000
007f3ff0000000
007f3ff0000000
007f3ff0000000
00fe7fe0000000
00fe7fe0000000
00fe7fe0000000
0fe7ffc0000000
0fe7ffc0000000
0fe7ffc0000000
1fcfff80000000
1fcfff80000000
1fcfff80000000
00ffffe0000000
00ffffe0000000
00ffffe0000000
01ffffc0000000
01ffffc0000000
01ffffc0000000
0001fc00000000
0001fc00000000
0001fc00000000
0003f800000000
0003f800000000
0003f800000000
ENDCHAR
STARTCHAR U+00BD
ENCODING 189
SWIDTH 1000 0
DWIDTH 30 0
BBX 49 60 -9 -12
BITMAP
00000000000000
00000000000000
00000000000000
00000000000000
00000000000000
00000000000000
00001fc0000000
00001fc0000000
00001fc0000000
00003f80000000
00003f80000000
00003f80000000
0003ff07f00000
0003ff07f00000
0003ff07f00000
0007fe0fe00000
0007fe0fe00000
0007fe0fe00000
0001fcfe000000
0001fcfe000000
0001fcfe000000
0003f9fc000000
0003f9fc000000
0003f9fc000000
0007ffc0000000
0007ffc0000000
0007ffc0000000
000fff80000000
000fff80000000
000fff80000000
0003fffc000000
0003fffc000000
0003fffc000000
0007fff8000000
0007fff8000000
0007fff8000000
007ffcfe000000
007ffcfe000000
007ffcfe000000
00fff9fc000000
00fff9fc000000
00fff9fc000000
0fe01fc0000000
0fe01fc0000000
0fe01fc0000000
1fc03f80000000
1fc03f80000000
1fc03f80000000
0003f800000000
0003f800000000
0003f800000000
0007f000000000
0007f000000000
0007f000000000
007fff80000000
007fff80000000
007fff80000000
00ffff00000000
00ffff00000000
00ffff00000000
ENDCHAR
STARTCHAR U+00BC
ENCODING 188
SWIDTH 1000 0
DWIDTH 30 0
BBX 49 60 -9 -12
BITMAP
00000000000000
00000000000000
00000000000000
00000000000000
00000000000000
00000000000000
00001fc0000000
00001fc0000000
00001fc0000000
00003f80000000
00003f80000000
00003f80000000
0003ff07f00000
0003ff07f00000
0003ff07f00000
0007fe0fe00000
0007fe0fe00000
0007fe0fe00000
0001fcfe000000
0001fcfe000000
0001fcfe000000
0003f9fc000000
0003f9fc000000
0003f9fc000000
0007ffc0000000
0007ffc0000000
0007ffc0000000
000fff80000000
000fff80000000
000fff80000000
0003f9fc000000
0003f9fc000000
0003f9fc000000
0007f3f8000000
0007f3f8000000
0007f3f8000000
007f3ff0000000
007f3ff0000000
007f3ff0000000
00fe7fe0000000
00fe7fe0000000
00fe7fe0000000
0fe7ffc0000000
0fe7ffc0000000
0fe7ffc0000000
1fcfff80000000
1fcfff80000000
1fcfff80000000
00ffffe0000000
00ffffe0000000
00ffffe0000000
01ffffc0000000
01ffffc0000000
01ffffc0000000
0001fc00000000
0001fc00000000
0001fc00000000
0003f800000000
0003f800000000
0003f800000000
ENDCHAR
STARTCHAR U+00BB
ENCODING 187
SWIDTH 1000 0
DWIDTH 30 0
BBX 49 60 -9 -12
BITMAP
00000000000000
00000000000000
00000000000000
00000000000000
00000000000000
00000000000000
0000fe7f000000
0000fe7f000000
0000fe7f000000
0001fcfe000000
0001fcfe000000
0001fdfe000000
00007f3f800000
00007f3f800000
00007f3f800000
0000fe7f000000
0000fe7f000000
0000feff000000
00003f9fc00000
00003f9fc00000
00003f9fc00000
00007f3f800000
00007f3f800000
00007f7f800000
00001fcfe00000
00001fcfe00000
00001fcfe00000
00003f9fc00000
00003f9fc00000
00003f9fc00000
0003f9fc000000
0003f9fc000000
0003f9fc000000
0007f3f8000000
0007f3f8000000
0007f3f8000000
007f3f80000000
007f3f80000000
007f3f80000000
00fe7f00000000
00fe7f00000000
00fe7f00000000
0fe7f000000000
0fe7f000000000
0fe7f000000000
1fcfe000000000
1fcfe000000000
1fcfe000000000
00000000000000
00000000000000
00000000000000
00000000000000
00000000000000
00000000000000
00000000000000
00000000000000
00000000000000
00000000000000
00000000000000
00000000000000
ENDCHAR
STARTCHAR U+00BA
ENCODING 186
SWIDTH 1000 0
DWIDTH 30 0
BBX 49 60 -9 -12
BITMAP
00000000000000
00000000000000
00000000000000
00000000000000
00000000000000
00000000000000
00001ffffc0000
00001ffffc0000
00001ffffc0000
00003ffff80000
00003ffff80000
00003ffff80000
0003f800fe0000
0003f800fe0000
0003f800fe0000
0007f001fc0000
0007f001fc0000
0007f001fc0000
000fe003f80000
000fe003f80000
000fe003f80000
001fc007f00000
001fc007f00000
001fc007f00000
003f800fe00000
003f800fe00000
003f800fe00000
007f001fc00000
007f001fc00000
007f001fc00000
001ffffc000000
001ffffc000000
001ffffc000000
003ffff8000000
003ffff8000000
003ffff8000000
00000000000000
00000000000000
00000000000000
00000000000000
00000000000000
00000000000000
0ffffff8000000
0ffffff8000000
0ffffff8000000
1ffffff0000000
1ffffff0000000
1ffffff0000000
00000000000000
00000000000000
00000000000000
00000000000000
00000000000000
00000000000000
00000000000000
00000000000000
00000000000000
00000000000000
00000000000000
00000000000000
ENDCHAR
STARTCHAR U+00B9
ENCODING 185
SWIDTH 1000 0
DWIDTH 30 0
BBX 49 60 -9 -12
BITMAP
0000001fc00000
0000001fc00000
0000001fc00000
0000003f800000
0000003f800000
0000003f800000
000003ff000000
000003ff000000
000003ff000000
000007fe000000
000007fe000000
000007fe000000
000001fc000000
000001fc000000
000001fc000000
000003f8000000
000003f8000000
000003f8000000
000007f0000000
000007f0000000
000007f0000000
00000fe0000000
00000fe0000000
00000fe0000000
0000fff8000000
0000fff8000000
0000fff8000000
0001fff0000000
0001fff0000000
0001fff0000000
00000000000000
00000000000000
00000000000000
00000000000000
00000000000000
00000000000000
00000000000000
00000000000000
00000000000000
00000000000000
00000000000000
00000000000000
00000000000000
00000000000000
00000000000000
00000000000000
00000000000000
00000000000000
00000000000000
00000000000000
00000000000000
00000000000000
00000000000000
00000000000000
00000000000000
00000000000000
00000000000000
00000000000000
00000000000000
00000000000000
ENDCHAR
STARTCHAR U+00B8
ENCODING 184
SWIDTH 1000 0
DWIDTH 30 0
BBX 49 60 -9 -12
BITMAP
00000000000000
00000000000000
00000000000000
00000000000000
00000000000000
00000000000000
00000000000000
00000000000000
00000000000000
00000000000000
00000000000000
00000000000000
00000000000000
00000000000000
00000000000000
00000000000000
00000000000000
00000000000000
00000000000000
00000000000000
00000000000000
00000000000000
00000000000000
00000000000000
00000000000000
00000000000000
00000000000000
00000000000000
00000000000000
00000000000000
00000000000000
00000000000000
00000000000000
00000000000000
00000000000000
00000000000000
00000000000000
00000000000000
00000000000000
00000000000000
00000000000000
00000000000000
00000000000000
00000000000000
00000000000000
00000000000000
00000000000000
00000000000000
0003f800000000
0003f800000000
0003f800000000
0007f000000000
0007f000000000
0007f000000000
03ffe000000000
03ffe000000000
03ffe000000000
07ffc000000000
07ffc000000000
07ffc000000000
ENDCHAR
STARTCHAR U+2022
ENCODING 8226
SWIDTH 1000 0
DWIDTH 30 0
BBX 49 60 -9 -12
BITMAP
00000000000000
00000000000000
00000000000000
00000000000000
00000000000000
00000000000000
00000000000000
00000000000000
00000000000000
00000000000000
00000000000000
00000000000000
00000000000000
00000000000000
00000000000000
00000000000000
00000000000000
00000000000000
00003ff0000000
00003ff0000000
00003ff0000000
00007fe0000000
00007fe0000000
00007fe0000000
0000ffc0000000
0000ffc0000000
0000ffc0000000
0001ff80000000
0001ff80000000
0001ff80000000
00000000000000
00000000000000
00000000000000
00000000000000
00000000000000
00000000000000
00000000000000
00000000000000
00000000000000
00000000000000
00000000000000
00000000000000
00000000000000
00000000000000
00000000000000
00000000000000
00000000000000
00000000000000
00000000000000
00000000000000
00000000000000
00000000000000
00000000000000
00000000000000
00000000000000
00000000000000
00000000000000
00000000000000
00000000000000
00000000000000
ENDCHAR
STARTCHAR U+00B6
ENCODING 182
SWIDTH 1000 0
DWIDTH 30 0
BBX 49 60 -9 -12
BITMAP
00000000000000
00000000000000
00000000000000
00000000000000
00000000000000
00000000000000
00001fffff8000
00001fffff8000
00001fffff8000
00003fffff0000
00003fffff0000
00003fffff0000
0003ff3ffe0000
0003ff3ffe0000
0003ff3ffe0000
0007fe7ffc0000
0007fe7ffc0000
0007fe7ffc0000
000ffcfff80000
000ffcfff80000
000ffcfff80000
001ff9fff00000
001ff9fff00000
001ff9fff00000
0007ffffe00000
0007ffffe00000
0007ffffe00000
000fffffc00000
000fffffc00000
000fffffc00000
00000fff800000
00000fff800000
00000fff800000
00001fff000000
00001fff000000
00001fff000000
00003ffe000000
00003ffe000000
00003ffe000000
00007ffc000000
00007ffc000000
00007ffc000000
0000fff8000000
0000fff8000000
0000fff8000000
0001fff0000000
0001fff0000000
0001fff0000000
00000000000000
00000000000000
00000000000000
00000000000000
00000000000000
00000000000000
00000000000000
00000000000000
00000000000000
00000000000000
00000000000000
00000000000000
ENDCHAR
STARTCHAR U+00B5
ENCODING 181
SWIDTH 1000 0
DWIDTH 30 0
BBX 49 60 -9 -12
BITMAP
00000000000000
00000000000000
00000000000000
00000000000000
00000000000000
00000000000000
00000000000000
00000000000000
00000000000000
00000000000000
00000000000000
00000000000000
00000000000000
00000000000000
00000000000000
00000000000000
00000000000000
00000000000000
0001fc03f80000
0001fc03f80000
0001fc03f80000
0003f807f00000
0003f807f00000
0003f807f00000
0007f00fe00000
0007f00fe00000
0007f00fe00000
000fe01fc00000
000fe01fc00000
000fe01fc00000
001fc03f800000
001fc03f800000
001fc03f800000
003f807f000000
003f807f000000
003f807f000000
007fe7fe000000
007fe7fe000000
007fe7fe000000
00ffcffc000000
00ffcffc000000
00ffcffc000000
01fffff8000000
01fffff8000000
01fffff8000000
03fffff0000000
03fffff0000000
03fffff0000000
07f00000000000
07f00000000000
07f00000000000
0fe00000000000
0fe00000000000
0fe00000000000
fe000000000000
fe000000000000
fe000000000000
fc000000000000
fc000000000000
fc000000000000
ENDCHAR
STARTCHAR U+00B4
ENCODING 180
SWIDTH 1000 0
DWIDTH 30 0
BBX 49 60 -9 -12
BITMAP
00000000000000
00000000000000
00000000000000
00000000000000
00000000000000
00000000000000
0000000ffc0000
0000000ffc0000
0000000ffc0000
0000001ff80000
0000001ff80000
0000001ff80000
0000003f800000
0000003f800000
0000003f800000
0000007f000000
0000007f000000
0000007f000000
000007f0000000
000007f0000000
000007f0000000
00000fe0000000
00000fe0000000
00000fe0000000
00000000000000
00000000000000
00000000000000
00000000000000
00000000000000
00000000000000
00000000000000
00000000000000
00000000000000
00000000000000
00000000000000
00000000000000
00000000000000
00000000000000
00000000000000
00000000000000
00000000000000
00000000000000
00000000000000
00000000000000
00000000000000
00000000000000
00000000000000
00000000000000
00000000000000
00000000000000
00000000000000
00000000000000
00000000000000
00000000000000
00000000000000
00000000000000
00000000000000
00000000000000
00000000000000
00000000000000
ENDCHAR
STARTCHAR U+00B3
ENCODING 179
SWIDTH 1000 0
DWIDTH 30 0
BBX 49 60 -9 -12
BITMAP
000007ffff0000
000007ffff0000
000007ffff0000
00000ffffe0000
00000ffffe0000
00000ffffe0000
00000001fc0000
00000001fc0000
00000001fc0000
00000003f80000
00000003f80000
00000003f80000
000001ff800000
000001ff800000
000001ff800000
000003ff000000
000003ff000000
000003ff000000
0000001fc00000
0000001fc00000
0000001fc00000
0000003f800000
0000003f800000
0000003f800000
0007fff8000000
0007fff8000000
0007fff8000000
000ffff0000000
000ffff0000000
000ffff0000000
00000000000000
00000000000000
00000000000000
00000000000000
00000000000000
00000000000000
00000000000000
00000000000000
00000000000000
00000000000000
00000000000000
00000000000000
00000000000000
00000000000000
00000000000000
00000000000000
00000000000000
00000000000000
00000000000000
00000000000000
00000000000000
00000000000000
00000000000000
00000000000000
00000000000000
00000000000000
00000000000000
00000000000000
00000000000000
00000000000000
ENDCHAR
STARTCHAR U+00B2
ENCODING 178
SWIDTH 1000 0
DWIDTH 30 0
BBX 49 60 -9 -12
BITMAP
000000fff80000
000000fff80000
000000fff80000
000001fff00000
000001fff00000
000001fff00000
00001fc1fc0000
00001fc1fc0000
00001fc1fc0000
00003f83f80000
00003f83f80000
00003f83f80000
000001ff800000
000001ff800000
000001ff800000
000003ff000000
000003ff000000
000003ff000000
00003f80000000
00003f80000000
00003f80000000
00007f00000000
00007f00000000
00007f00000000
0007ffff000000
0007ffff000000
0007ffff000000
000ffffe000000
000ffffe000000
000ffffe000000
00000000000000
00000000000000
00000000000000
00000000000000
00000000000000
00000000000000
00000000000000
00000000000000
00000000000000
00000000000000
00000000000000
00000000000000
00000000000000
00000000000000
00000000000000
00000000000000
00000000000000
00000000000000
00000000000000
00000000000000
00000000000000
00000000000000
00000000000000
00000000000000
00000000000000
00000000000000
00000000000000
00000000000000
00000000000000
00000000000000
ENDCHAR
STARTCHAR U+00AF
ENCODING 175
SWIDTH 1000 0
DWIDTH 30 0
BBX 49 60 -9 -12
BITMAP
000007ffff0000
000007ffff0000
000007ffff0000
00000ffffe0000
00000ffffe0000
00000ffffe0000
00000000000000
00000000000000
00000000000000
00000000000000
00000000000000
00000000000000
00000000000000
00000000000000
00000000000000
00000000000000
00000000000000
00000000000000
00000000000000
00000000000000
00000000000000
00000000000000
00000000000000
00000000000000
00000000000000
00000000000000
00000000000000
00000000000000
00000000000000
00000000000000
00000000000000
00000000000000
00000000000000
00000000000000
00000000000000
00000000000000
00000000000000
00000000000000
00000000000000
00000000000000
00000000000000
00000000000000
00000000000000
00000000000000
00000000000000
00000000000000
00000000000000
00000000000000
00000000000000
00000000000000
00000000000000
00000000000000
00000000000000
00000000000000
00000000000000
00000000000000
00000000000000
00000000000000
00000000000000
00000000000000
ENDCHAR
STARTCHAR U+00AE
ENCODING 174
SWIDTH 1000 0
DWIDTH 30 0
BBX 49 60 -9 -12
BITMAP
00000000000000
00000000000000
00000000000000
00000000000000
00000000000000
00000000000000
000003ffe00000
000003ffe00000
000003ffe00000
000007ffc00000
000007ffc00000
000007ffc00000
00007f07f00000
00007f07f00000
00007f07f00000
0000fe0fe00000
0000fe0fe00000
0000fe0fe00000
000ffffff80000
000ffffff80000
000ffffff80000
001ffffff00000
001ffffff00000
001ffffff00000
003ffe7fe00000
003ffe7fe00000
003ffe7fe00000
007ffcffc00000
007ffcffc00000
007ffcffc00000
00ffffff800000
00ffffff800000
00ffffff800000
01ffffff000000
01ffffff000000
01ffffff000000
03fffcfe000000
03fffcfe000000
03fffcfe000000
07fff9fc000000
07fff9fc000000
07fff9fc000000
01ffffc0000000
01ffffc0000000
01ffffc0000000
03ffff80000000
03ffff80000000
03ffff80000000
00fff800000000
00fff800000000
00fff800000000
01fff000000000
01fff000000000
01fff000000000
00000000000000
00000000000000
00000000000000
00000000000000
00000000000000
00000000000000
ENDCHAR
STARTCHAR U+00D7
ENCODING 215
SWIDTH 1000 0
DWIDTH 30 0
BBX 49 60 -9 -12
BITMAP
00000000000000
00000000000000
00000000000000
00000000000000
00000000000000
00000000000000
00000000000000
00000000000000
00000000000000
00000000000000
00000000000000
00000000000000
00007f07f00000
00007f07f00000
00007f07f00000
0000fe0fe00000
0000fe0fe00000
0000fe0fe00000
00003ffe000000
00003ffe000000
00003ffe000000
00007ffc000000
00007ffc000000
00007ffc000000
00001fc0000000
00001fc0000000
00001fc0000000
00003f80000000
00003f80000000
00003f80000000
0003ffe0000000
0003ffe0000000
0003ffe0000000
0007ffc0000000
0007ffc0000000
0007ffc0000000
007f07f0000000
007f07f0000000
007f07f0000000
00fe0fe0000000
00fe0fe0000000
00fe0fe0000000
00000000000000
00000000000000
00000000000000
00000000000000
00000000000000
00000000000000
00000000000000
00000000000000
00000000000000
00000000000000
00000000000000
00000000000000
00000000000000
00000000000000
00000000000000
00000000000000
00000000000000
00000000000000
ENDCHAR
STARTCHAR U+00AC
ENCODING 172
SWIDTH 1000 0
DWIDTH 30 0
BBX 49 60 -9 -12
BITMAP
00000000000000
00000000000000
00000000000000
00000000000000
00000000000000
00000000000000
00000000000000
00000000000000
00000000000000
00000000000000
00000000000000
00000000000000
00000000000000
00000000000000
00000000000000
00000000000000
00000000000000
00000000000000
00000000000000
00000000000000
00000000000000
00000000000000
00000000000000
00000000000000
00000000000000
00000000000000
00000000000000
00000000000000
00000000000000
00000000000000
00ffffff800000
00ffffff800000
00ffffff800000
01ffffff000000
01ffffff000000
01ffffff000000
000000fe000000
000000fe000000
000000fe000000
000001fc000000
000001fc000000
000001fc000000
000003f8000000
000003f8000000
000003f8000000
000007f0000000
000007f0000000
000007f0000000
00000000000000
00000000000000
00000000000000
00000000000000
00000000000000
00000000000000
00000000000000
00000000000000
00000000000000
00000000000000
00000000000000
00000000000000
ENDCHAR
STARTCHAR U+00AB
ENCODING 171
SWIDTH 1000 0
DWIDTH 30 0
BBX 49 60 -9 -12
BITMAP
00000000000000
00000000000000
00000000000000
00000000000000
00000000000000
00000000000000
0000007f3f8000
0000007f3f8000
0000007f3f8000
000000fe7f0000
000000fe7f0000
000000fe7f0000
00000fe7f00000
00000fe7f00000
00000fe7f00000
00001fcfe00000
00001fcfe00000
00001fcfe00000
0001fcfe000000
0001fcfe000000
0001fcfe000000
0003f9fc000000
0003f9fc000000
0003f9fc000000
003f9fc0000000
003f9fc0000000
003f9fc0000000
007f3f80000000
007f3f80000000
007f7f80000000
001fcfe0000000
001fcfe0000000
001fcfe0000000
003f9fc0000000
003f9fc0000000
003fbfc0000000
000fe7f0000000
000fe7f0000000
000fe7f0000000
001fcfe0000000
001fcfe0000000
001fdfe0000000
0007f3f8000000
0007f3f8000000
0007f3f8000000
000fe7f0000000
000fe7f0000000
000fe7f0000000
00000000000000
00000000000000
00000000000000
00000000000000
00000000000000
00000000000000
00000000000000
00000000000000
00000000000000
00000000000000
00000000000000
00000000000000
ENDCHAR
STARTCHAR U+00AA
ENCODING 170
SWIDTH 1000 0
DWIDTH 30 0
BBX 49 60 -9 -12
BITMAP
00000000000000
00000000000000
00000000000000
00000000000000
00000000000000
00000000000000
00001ffffc0000
00001ffffc0000
00001ffffc0000
00003ffff80000
00003ffff80000
00003ffff80000
00000000fe0000
00000000fe0000
00000000fe0000
00000001fc0000
00000001fc0000
00000001fc0000
0001fffff80000
0001fffff80000
0001fffff80000
0003fffff00000
0003fffff00000
0003fffff00000
003f807fe00000
003f807fe00000
003f807fe00000
007f00ffc00000
007f00ffc00000
007f00ffc00000
001fffff800000
001fffff800000
001fffff800000
003fffff000000
003fffff000000
003fffff000000
00000000000000
00000000000000
00000000000000
00000000000000
00000000000000
00000000000000
0ffffff8000000
0ffffff8000000
0ffffff8000000
1ffffff0000000
1ffffff0000000
1ffffff0000000
00000000000000
00000000000000
00000000000000
00000000000000
00000000000000
00000000000000
00000000000000
00000000000000
00000000000000
00000000000000
00000000000000
00000000000000
ENDCHAR
STARTCHAR U+00A9
ENCODING 169
SWIDTH 1000 0
DWIDTH 30 0
BBX 49 60 -9 -12
BITMAP
00000000000000
00000000000000
00000000000000
00000000000000
00000000000000
00000000000000
000003ffe00000
000003ffe00000
000003ffe00000
000007ffc00000
000007ffc00000
000007ffc00000
00007f07f00000
00007f07f00000
00007f07f00000
0000fe0fe00000
0000fe0fe00000
0000fe0fe00000
000fe7fff80000
000fe7fff80000
000fe7fff80000
001fcffff00000
001fcffff00000
001fcffff00000
003ffe0fe00000
003ffe0fe00000
003ffe0fe00000
007ffc1fc00000
007ffc1fc00000
007ffc1fc00000
00fff83f800000
00fff83f800000
00fff83f800000
01fff07f000000
01fff07f000000
01fff07f000000
03f9fffe000000
03f9fffe000000
03f9fffe000000
07f3fffc000000
07f3fffc000000
07f7fffc000000
01fc1fc0000000
01fc1fc0000000
01fc1fc0000000
03f83f80000000
03f83f80000000
03f83f80000000
00fff800000000
00fff800000000
00fff800000000
01fff000000000
01fff000000000
01fff000000000
00000000000000
00000000000000
00000000000000
00000000000000
00000000000000
00000000000000
ENDCHAR
STARTCHAR U+00A4
ENCODING 164
SWIDTH 1000 0
DWIDTH 30 0
BBX 49 60 -9 -12
BITMAP
00000000000000
00000000000000
00000000000000
00000000000000
00000000000000
00000000000000
00000000000000
00000000000000
00000000000000
00000000000000
00000000000000
00000000000000
0003f800fe0000
0003f800fe0000
0003f800fe0000
0007f001fc0000
0007f001fc0000
0007f001fc0000
0001ffffc00000
0001ffffc00000
0001ffffc00000
0003ffff800000
0003ffff800000
0003ffff800000
0007f07f000000
0007f07f000000
0007f07f000000
000fe0fe000000
000fe0fe000000
000fe0fe000000
001ffffc000000
001ffffc000000
001ffffc000000
003ffff8000000
003ffff8000000
003ffff8000000
03f800fe000000
03f800fe000000
03f800fe000000
07f001fc000000
07f001fc000000
07f001fc000000
00000000000000
00000000000000
00000000000000
00000000000000
00000000000000
00000000000000
00000000000000
00000000000000
00000000000000
00000000000000
00000000000000
00000000000000
00000000000000
00000000000000
00000000000000
00000000000000
00000000000000
00000000000000
ENDCHAR
STARTCHAR U+00A7
ENCODING 167
SWIDTH 1000 0
DWIDTH 30 0
BBX 49 60 -9 -12
BITMAP
00000000000000
00000000000000
00000000000000
00000000000000
00000000000000
00000000000000
000003fffc0000
000003fffc0000
000003fffc0000
000007fff80000
000007fff80000
000007fff80000
00007f00000000
00007f00000000
00007f00000000
0000fe00000000
0000fe00000000
0000fe00000000
00003ffe000000
00003ffe000000
00003ffe000000
00007ffc000000
00007ffc000000
00007ffc000000
0007f07f000000
0007f07f000000
0007f07f000000
000fe0fe000000
000fe0fe000000
000fe0fe000000
0003ffe0000000
0003ffe0000000
0003ffe0000000
0007ffc0000000
0007ffc0000000
0007ffc0000000
000007f0000000
000007f0000000
000007f0000000
00000fe0000000
00000fe0000000
00000fe0000000
01fffe00000000
01fffe00000000
01fffe00000000
03fffc00000000
03fffc00000000
03fffc00000000
00000000000000
00000000000000
00000000000000
00000000000000
00000000000000
00000000000000
00000000000000
00000000000000
00000000000000
00000000000000
00000000000000
00000000000000
ENDCHAR
STARTCHAR U+00A6
ENCODING 166
SWIDTH 1000 0
DWIDTH 30 0
BBX 49 60 -9 -12
BITMAP
00000000000000
00000000000000
00000000000000
00000000000000
00000000000000
00000000000000
0000007f000000
0000007f000000
0000007f000000
000000fe000000
000000fe000000
000000fe000000
000001fc000000
000001fc000000
000001fc000000
000003f8000000
000003f8000000
000003f8000000
000007f0000000
000007f0000000
000007f0000000
00000fe0000000
00000fe0000000
00000fe0000000
00000000000000
00000000000000
00000000000000
00000000000000
00000000000000
00000000000000
00007f00000000
00007f00000000
00007f00000000
0000fe00000000
0000fe00000000
0000fe00000000
0001fc00000000
0001fc00000000
0001fc00000000
0003f800000000
0003f800000000
0003f800000000
0007f000000000
0007f000000000
0007f000000000
000fe000000000
000fe000000000
000fe000000000
00000000000000
00000000000000
00000000000000
00000000000000
00000000000000
00000000000000
00000000000000
00000000000000
00000000000000
00000000000000
00000000000000
00000000000000
ENDCHAR
STARTCHAR U+00A5
ENCODING 165
SWIDTH 1000 0
DWIDTH 30 0
BBX 49 60 -9 -12
BITMAP
00000000000000
00000000000000
00000000000000
00000000000000
00000000000000
00000000000000
0000fe003f8000
0000fe003f8000
0000fe003f8000
0001fc007f0000
0001fc007f0000
0001fc007f0000
00007f07f00000
00007f07f00000
00007f07f00000
0000fe0fe00000
0000fe0fe00000
0000fe0fe00000
00003ffe000000
00003ffe000000
00003ffe000000
00007ffc000000
00007ffc000000
00007ffc000000
00001fc0000000
00001fc0000000
00001fc0000000
00003f80000000
00003f80000000
00003f80000000
00ffffff800000
00ffffff800000
00ffffff800000
01ffffff000000
01ffffff000000
01ffffff000000
0001fc00000000
0001fc00000000
0001fc00000000
0003f800000000
0003f800000000
0003f800000000
0007f000000000
0007f000000000
0007f000000000
000fe000000000
000fe000000000
000fe000000000
00000000000000
00000000000000
00000000000000
00000000000000
00000000000000
00000000000000
00000000000000
00000000000000
00000000000000
00000000000000
00000000000000
00000000000000
ENDCHAR
STARTCHAR U+00A8
ENCODING 168
SWIDTH 1000 0
DWIDTH 30 0
BBX 49 60 -9 -12
BITMAP
000007f07f0000
000007f07f0000
000007f07f0000
00000fe0fe0000
00000fe0fe0000
00000fe0fe0000
00000000000000
00000000000000
00000000000000
00000000000000
00000000000000
00000000000000
00000000000000
00000000000000
00000000000000
00000000000000
00000000000000
00000000000000
00000000000000
00000000000000
00000000000000
00000000000000
00000000000000
00000000000000
00000000000000
00000000000000
00000000000000
00000000000000
00000000000000
00000000000000
00000000000000
00000000000000
00000000000000
00000000000000
00000000000000
00000000000000
00000000000000
00000000000000
00000000000000
00000000000000
00000000000000
00000000000000
00000000000000
00000000000000
00000000000000
00000000000000
00000000000000
00000000000000
00000000000000
00000000000000
00000000000000
00000000000000
00000000000000
00000000000000
00000000000000
00000000000000
00000000000000
00000000000000
00000000000000
00000000000000
ENDCHAR
STARTCHAR U+00A2
ENCODING 162
SWIDTH 1000 0
DWIDTH 30 0
BBX 49 60 -9 -12
BITMAP
00000000000000
00000000000000
00000000000000
00000000000000
00000000000000
00000000000000
00000000000000
00000000000000
00000000000000
00000000000000
00000000000000
00000000000000
000001fc000000
000001fc000000
000001fc000000
000003f8000000
000003f8000000
000003f8000000
0001ffffc00000
0001ffffc00000
0001ffffc00000
0003ffff800000
0003ffff800000
0003ffff800000
003f9fcfe00000
003f9fcfe00000
003f9fcfe00000
007f3f9fc00000
007f3f9fc00000
007f3f9fc00000
00fe7f00000000
00fe7f00000000
00fe7f00000000
01fcfe00000000
01fcfe00000000
01fcfe00000000
03f9fcfe000000
03f9fcfe000000
03f9fcfe000000
07f3f9fc000000
07f3f9fc000000
07f3f9fc000000
01ffffc0000000
01ffffc0000000
01ffffc0000000
03ffff80000000
03ffff80000000
03ffff80000000
001fc000000000
001fc000000000
001fc000000000
003f8000000000
003f8000000000
003f8000000000
00000000000000
00000000000000
00000000000000
00000000000000
00000000000000
00000000000000
ENDCHAR
STARTCHAR U+00A1
ENCODING 161
SWIDTH 1000 0
DWIDTH 30 0
BBX 49 60 -9 -12
BITMAP
00000000000000
00000000000000
00000000000000
00000000000000
00000000000000
00000000000000
0000007f000000
0000007f000000
0000007f000000
000000fe000000
000000fe000000
000000fe000000
00000000000000
00000000000000
00000000000000
00000000000000
00000000000000
00000000000000
000007f0000000
000007f0000000
000007f0000000
00000fe0000000
00000fe0000000
00000fe0000000
00001fc0000000
00001fc0000000
00001fc0000000
00003f80000000
00003f80000000
00003f80000000
00007f00000000
00007f00000000
00007f00000000
0000fe00000000
0000fe00000000
0000fe00000000
0001fc00000000
0001fc00000000
0001fc00000000
0003f800000000
0003f800000000
0003f800000000
0007f000000000
0007f000000000
0007f000000000
000fe000000000
000fe000000000
000fe000000000
00000000000000
00000000000000
00000000000000
00000000000000
00000000000000
00000000000000
00000000000000
00000000000000
00000000000000
00000000000000
00000000000000
00000000000000
ENDCHAR
STARTCHAR U+201F
ENCODING 8223
SWIDTH 1000 0
DWIDTH 30 0
BBX 49 60 -9 -12
BITMAP
00000000000000
00000000000000
00000000000000
00000000000000
00000000000000
00000000000000
00001ffffc0000
00001ffffc0000
00001ffffc0000
00003ffff80000
00003ffff80000
00003ffff80000
00007f3f800000
00007f3f800000
00007f3f800000
0000fe7f000000
0000fe7f000000
0000feff000000
00003f9fc00000
00003f9fc00000
00003f9fc00000
00007f3f800000
00007f3f800000
00007f3f800000
00000000000000
00000000000000
00000000000000
00000000000000
00000000000000
00000000000000
00000000000000
00000000000000
00000000000000
00000000000000
00000000000000
00000000000000
00000000000000
00000000000000
00000000000000
00000000000000
00000000000000
00000000000000
00000000000000
00000000000000
00000000000000
00000000000000
00000000000000
00000000000000
00000000000000
00000000000000
00000000000000
00000000000000
00000000000000
00000000000000
00000000000000
00000000000000
00000000000000
00000000000000
00000000000000
00000000000000
ENDCHAR
STARTCHAR U+201E
ENCODING 8222
SWIDTH 1000 0
DWIDTH 30 0
BBX 49 60 -9 -12
BITMAP
00000000000000
00000000000000
00000000000000
00000000000000
00000000000000
00000000000000
00000000000000
00000000000000
00000000000000
00000000000000
00000000000000
00000000000000
00000000000000
00000000000000
00000000000000
00000000000000
00000000000000
00000000000000
00000000000000
00000000000000
00000000000000
00000000000000
00000000000000
00000000000000
00000000000000
00000000000000
00000000000000
00000000000000
00000000000000
00000000000000
00000000000000
00000000000000
00000000000000
00000000000000
00000000000000
00000000000000
00000000000000
00000000000000
00000000000000
00000000000000
00000000000000
00000000000000
01fcfe00000000
01fcfe00000000
01fcfe00000000
03f9fc00000000
03f9fc00000000
03f9fc00000000
07f3f800000000
07f3f800000000
07f3f800000000
0fe7f000000000
0fe7f000000000
0fe7f000000000
00000000000000
00000000000000
00000000000000
00000000000000
00000000000000
00000000000000
ENDCHAR
STARTCHAR U+201D
ENCODING 8221
SWIDTH 1000 0
DWIDTH 30 0
BBX 49 60 -9 -12
BITMAP
00000000000000
00000000000000
00000000000000
00000000000000
00000000000000
00000000000000
00001ff9ff8000
00001ff9ff8000
00001ff9ff8000
00003ff3ff0000
00003ff3ff0000
00003ff3ff0000
00000fe0fe0000
00000fe0fe0000
00000fe0fe0000
00001fc1fc0000
00001fc1fc0000
00001fc1fc0000
0001fc1fc00000
0001fc1fc00000
0001fc1fc00000
0003f83f800000
0003f83f800000
0003f83f800000
00000000000000
00000000000000
00000000000000
00000000000000
00000000000000
00000000000000
00000000000000
00000000000000
00000000000000
00000000000000
00000000000000
00000000000000
00000000000000
00000000000000
00000000000000
00000000000000
00000000000000
00000000000000
00000000000000
00000000000000
00000000000000
00000000000000
00000000000000
00000000000000
00000000000000
00000000000000
00000000000000
00000000000000
00000000000000
00000000000000
00000000000000
00000000000000
00000000000000
00000000000000
00000000000000
00000000000000
ENDCHAR
STARTCHAR U+201C
ENCODING 8220
SWIDTH 1000 0
DWIDTH 30 0
BBX 49 60 -9 -12
BITMAP
00000000000000
00000000000000
00000000000000
00000000000000
00000000000000
00000000000000
000003f83f8000
000003f83f8000
000003f83f8000
000007f07f0000
000007f07f0000
000007f07f0000
00007f07f00000
00007f07f00000
00007f07f00000
0000fe0fe00000
0000fe0fe00000
0000fe0fe00000
0001ff9ff80000
0001ff9ff80000
0001ff9ff80000
0003ff3ff00000
0003ff3ff00000
0003ff3ff00000
00000000000000
00000000000000
00000000000000
00000000000000
00000000000000
00000000000000
00000000000000
00000000000000
00000000000000
00000000000000
00000000000000
00000000000000
00000000000000
00000000000000
00000000000000
00000000000000
00000000000000
00000000000000
00000000000000
00000000000000
00000000000000
00000000000000
00000000000000
00000000000000
00000000000000
00000000000000
00000000000000
00000000000000
00000000000000
00000000000000
00000000000000
00000000000000
00000000000000
00000000000000
00000000000000
00000000000000
ENDCHAR
STARTCHAR U+201B
ENCODING 8219
SWIDTH 1000 0
DWIDTH 30 0
BBX 49 60 -9 -12
BITMAP
00000000000000
00000000000000
00000000000000
00000000000000
00000000000000
00000000000000
0000007f000000
0000007f000000
0000007f000000
000000fe000000
000000fe000000
000000fe000000
000001fc000000
000001fc000000
000001fc000000
000003f8000000
000003f8000000
000003f8000000
000007f0000000
000007f0000000
000007f0000000
00000fe0000000
00000fe0000000
00000fe0000000
00000000000000
00000000000000
00000000000000
00000000000000
00000000000000
00000000000000
00000000000000
00000000000000
00000000000000
00000000000000
00000000000000
00000000000000
00000000000000
00000000000000
00000000000000
00000000000000
00000000000000
00000000000000
00000000000000
00000000000000
00000000000000
00000000000000
00000000000000
00000000000000
00000000000000
00000000000000
00000000000000
00000000000000
00000000000000
00000000000000
00000000000000
00000000000000
00000000000000
00000000000000
00000000000000
00000000000000
ENDCHAR
STARTCHAR U+201A
ENCODING 8218
SWIDTH 1000 0
DWIDTH 30 0
BBX 49 60 -9 -12
BITMAP
00000000000000
00000000000000
00000000000000
00000000000000
00000000000000
00000000000000
00000000000000
00000000000000
00000000000000
00000000000000
00000000000000
00000000000000
00000000000000
00000000000000
00000000000000
00000000000000
00000000000000
00000000000000
00000000000000
00000000000000
00000000000000
00000000000000
00000000000000
00000000000000
00000000000000
00000000000000
00000000000000
00000000000000
00000000000000
00000000000000
00007f00000000
00007f00000000
00007f00000000
0000fe00000000
0000fe00000000
0000fe00000000
0001fc00000000
0001fc00000000
0001fc00000000
0003f800000000
0003f800000000
0003f800000000
0007f000000000
0007f000000000
0007f000000000
000fe000000000
000fe000000000
000fe000000000
00000000000000
00000000000000
00000000000000
00000000000000
00000000000000
00000000000000
00000000000000
00000000000000
00000000000000
00000000000000
00000000000000
00000000000000
ENDCHAR
STARTCHAR U+2019
ENCODING 8217
SWIDTH 1000 0
DWIDTH 30 0
BBX 49 60 -9 -12
BITMAP
00000000000000
00000000000000
00000000000000
00000000000000
00000000000000
00000000000000
00001ff8000000
00001ff8000000
00001ff8000000
00003ff0000000
00003ff0000000
00003ff0000000
00000fe0000000
00000fe0000000
00000fe0000000
00001fc0000000
00001fc0000000
00001fc0000000
0001fc00000000
0001fc00000000
0001fc00000000
0003f800000000
0003f800000000
0003f800000000
00000000000000
00000000000000
00000000000000
00000000000000
00000000000000
00000000000000
00000000000000
00000000000000
00000000000000
00000000000000
00000000000000
00000000000000
00000000000000
00000000000000
00000000000000
00000000000000
00000000000000
00000000000000
00000000000000
00000000000000
00000000000000
00000000000000
00000000000000
00000000000000
00000000000000
00000000000000
00000000000000
00000000000000
00000000000000
00000000000000
00000000000000
00000000000000
00000000000000
00000000000000
00000000000000
00000000000000
ENDCHAR
STARTCHAR U+2018
ENCODING 8216
SWIDTH 1000 0
DWIDTH 30 0
BBX 49 60 -9 -12
BITMAP
00000000000000
00000000000000
00000000000000
00000000000000
00000000000000
00000000000000
000000003f8000
000000003f8000
000000003f8000
000000007f0000
000000007f0000
000000007f0000
00000007f00000
00000007f00000
00000007f00000
0000000fe00000
0000000fe00000
0000000fe00000
0000001ff80000
0000001ff80000
0000001ff80000
0000003ff00000
0000003ff00000
0000003ff00000
00000000000000
00000000000000
00000000000000
00000000000000
00000000000000
00000000000000
00000000000000
00000000000000
00000000000000
00000000000000
00000000000000
00000000000000
00000000000000
00000000000000
00000000000000
00000000000000
00000000000000
00000000000000
00000000000000
00000000000000
00000000000000
00000000000000
00000000000000
00000000000000
00000000000000
00000000000000
00000000000000
00000000000000
00000000000000
00000000000000
00000000000000
00000000000000
00000000000000
00000000000000
00000000000000
00000000000000
ENDCHAR
STARTCHAR U+2017
ENCODING 8215
SWIDTH 1000 0
DWIDTH 30 0
BBX 49 60 -9 -12
BITMAP
00000000000000
00000000000000
00000000000000
00000000000000
00000000000000
00000000000000
00000000000000
00000000000000
00000000000000
00000000000000
00000000000000
00000000000000
00000000000000
00000000000000
00000000000000
00000000000000
00000000000000
00000000000000
00000000000000
00000000000000
00000000000000
00000000000000
00000000000000
00000000000000
00000000000000
00000000000000
00000000000000
00000000000000
00000000000000
00000000000000
00000000000000
00000000000000
00000000000000
00000000000000
00000000000000
00000000000000
00000000000000
00000000000000
00000000000000
00000000000000
00000000000000
00000000000000
0ffffff8000000
0ffffff8000000
0ffffff8000000
1ffffff0000000
1ffffff0000000
1ffffff0000000
00000000000000
00000000000000
00000000000000
00000000000000
00000000000000
00000000000000
ffffff80000000
ffffff80000000
ffffff80000000
ffffff00000000
ffffff00000000
ffffff00000000
ENDCHAR
STARTCHAR U+2016
ENCODING 8214
SWIDTH 1000 0
DWIDTH 30 0
BBX 49 60 -9 -12
BITMAP
00000000000000
00000000000000
00000000000000
00000000000000
00000000000000
00000000000000
0000007ffc0000
0000007ffc0000
0000007ffc0000
000000fff80000
000000fff80000
000000fff80000
000001fff00000
000001fff00000
000001fff00000
000003ffe00000
000003ffe00000
000003ffe00000
000007ffc00000
000007ffc00000
000007ffc00000
00000fff800000
00000fff800000
00000fff800000
00001fff000000
00001fff000000
00001fff000000
00003ffe000000
00003ffe000000
00003ffe000000
00007ffc000000
00007ffc000000
00007ffc000000
0000fff8000000
0000fff8000000
0000fff8000000
0001fff0000000
0001fff0000000
0001fff0000000
0003ffe0000000
0003ffe0000000
0003ffe0000000
0007ffc0000000
0007ffc0000000
0007ffc0000000
000fff80000000
000fff80000000
000fff80000000
00000000000000
00000000000000
00000000000000
00000000000000
00000000000000
00000000000000
00000000000000
00000000000000
00000000000000
00000000000000
00000000000000
00000000000000
ENDCHAR
STARTCHAR U+2015
ENCODING 8213
SWIDTH 1000 0
DWIDTH 30 0
BBX 49 60 -9 -12
BITMAP
00000000000000
00000000000000
00000000000000
00000000000000
00000000000000
00000000000000
00000000000000
00000000000000
00000000000000
00000000000000
00000000000000
00000000000000
00000000000000
00000000000000
00000000000000
00000000000000
00000000000000
00000000000000
00000000000000
00000000000000
00000000000000
00000000000000
00000000000000
00000000000000
003fffffff8000
003fffffff8000
003fffffff8000
007fffffff0000
007fffffff0000
007fffffff0000
00000000000000
00000000000000
00000000000000
00000000000000
00000000000000
00000000000000
00000000000000
00000000000000
00000000000000
00000000000000
00000000000000
00000000000000
00000000000000
00000000000000
00000000000000
00000000000000
00000000000000
00000000000000
00000000000000
00000000000000
00000000000000
00000000000000
00000000000000
00000000000000
00000000000000
00000000000000
00000000000000
00000000000000
00000000000000
00000000000000
ENDCHAR
STARTCHAR U+2014
ENCODING 8212
SWIDTH 1000 0
DWIDTH 30 0
BBX 49 60 -9 -12
BITMAP
00000000000000
00000000000000
00000000000000
00000000000000
00000000000000
00000000000000
00000000000000
00000000000000
00000000000000
00000000000000
00000000000000
00000000000000
00000000000000
00000000000000
00000000000000
00000000000000
00000000000000
00000000000000
00000000000000
00000000000000
00000000000000
00000000000000
00000000000000
00000000000000
003fffffe00000
003fffffe00000
003fffffe00000
007fffffc00000
007fffffc00000
007fffffc00000
00000000000000
00000000000000
00000000000000
00000000000000
00000000000000
00000000000000
00000000000000
00000000000000
00000000000000
00000000000000
00000000000000
00000000000000
00000000000000
00000000000000
00000000000000
00000000000000
00000000000000
00000000000000
00000000000000
00000000000000
00000000000000
00000000000000
00000000000000
00000000000000
00000000000000
00000000000000
00000000000000
00000000000000
00000000000000
00000000000000
ENDCHAR
STARTCHAR U+2013
ENCODING 8211
SWIDTH 1000 0
DWIDTH 30 0
BBX 49 60 -9 -12
BITMAP
00000000000000
00000000000000
00000000000000
00000000000000
00000000000000
00000000000000
00000000000000
00000000000000
00000000000000
00000000000000
00000000000000
00000000000000
00000000000000
00000000000000
00000000000000
00000000000000
00000000000000
00000000000000
00000000000000
00000000000000
00000000000000
00000000000000
00000000000000
00000000000000
0000ffff000000
0000ffff000000
0000ffff000000
0001fffe000000
0001fffe000000
0001fffe000000
00000000000000
00000000000000
00000000000000
00000000000000
00000000000000
00000000000000
00000000000000
00000000000000
00000000000000
00000000000000
00000000000000
00000000000000
00000000000000
00000000000000
00000000000000
00000000000000
00000000000000
00000000000000
00000000000000
00000000000000
00000000000000
00000000000000
00000000000000
00000000000000
00000000000000
00000000000000
00000000000000
00000000000000
00000000000000
00000000000000
ENDCHAR
STARTCHAR U+2012
ENCODING 8210
SWIDTH 1000 0
DWIDTH 30 0
BBX 49 60 -9 -12
BITMAP
00000000000000
00000000000000
00000000000000
00000000000000
00000000000000
00000000000000
00000000000000
00000000000000
00000000000000
00000000000000
00000000000000
00000000000000
00000000000000
00000000000000
00000000000000
00000000000000
00000000000000
00000000000000
00000000000000
00000000000000
00000000000000
00000000000000
00000000000000
00000000000000
0007ffff000000
0007ffff000000
0007ffff000000
000ffffe000000
000ffffe000000
000ffffe000000
00000000000000
00000000000000
00000000000000
00000000000000
00000000000000
00000000000000
00000000000000
00000000000000
00000000000000
00000000000000
00000000000000
00000000000000
00000000000000
00000000000000
00000000000000
00000000000000
00000000000000
00000000000000
00000000000000
00000000000000
00000000000000
00000000000000
00000000000000
00000000000000
00000000000000
00000000000000
00000000000000
00000000000000
00000000000000
00000000000000
ENDCHAR
STARTCHAR U+2011
ENCODING 8209
SWIDTH 1000 0
DWIDTH 30 0
BBX 49 60 -9 -12
BITMAP
00000000000000
00000000000000
00000000000000
00000000000000
00000000000000
00000000000000
00000000000000
00000000000000
00000000000000
00000000000000
00000000000000
00000000000000
00000000000000
00000000000000
00000000000000
00000000000000
00000000000000
00000000000000
00000000000000
00000000000000
00000000000000
00000000000000
00000000000000
00000000000000
0000fff8000000
0000fff8000000
0000fff8000000
0001fff0000000
0001fff0000000
0001fff0000000
00000000000000
00000000000000
00000000000000
00000000000000
00000000000000
00000000000000
00000000000000
00000000000000
00000000000000
00000000000000
00000000000000
00000000000000
00000000000000
00000000000000
00000000000000
00000000000000
00000000000000
00000000000000
00000000000000
00000000000000
00000000000000
00000000000000
00000000000000
00000000000000
00000000000000
00000000000000
00000000000000
00000000000000
00000000000000
00000000000000
ENDCHAR
STARTCHAR U+2010
ENCODING 8208
SWIDTH 1000 0
DWIDTH 30 0
BBX 49 60 -9 -12
BITMAP
00000000000000
00000000000000
00000000000000
00000000000000
00000000000000
00000000000000
00000000000000
00000000000000
00000000000000
00000000000000
00000000000000
00000000000000
00000000000000
00000000000000
00000000000000
00000000000000
00000000000000
00000000000000
00000000000000
00000000000000
00000000000000
00000000000000
00000000000000
00000000000000
0000fff8000000
0000fff8000000
0000fff8000000
0001fff0000000
0001fff0000000
0001fff0000000
00000000000000
00000000000000
00000000000000
00000000000000
00000000000000
00000000000000
00000000000000
00000000000000
00000000000000
00000000000000
00000000000000
00000000000000
00000000000000
00000000000000
00000000000000
00000000000000
00000000000000
00000000000000
00000000000000
00000000000000
00000000000000
00000000000000
00000000000000
00000000000000
00000000000000
00000000000000
00000000000000
00000000000000
00000000000000
00000000000000
ENDCHAR
STARTCHAR U+007F
ENCODING 127
SWIDTH 1000 0
DWIDTH 30 0
BBX 49 60 -9 -12
BITMAP
00000000000000
00000000000000
00000000000000
00000000000000
00000000000000
00000000000000
0000fff8000000
0000fff8000000
0000fff8000000
0001fff0000000
0001fff0000000
0001fff0000000
0003f9fc000000
0003f9fc000000
0003f9fc000000
0007f3f8000000
0007f3f8000000
0007f3f8000000
000fe7f0000000
000fe7f0000000
000fe7f0000000
001fcfe0000000
001fcfe0000000
001fcfe0000000
003f9fc0000000
003f9fc0000000
003f9fc0000000
007f3f80000000
007f3f80000000
007f3f80000000
00ffffe0000000
00ffffe0000000
00ffffe0000000
01ffffc0000000
01ffffc0000000
01ffffc0000000
000fe000000000
000fe000000000
000fe000000000
001fc000000000
001fc000000000
001fc000000000
003f8000000000
003f8000000000
003f8000000000
007f0000000000
007f0000000000
007f0000000000
00fe0000000000
00fe0000000000
00fe0000000000
01fc0000000000
01fc0000000000
01fc0000000000
03f80000000000
03f80000000000
03f80000000000
07f00000000000
07f00000000000
07f00000000000
ENDCHAR
STARTCHAR U+007E
ENCODING 126
SWIDTH 1000 0
DWIDTH 30 0
BBX 49 60 -9 -12
BITMAP
00000000000000
00000000000000
00000000000000
00000000000000
00000000000000
00000000000000
00001ff83f8000
00001ff83f8000
00001ff83f8000
00003ff07f0000
00003ff07f0000
00003ff07f0000
0003f9fcfe0000
0003f9fcfe0000
0003f9fcfe0000
0007f3f9fc0000
0007f3f9fc0000
0007f3f9fc0000
000fe0ffc00000
000fe0ffc00000
000fe0ffc00000
001fc1ff800000
001fc1ff800000
001fc1ff800000
00000000000000
00000000000000
00000000000000
00000000000000
00000000000000
00000000000000
00000000000000
00000000000000
00000000000000
00000000000000
00000000000000
00000000000000
00000000000000
00000000000000
00000000000000
00000000000000
00000000000000
00000000000000
00000000000000
00000000000000
00000000000000
00000000000000
00000000000000
00000000000000
00000000000000
00000000000000
00000000000000
00000000000000
00000000000000
00000000000000
00000000000000
00000000000000
00000000000000
00000000000000
00000000000000
00000000000000
ENDCHAR
STARTCHAR U+007D
ENCODING 125
SWIDTH 1000 0
DWIDTH 30 0
BBX 49 60 -9 -12
BITMAP
00000000000000
00000000000000
00000000000000
00000000000000
00000000000000
00000000000000
0000fff8000000
0000fff8000000
0000fff8000000
0001fff0000000
0001fff0000000
0001fff0000000
000001fc000000
000001fc000000
000001fc000000
000003f8000000
000003f8000000
000003f8000000
00003f80000000
00003f80000000
00003f80000000
00007f00000000
00007f00000000
00007f00000000
00001ff8000000
00001ff8000000
00001ff8000000
00003ff0000000
00003ff0000000
00003ff0000000
0003f800000000
0003f800000000
0003f800000000
0007f000000000
0007f000000000
0007f000000000
0001fc00000000
0001fc00000000
0001fc00000000
0003f800000000
0003f800000000
0003f800000000
0fff8000000000
0fff8000000000
0fff8000000000
1fff0000000000
1fff0000000000
1fff0000000000
00000000000000
00000000000000
00000000000000
00000000000000
00000000000000
00000000000000
00000000000000
00000000000000
00000000000000
00000000000000
00000000000000
00000000000000
ENDCHAR
STARTCHAR U+007C
ENCODING 124
SWIDTH 1000 0
DWIDTH 30 0
BBX 49 60 -9 -12
BITMAP
00000000000000
00000000000000
00000000000000
00000000000000
00000000000000
00000000000000
0000007f000000
0000007f000000
0000007f000000
000000fe000000
000000fe000000
000000fe000000
000001fc000000
000001fc000000
000001fc000000
000003f8000000
000003f8000000
000003f8000000
000007f0000000
000007f0000000
000007f0000000
00000fe0000000
00000fe0000000
00000fe0000000
00001fc0000000
00001fc0000000
00001fc0000000
00003f80000000
00003f80000000
00003f80000000
00007f00000000
00007f00000000
00007f00000000
0000fe00000000
0000fe00000000
0000fe00000000
0001fc00000000
0001fc00000000
0001fc00000000
0003f800000000
0003f800000000
0003f800000000
0007f000000000
0007f000000000
0007f000000000
000fe000000000
000fe000000000
000fe000000000
00000000000000
00000000000000
00000000000000
00000000000000
00000000000000
00000000000000
00000000000000
00000000000000
00000000000000
00000000000000
00000000000000
00000000000000
ENDCHAR
STARTCHAR U+007B
ENCODING 123
SWIDTH 1000 0
DWIDTH 30 0
BBX 49 60 -9 -12
BITMAP
00000000000000
00000000000000
00000000000000
00000000000000
00000000000000
00000000000000
0000000fff8000
0000000fff8000
0000000fff8000
0000001fff0000
0000001fff0000
0000001fff0000
000001fc000000
000001fc000000
000001fc000000
000003f8000000
000003f8000000
000003f8000000
000000fe000000
000000fe000000
000000fe000000
000001fc000000
000001fc000000
000001fc000000
0000ffc0000000
0000ffc0000000
0000ffc0000000
0001ff80000000
0001ff80000000
0001ff80000000
00000fe0000000
00000fe0000000
00000fe0000000
00001fc0000000
00001fc0000000
00001fc0000000
0001fc00000000
0001fc00000000
0001fc00000000
0003f800000000
0003f800000000
0003f800000000
0000fff8000000
0000fff8000000
0000fff8000000
0001fff0000000
0001fff0000000
0001fff0000000
00000000000000
00000000000000
00000000000000
00000000000000
00000000000000
00000000000000
00000000000000
00000000000000
00000000000000
00000000000000
00000000000000
00000000000000
ENDCHAR
STARTCHAR U+007A
ENCODING 122
SWIDTH 1000 0
DWIDTH 30 0
BBX 49 60 -9 -12
BITMAP
00000000000000
00000000000000
00000000000000
00000000000000
00000000000000
00000000000000
00000000000000
00000000000000
00000000000000
00000000000000
00000000000000
00000000000000
00000000000000
00000000000000
00000000000000
00000000000000
00000000000000
00000000000000
000ffffff80000
000ffffff80000
000ffffff80000
001ffffff00000
001ffffff00000
001ffffff00000
0000007f000000
0000007f000000
0000007f000000
000000fe000000
000000fe000000
000000fe000000
00007fe0000000
00007fe0000000
00007fe0000000
0000ffc0000000
0000ffc0000000
0000ffc0000000
000fe000000000
000fe000000000
000fe000000000
001fc000000000
001fc000000000
001fc000000000
0ffffff8000000
0ffffff8000000
0ffffff8000000
1ffffff0000000
1ffffff0000000
1ffffff0000000
00000000000000
00000000000000
00000000000000
00000000000000
00000000000000
00000000000000
00000000000000
00000000000000
00000000000000
00000000000000
00000000000000
00000000000000
ENDCHAR
STARTCHAR U+0079
ENCODING 121
SWIDTH 1000 0
DWIDTH 30 0
BBX 49 60 -9 -12
BITMAP
00000000000000
00000000000000
00000000000000
00000000000000
00000000000000
00000000000000
00000000000000
00000000000000
00000000000000
00000000000000
00000000000000
00000000000000
00000000000000
00000000000000
00000000000000
00000000000000
00000000000000
00000000000000
000fe01fc00000
000fe01fc00000
000fe01fc00000
001fc03f800000
001fc03f800000
001fc03f800000
003f807f000000
003f807f000000
003f807f000000
007f00fe000000
007f00fe000000
007f00fe000000
00fe0ffc000000
00fe0ffc000000
00fe0ffc000000
01fc1ff8000000
01fc1ff8000000
01fc1ff8000000
007ffff0000000
007ffff0000000
007ffff0000000
00ffffe0000000
00ffffe0000000
00ffffe0000000
00001fc0000000
00001fc0000000
00001fc0000000
00003f80000000
00003f80000000
00003f80000000
3f807f00000000
3f807f00000000
3f807f00000000
7f00fe00000000
7f00fe00000000
7f00fe00000000
1fffe000000000
1fffe000000000
1fffe000000000
3fffc000000000
3fffc000000000
3fffc000000000
ENDCHAR
STARTCHAR U+0078
ENCODING 120
SWIDTH 1000 0
DWIDTH 30 0
BBX 49 60 -9 -12
BITMAP
00000000000000
00000000000000
00000000000000
00000000000000
00000000000000
00000000000000
00000000000000
00000000000000
00000000000000
00000000000000
00000000000000
00000000000000
00000000000000
00000000000000
00000000000000
00000000000000
00000000000000
00000000000000
000fe01fc00000
000fe01fc00000
000fe01fc00000
001fc03f800000
001fc03f800000
001fc03f800000
0007f3f8000000
0007f3f8000000
0007f3f8000000
000fe7f0000000
000fe7f0000000
000fe7f0000000
0003ff00000000
0003ff00000000
0003ff00000000
0007fe00000000
0007fe00000000
0007fe00000000
007f3f80000000
007f3f80000000
007f3f80000000
00fe7f00000000
00fe7f00000000
00fe7f00000000
0fe01fc0000000
0fe01fc0000000
0fe01fc0000000
1fc03f80000000
1fc03f80000000
1fc03f80000000
00000000000000
00000000000000
00000000000000
00000000000000
00000000000000
00000000000000
00000000000000
00000000000000
00000000000000
00000000000000
00000000000000
00000000000000
ENDCHAR
STARTCHAR U+0077
ENCODING 119
SWIDTH 1000 0
DWIDTH 30 0
BBX 49 60 -9 -12
BITMAP
00000000000000
00000000000000
00000000000000
00000000000000
00000000000000
00000000000000
00000000000000
00000000000000
00000000000000
00000000000000
00000000000000
00000000000000
00000000000000
00000000000000
00000000000000
00000000000000
00000000000000
00000000000000
000fe003f80000
000fe003f80000
000fe003f80000
001fc007f00000
001fc007f00000
001fc007f00000
003f800fe00000
003f800fe00000
003f800fe00000
007f001fc00000
007f001fc00000
007f001fc00000
00fe7f3f800000
00fe7f3f800000
00fe7f3f800000
01fcfe7f000000
01fcfe7f000000
01fcfe7f000000
03fffffe000000
03fffffe000000
03fffffe000000
07fffffc000000
07fffffc000000
07fffffc000000
01fc1fc0000000
01fc1fc0000000
01fc1fc0000000
03f83f80000000
03f83f80000000
03f83f80000000
00000000000000
00000000000000
00000000000000
00000000000000
00000000000000
00000000000000
00000000000000
00000000000000
00000000000000
00000000000000
00000000000000
00000000000000
ENDCHAR
STARTCHAR U+0076
ENCODING 118
SWIDTH 1000 0
DWIDTH 30 0
BBX 49 60 -9 -12
BITMAP
00000000000000
00000000000000
00000000000000
00000000000000
00000000000000
00000000000000
00000000000000
00000000000000
00000000000000
00000000000000
00000000000000
00000000000000
00000000000000
00000000000000
00000000000000
00000000000000
00000000000000
00000000000000
000fe003f80000
000fe003f80000
000fe003f80000
001fc007f00000
001fc007f00000
001fc007f00000
003f800fe00000
003f800fe00000
003f800fe00000
007f001fc00000
007f001fc00000
007f001fc00000
001fc1fc000000
001fc1fc000000
001fc1fc000000
003f83f8000000
003f83f8000000
003f83f8000000
000fff80000000
000fff80000000
000fff80000000
001fff00000000
001fff00000000
001fff00000000
0007f000000000
0007f000000000
0007f000000000
000fe000000000
000fe000000000
000fe000000000
00000000000000
00000000000000
00000000000000
00000000000000
00000000000000
00000000000000
00000000000000
00000000000000
00000000000000
00000000000000
00000000000000
00000000000000
ENDCHAR
STARTCHAR U+0075
ENCODING 117
SWIDTH 1000 0
DWIDTH 30 0
BBX 49 60 -9 -12
BITMAP
00000000000000
00000000000000
00000000000000
00000000000000
00000000000000
00000000000000
00000000000000
00000000000000
00000000000000
00000000000000
00000000000000
00000000000000
00000000000000
00000000000000
00000000000000
00000000000000
00000000000000
00000000000000
000fe01fc00000
000fe01fc00000
000fe01fc00000
001fc03f800000
001fc03f800000
001fc03f800000
003f807f000000
003f807f000000
003f807f000000
007f00fe000000
007f00fe000000
007f00fe000000
00fe01fc000000
00fe01fc000000
00fe01fc000000
01fc03f8000000
01fc03f8000000
01fc03f8000000
03f807f0000000
03f807f0000000
03f807f0000000
07f00fe0000000
07f00fe0000000
07f00fe0000000
01fffff8000000
01fffff8000000
01fffff8000000
03fffff0000000
03fffff0000000
03fffff0000000
00000000000000
00000000000000
00000000000000
00000000000000
00000000000000
00000000000000
00000000000000
00000000000000
00000000000000
00000000000000
00000000000000
00000000000000
ENDCHAR
STARTCHAR U+0074
ENCODING 116
SWIDTH 1000 0
DWIDTH 30 0
BBX 49 60 -9 -12
BITMAP
00000000000000
00000000000000
00000000000000
00000000000000
00000000000000
00000000000000
000003f8000000
000003f8000000
000003f8000000
000007f0000000
000007f0000000
000007f0000000
00000fe0000000
00000fe0000000
00000fe0000000
00001fc0000000
00001fc0000000
00001fc0000000
000ffffe000000
000ffffe000000
000ffffe000000
001ffffc000000
001ffffc000000
001ffffc000000
0000fe00000000
0000fe00000000
0000fe00000000
0001fc00000000
0001fc00000000
0001fc00000000
0003f800000000
0003f800000000
0003f800000000
0007f000000000
0007f000000000
0007f000000000
000fe7f0000000
000fe7f0000000
000fe7f0000000
001fcfe0000000
001fcfe0000000
001fcfe0000000
0007fe00000000
0007fe00000000
0007fe00000000
000ffc00000000
000ffc00000000
000ffc00000000
00000000000000
00000000000000
00000000000000
00000000000000
00000000000000
00000000000000
00000000000000
00000000000000
00000000000000
00000000000000
00000000000000
00000000000000
ENDCHAR
STARTCHAR U+0073
ENCODING 115
SWIDTH 1000 0
DWIDTH 30 0
BBX 49 60 -9 -12
BITMAP
00000000000000
00000000000000
00000000000000
00000000000000
00000000000000
00000000000000
00000000000000
00000000000000
00000000000000
00000000000000
00000000000000
00000000000000
00000000000000
00000000000000
00000000000000
00000000000000
00000000000000
00000000000000
0001ffffc00000
0001ffffc00000
0001ffffc00000
0003ffff800000
0003ffff800000
0003ffff800000
003f8000000000
003f8000000000
003f8000000000
007f0000000000
007f0000000000
007f0000000000
001ffffc000000
001ffffc000000
001ffffc000000
003ffff8000000
003ffff8000000
003ffff8000000
000000fe000000
000000fe000000
000000fe000000
000001fc000000
000001fc000000
000001fc000000
0fffffc0000000
0fffffc0000000
0fffffc0000000
1fffff80000000
1fffff80000000
1fffff80000000
00000000000000
00000000000000
00000000000000
00000000000000
00000000000000
00000000000000
00000000000000
00000000000000
00000000000000
00000000000000
00000000000000
00000000000000
ENDCHAR
STARTCHAR U+0072
ENCODING 114
SWIDTH 1000 0
DWIDTH 30 0
BBX 49 60 -9 -12
BITMAP
00000000000000
00000000000000
00000000000000
00000000000000
00000000000000
00000000000000
00000000000000
00000000000000
00000000000000
00000000000000
00000000000000
00000000000000
00000000000000
00000000000000
00000000000000
00000000000000
00000000000000
00000000000000
000fe7ffc00000
000fe7ffc00000
000fe7ffc00000
001fcfff800000
001fcfff800000
001fcfff800000
0007fe0fe00000
0007fe0fe00000
0007fe0fe00000
000ffc1fc00000
000ffc1fc00000
000ffc1fc00000
001fc000000000
001fc000000000
001fc000000000
003f8000000000
003f8000000000
003f8000000000
007f0000000000
007f0000000000
007f0000000000
00fe0000000000
00fe0000000000
00fe0000000000
01fc0000000000
01fc0000000000
01fc0000000000
03f80000000000
03f80000000000
03f80000000000
00000000000000
00000000000000
00000000000000
00000000000000
00000000000000
00000000000000
00000000000000
00000000000000
00000000000000
00000000000000
00000000000000
00000000000000
ENDCHAR
STARTCHAR U+0071
ENCODING 113
SWIDTH 1000 0
DWIDTH 30 0
BBX 49 60 -9 -12
BITMAP
00000000000000
00000000000000
00000000000000
00000000000000
00000000000000
00000000000000
00000000000000
00000000000000
00000000000000
00000000000000
00000000000000
00000000000000
00000000000000
00000000000000
00000000000000
00000000000000
00000000000000
00000000000000
0001fffff80000
0001fffff80000
0001fffff80000
0003fffff00000
0003fffff00000
0003fffff00000
003f807fe00000
003f807fe00000
003f807fe00000
007f00ffc00000
007f00ffc00000
007f00ffc00000
00fe01ff800000
00fe01ff800000
00fe01ff800000
01fc03ff000000
01fc03ff000000
01fc03ff000000
007ffffe000000
007ffffe000000
007ffffe000000
00fffffc000000
00fffffc000000
00fffffc000000
000003f8000000
000003f8000000
000003f8000000
000007f0000000
000007f0000000
000007f0000000
00000fe0000000
00000fe0000000
00000fe0000000
00001fc0000000
00001fc0000000
00001fc0000000
00003f80000000
00003f80000000
00003f80000000
00007f00000000
00007f00000000
00007f00000000
ENDCHAR
STARTCHAR U+0070
ENCODING 112
SWIDTH 1000 0
DWIDTH 30 0
BBX 49 60 -9 -12
BITMAP
00000000000000
00000000000000
00000000000000
00000000000000
00000000000000
00000000000000
00000000000000
00000000000000
00000000000000
00000000000000
00000000000000
00000000000000
00000000000000
00000000000000
00000000000000
00000000000000
00000000000000
00000000000000
000fffffc00000
000fffffc00000
000fffffc00000
001fffff800000
001fffff800000
001fffff800000
003ff00fe00000
003ff00fe00000
003ff00fe00000
007fe01fc00000
007fe01fc00000
007fe01fc00000
00ffc03f800000
00ffc03f800000
00ffc03f800000
01ff807f000000
01ff807f000000
01ff807f000000
03fffff0000000
03fffff0000000
03fffff0000000
07ffffe0000000
07ffffe0000000
07ffffe0000000
0fe00000000000
0fe00000000000
0fe00000000000
1fc00000000000
1fc00000000000
1fc00000000000
3f800000000000
3f800000000000
3f800000000000
7f000000000000
7f000000000000
7f000000000000
fe000000000000
fe000000000000
fe000000000000
fc000000000000
fc000000000000
fc000000000000
ENDCHAR
STARTCHAR U+006f
ENCODING 111
SWIDTH 1000 0
DWIDTH 30 0
BBX 49 60 -9 -12
BITMAP
00000000000000
00000000000000
00000000000000
00000000000000
00000000000000
00000000000000
00000000000000
00000000000000
00000000000000
00000000000000
00000000000000
00000000000000
00000000000000
00000000000000
00000000000000
00000000000000
00000000000000
00000000000000
0001ffffc00000
0001ffffc00000
0001ffffc00000
0003ffff800000
0003ffff800000
0003ffff800000
003f800fe00000
003f800fe00000
003f800fe00000
007f001fc00000
007f001fc00000
007f001fc00000
00fe003f800000
00fe003f800000
00fe003f800000
01fc007f000000
01fc007f000000
01fc007f000000
03f800fe000000
03f800fe000000
03f800fe000000
07f001fc000000
07f001fc000000
07f001fc000000
01ffffc0000000
01ffffc0000000
01ffffc0000000
03ffff80000000
03ffff80000000
03ffff80000000
00000000000000
00000000000000
00000000000000
00000000000000
00000000000000
00000000000000
00000000000000
00000000000000
00000000000000
00000000000000
00000000000000
00000000000000
ENDCHAR
STARTCHAR U+006e
ENCODING 110
SWIDTH 1000 0
DWIDTH 30 0
BBX 49 60 -9 -12
BITMAP
00000000000000
00000000000000
00000000000000
00000000000000
00000000000000
00000000000000
00000000000000
00000000000000
00000000000000
00000000000000
00000000000000
00000000000000
00000000000000
00000000000000
00000000000000
00000000000000
00000000000000
00000000000000
000fffffc00000
000fffffc00000
000fffffc00000
001fffff800000
001fffff800000
001fffff800000
003ff00fe00000
003ff00fe00000
003ff00fe00000
007fe01fc00000
007fe01fc00000
007fe01fc00000
00fe003f800000
00fe003f800000
00fe003f800000
01fc007f000000
01fc007f000000
01fc007f000000
03f800fe000000
03f800fe000000
03f800fe000000
07f001fc000000
07f001fc000000
07f001fc000000
0fe003f8000000
0fe003f8000000
0fe003f8000000
1fc007f0000000
1fc007f0000000
1fc007f0000000
00000000000000
00000000000000
00000000000000
00000000000000
00000000000000
00000000000000
00000000000000
00000000000000
00000000000000
00000000000000
00000000000000
00000000000000
ENDCHAR
STARTCHAR U+006d
ENCODING 109
SWIDTH 1000 0
DWIDTH 30 0
BBX 49 60 -9 -12
BITMAP
00000000000000
00000000000000
00000000000000
00000000000000
00000000000000
00000000000000
00000000000000
00000000000000
00000000000000
00000000000000
00000000000000
00000000000000
00000000000000
00000000000000
00000000000000
00000000000000
00000000000000
00000000000000
000ffc1fc00000
000ffc1fc00000
000ffc1fc00000
001ff83f800000
001ff83f800000
001ff83f800000
003fffffe00000
003fffffe00000
003fffffe00000
007fffffc00000
007fffffc00000
007fffffc00000
00fe7f3f800000
00fe7f3f800000
00fe7f3f800000
01fcfe7f000000
01fcfe7f000000
01fcfe7f000000
03f9fcfe000000
03f9fcfe000000
03f9fcfe000000
07f3f9fc000000
07f3f9fc000000
07f3f9fc000000
0fe003f8000000
0fe003f8000000
0fe003f8000000
1fc007f0000000
1fc007f0000000
1fc007f0000000
00000000000000
00000000000000
00000000000000
00000000000000
00000000000000
00000000000000
00000000000000
00000000000000
00000000000000
00000000000000
00000000000000
00000000000000
ENDCHAR
STARTCHAR U+006c
ENCODING 108
SWIDTH 1000 0
DWIDTH 30 0
BBX 49 60 -9 -12
BITMAP
00000000000000
00000000000000
00000000000000
00000000000000
00000000000000
00000000000000
000003ff000000
000003ff000000
000003ff000000
000007fe000000
000007fe000000
000007fe000000
000001fc000000
000001fc000000
000001fc000000
000003f8000000
000003f8000000
000003f8000000
000007f0000000
000007f0000000
000007f0000000
00000fe0000000
00000fe0000000
00000fe0000000
00001fc0000000
00001fc0000000
00001fc0000000
00003f80000000
00003f80000000
00003f80000000
00007f00000000
00007f00000000
00007f00000000
0000fe00000000
0000fe00000000
0000fe00000000
0001fc00000000
0001fc00000000
0001fc00000000
0003f800000000
0003f800000000
0003f800000000
003ffe00000000
003ffe00000000
003ffe00000000
007ffc00000000
007ffc00000000
007ffc00000000
00000000000000
00000000000000
00000000000000
00000000000000
00000000000000
00000000000000
00000000000000
00000000000000
00000000000000
00000000000000
00000000000000
00000000000000
ENDCHAR
STARTCHAR U+006b
ENCODING 107
SWIDTH 1000 0
DWIDTH 30 0
BBX 49 60 -9 -12
BITMAP
00000000000000
00000000000000
00000000000000
00000000000000
00000000000000
00000000000000
0000fe00000000
0000fe00000000
0000fe00000000
0001fc00000000
0001fc00000000
0001fc00000000
0003f800000000
0003f800000000
0003f800000000
0007f000000000
0007f000000000
0007f000000000
000fe0fe000000
000fe0fe000000
000fe0fe000000
001fc1fc000000
001fc1fc000000
001fc1fc000000
003f9fc0000000
003f9fc0000000
003f9fc0000000
007f3f80000000
007f3f80000000
007f3f80000000
00fff800000000
00fff800000000
00fff800000000
01fff000000000
01fff000000000
01fff000000000
03f83f80000000
03f83f80000000
03f83f80000000
07f07f00000000
07f07f00000000
07f07f00000000
0fe003f8000000
0fe003f8000000
0fe003f8000000
1fc007f0000000
1fc007f0000000
1fc007f0000000
00000000000000
00000000000000
00000000000000
00000000000000
00000000000000
00000000000000
00000000000000
00000000000000
00000000000000
00000000000000
00000000000000
00000000000000
ENDCHAR
STARTCHAR U+006a
ENCODING 106
SWIDTH 1000 0
DWIDTH 30 0
BBX 49 60 -9 -12
BITMAP
00000000000000
00000000000000
00000000000000
00000000000000
00000000000000
00000000000000
00000001fc0000
00000001fc0000
00000001fc0000
00000003f80000
00000003f80000
00000003f80000
00000000000000
00000000000000
00000000000000
00000000000000
00000000000000
00000000000000
0000001fc00000
0000001fc00000
0000001fc00000
0000003f800000
0000003f800000
0000003f800000
0000007f000000
0000007f000000
0000007f000000
000000fe000000
000000fe000000
000000fe000000
000001fc000000
000001fc000000
000001fc000000
000003f8000000
000003f8000000
000003f8000000
000007f0000000
000007f0000000
000007f0000000
00000fe0000000
00000fe0000000
00000fe0000000
0fe01fc0000000
0fe01fc0000000
0fe01fc0000000
1fc03f80000000
1fc03f80000000
1fc03f80000000
3f807f00000000
3f807f00000000
3f807f00000000
7f00fe00000000
7f00fe00000000
7f00fe00000000
1fffe000000000
1fffe000000000
1fffe000000000
3fffc000000000
3fffc000000000
3fffc000000000
ENDCHAR
STARTCHAR U+0069
ENCODING 105
SWIDTH 1000 0
DWIDTH 30 0
BBX 49 60 -9 -12
BITMAP
00000000000000
00000000000000
00000000000000
00000000000000
00000000000000
00000000000000
0000007f000000
0000007f000000
0000007f000000
000000fe000000
000000fe000000
000000fe000000
00000000000000
00000000000000
00000000000000
00000000000000
00000000000000
00000000000000
00003ff0000000
00003ff0000000
00003ff0000000
00007fe0000000
00007fe0000000
00007fe0000000
00001fc0000000
00001fc0000000
00001fc0000000
00003f80000000
00003f80000000
00003f80000000
00007f00000000
00007f00000000
00007f00000000
0000fe00000000
0000fe00000000
0000fe00000000
0001fc00000000
0001fc00000000
0001fc00000000
0003f800000000
0003f800000000
0003f800000000
01ffffc0000000
01ffffc0000000
01ffffc0000000
03ffff80000000
03ffff80000000
03ffff80000000
00000000000000
00000000000000
00000000000000
00000000000000
00000000000000
00000000000000
00000000000000
00000000000000
00000000000000
00000000000000
00000000000000
00000000000000
ENDCHAR
STARTCHAR U+0068
ENCODING 104
SWIDTH 1000 0
DWIDTH 30 0
BBX 49 60 -9 -12
BITMAP
00000000000000
00000000000000
00000000000000
00000000000000
00000000000000
00000000000000
0000fe00000000
0000fe00000000
0000fe00000000
0001fc00000000
0001fc00000000
0001fc00000000
0003f800000000
0003f800000000
0003f800000000
0007f000000000
0007f000000000
0007f000000000
000fffffc00000
000fffffc00000
000fffffc00000
001fffff800000
001fffff800000
001fffff800000
003ff00fe00000
003ff00fe00000
003ff00fe00000
007fe01fc00000
007fe01fc00000
007fe01fc00000
00fe003f800000
00fe003f800000
00fe003f800000
01fc007f000000
01fc007f000000
01fc007f000000
03f800fe000000
03f800fe000000
03f800fe000000
07f001fc000000
07f001fc000000
07f001fc000000
0fe003f8000000
0fe003f8000000
0fe003f8000000
1fc007f0000000
1fc007f0000000
1fc007f0000000
00000000000000
00000000000000
00000000000000
00000000000000
00000000000000
00000000000000
00000000000000
00000000000000
00000000000000
00000000000000
00000000000000
00000000000000
ENDCHAR
STARTCHAR U+0067
ENCODING 103
SWIDTH 1000 0
DWIDTH 30 0
BBX 49 60 -9 -12
BITMAP
00000000000000
00000000000000
00000000000000
00000000000000
00000000000000
00000000000000
00000000000000
00000000000000
00000000000000
00000000000000
00000000000000
00000000000000
00000000000000
00000000000000
00000000000000
00000000000000
00000000000000
00000000000000
0001fffff80000
0001fffff80000
0001fffff80000
0003fffff00000
0003fffff00000
0003fffff00000
003f807f000000
003f807f000000
003f807f000000
007f00fe000000
007f00fe000000
007f00fe000000
001fffe0000000
001fffe0000000
001fffe0000000
003fffc0000000
003fffc0000000
003fffc0000000
03f80000000000
03f80000000000
03f80000000000
07f00000000000
07f00000000000
07f00000000000
01ffffc0000000
01ffffc0000000
01ffffc0000000
03ffff80000000
03ffff80000000
03ffff80000000
3f800fe0000000
3f800fe0000000
3f800fe0000000
7f001fc0000000
7f001fc0000000
7f001fc0000000
1ffffc00000000
1ffffc00000000
1ffffc00000000
3ffff800000000
3ffff800000000
3ffff800000000
ENDCHAR
STARTCHAR U+0066
ENCODING 102
SWIDTH 1000 0
DWIDTH 30 0
BBX 49 60 -9 -12
BITMAP
00000000000000
00000000000000
00000000000000
00000000000000
00000000000000
00000000000000
0000007ffc0000
0000007ffc0000
0000007ffc0000
000000fff80000
000000fff80000
000000fff80000
00000fe0fe0000
00000fe0fe0000
00000fe0fe0000
00001fc1fc0000
00001fc1fc0000
00001fc1fc0000
00003f80000000
00003f80000000
00003f80000000
00007f00000000
00007f00000000
00007f00000000
003ffff8000000
003ffff8000000
003ffff8000000
007ffff0000000
007ffff0000000
007ffff0000000
0003f800000000
0003f800000000
0003f800000000
0007f000000000
0007f000000000
0007f000000000
000fe000000000
000fe000000000
000fe000000000
001fc000000000
001fc000000000
001fc000000000
003f8000000000
003f8000000000
003f8000000000
007f0000000000
007f0000000000
007f0000000000
00000000000000
00000000000000
00000000000000
00000000000000
00000000000000
00000000000000
00000000000000
00000000000000
00000000000000
00000000000000
00000000000000
00000000000000
ENDCHAR
STARTCHAR U+0065
ENCODING 101
SWIDTH 1000 0
DWIDTH 30 0
BBX 49 60 -9 -12
BITMAP
00000000000000
00000000000000
00000000000000
00000000000000
00000000000000
00000000000000
00000000000000
00000000000000
00000000000000
00000000000000
00000000000000
00000000000000
00000000000000
00000000000000
00000000000000
00000000000000
00000000000000
00000000000000
0001ffffc00000
0001ffffc00000
0001ffffc00000
0003ffff800000
0003ffff800000
0003ffff800000
003f800fe00000
003f800fe00000
003f800fe00000
007f001fc00000
007f001fc00000
007f001fc00000
00ffffff800000
00ffffff800000
00ffffff800000
01ffffff000000
01ffffff000000
01ffffff000000
03f80000000000
03f80000000000
03f80000000000
07f00000000000
07f00000000000
07f00000000000
01ffffc0000000
01ffffc0000000
01ffffc0000000
03ffff80000000
03ffff80000000
03ffff80000000
00000000000000
00000000000000
00000000000000
00000000000000
00000000000000
00000000000000
00000000000000
00000000000000
00000000000000
00000000000000
00000000000000
00000000000000
ENDCHAR
STARTCHAR U+0064
ENCODING 100
SWIDTH 1000 0
DWIDTH 30 0
BBX 49 60 -9 -12
BITMAP
00000000000000
00000000000000
00000000000000
00000000000000
00000000000000
00000000000000
000000003f8000
000000003f8000
000000003f8000
000000007f0000
000000007f0000
000000007f0000
00000000fe0000
00000000fe0000
00000000fe0000
00000001fc0000
00000001fc0000
00000001fc0000
0001fffff80000
0001fffff80000
0001fffff80000
0003fffff00000
0003fffff00000
0003fffff00000
003f807fe00000
003f807fe00000
003f807fe00000
007f00ffc00000
007f00ffc00000
007f00ffc00000
00fe003f800000
00fe003f800000
00fe003f800000
01fc007f000000
01fc007f000000
01fc007f000000
03f807fe000000
03f807fe000000
03f807fe000000
07f00ffc000000
07f00ffc000000
07f00ffc000000
01fffff8000000
01fffff8000000
01fffff8000000
03fffff0000000
03fffff0000000
03fffff0000000
00000000000000
00000000000000
00000000000000
00000000000000
00000000000000
00000000000000
00000000000000
00000000000000
00000000000000
00000000000000
00000000000000
00000000000000
ENDCHAR
STARTCHAR U+0063
ENCODING 99
SWIDTH 1000 0
DWIDTH 30 0
BBX 49 60 -9 -12
BITMAP
00000000000000
00000000000000
00000000000000
00000000000000
00000000000000
00000000000000
00000000000000
00000000000000
00000000000000
00000000000000
00000000000000
00000000000000
00000000000000
00000000000000
00000000000000
00000000000000
00000000000000
00000000000000
0001ffffc00000
0001ffffc00000
0001ffffc00000
0003ffff800000
0003ffff800000
0003ffff800000
003f800fe00000
003f800fe00000
003f800fe00000
007f001fc00000
007f001fc00000
007f001fc00000
00fe0000000000
00fe0000000000
00fe0000000000
01fc0000000000
01fc0000000000
01fc0000000000
03f80000000000
03f80000000000
03f80000000000
07f00000000000
07f00000000000
07f00000000000
01fffff8000000
01fffff8000000
01fffff8000000
03fffff0000000
03fffff0000000
03fffff0000000
00000000000000
00000000000000
00000000000000
00000000000000
00000000000000
00000000000000
00000000000000
00000000000000
00000000000000
00000000000000
00000000000000
00000000000000
ENDCHAR
STARTCHAR U+0062
ENCODING 98
SWIDTH 1000 0
DWIDTH 30 0
BBX 49 60 -9 -12
BITMAP
00000000000000
00000000000000
00000000000000
00000000000000
00000000000000
00000000000000
0000fe00000000
0000fe00000000
0000fe00000000
0001fc00000000
0001fc00000000
0001fc00000000
0003f800000000
0003f800000000
0003f800000000
0007f000000000
0007f000000000
0007f000000000
000fffffc00000
000fffffc00000
000fffffc00000
001fffff800000
001fffff800000
001fffff800000
003ff00fe00000
003ff00fe00000
003ff00fe00000
007fe01fc00000
007fe01fc00000
007fe01fc00000
00fe003f800000
00fe003f800000
00fe003f800000
01fc007f000000
01fc007f000000
01fc007f000000
03ff00fe000000
03ff00fe000000
03ff00fe000000
07fe01fc000000
07fe01fc000000
07fe01fc000000
0fffffc0000000
0fffffc0000000
0fffffc0000000
1fffff80000000
1fffff80000000
1fffff80000000
00000000000000
00000000000000
00000000000000
00000000000000
00000000000000
00000000000000
00000000000000
00000000000000
00000000000000
00000000000000
00000000000000
00000000000000
ENDCHAR
STARTCHAR U+0061
ENCODING 97
SWIDTH 1000 0
DWIDTH 30 0
BBX 49 60 -9 -12
BITMAP
00000000000000
00000000000000
00000000000000
00000000000000
00000000000000
00000000000000
00000000000000
00000000000000
00000000000000
00000000000000
00000000000000
00000000000000
00000000000000
00000000000000
00000000000000
00000000000000
00000000000000
00000000000000
0001ffffc00000
0001ffffc00000
0001ffffc00000
0003ffff800000
0003ffff800000
0003ffff800000
0000000fe00000
0000000fe00000
0000000fe00000
0000001fc00000
0000001fc00000
0000001fc00000
001fffff800000
001fffff800000
001fffff800000
003fffff000000
003fffff000000
003fffff000000
03f807fe000000
03f807fe000000
03f807fe000000
07f00ffc000000
07f00ffc000000
07f00ffc000000
01fffff8000000
01fffff8000000
01fffff8000000
03fffff0000000
03fffff0000000
03fffff0000000
00000000000000
00000000000000
00000000000000
00000000000000
00000000000000
00000000000000
00000000000000
00000000000000
00000000000000
00000000000000
00000000000000
00000000000000
ENDCHAR
STARTCHAR U+0060
ENCODING 96
SWIDTH 1000 0
DWIDTH 30 0
BBX 49 60 -9 -12
BITMAP
00000000000000
00000000000000
00000000000000
00000000000000
00000000000000
00000000000000
000003ff000000
000003ff000000
000003ff000000
000007fe000000
000007fe000000
000007fe000000
000001fc000000
000001fc000000
000001fc000000
000003f8000000
000003f8000000
000003f8000000
000000fe000000
000000fe000000
000000fe000000
000001fc000000
000001fc000000
000001fc000000
00000000000000
00000000000000
00000000000000
00000000000000
00000000000000
00000000000000
00000000000000
00000000000000
00000000000000
00000000000000
00000000000000
00000000000000
00000000000000
00000000000000
00000000000000
00000000000000
00000000000000
00000000000000
00000000000000
00000000000000
00000000000000
00000000000000
00000000000000
00000000000000
00000000000000
00000000000000
00000000000000
00000000000000
00000000000000
00000000000000
00000000000000
00000000000000
00000000000000
00000000000000
00000000000000
00000000000000
ENDCHAR
STARTCHAR U+005F
ENCODING 95
SWIDTH 1000 0
DWIDTH 30 0
BBX 49 60 -9 -12
BITMAP
00000000000000
00000000000000
00000000000000
00000000000000
00000000000000
00000000000000
00000000000000
00000000000000
00000000000000
00000000000000
00000000000000
00000000000000
00000000000000
00000000000000
00000000000000
00000000000000
00000000000000
00000000000000
00000000000000
00000000000000
00000000000000
00000000000000
00000000000000
00000000000000
00000000000000
00000000000000
00000000000000
00000000000000
00000000000000
00000000000000
00000000000000
00000000000000
00000000000000
00000000000000
00000000000000
00000000000000
00000000000000
00000000000000
00000000000000
00000000000000
00000000000000
00000000000000
0ffffff8000000
0ffffff8000000
0ffffff8000000
1ffffff0000000
1ffffff0000000
1ffffff0000000
00000000000000
00000000000000
00000000000000
00000000000000
00000000000000
00000000000000
00000000000000
00000000000000
00000000000000
00000000000000
00000000000000
00000000000000
ENDCHAR
STARTCHAR U+005E
ENCODING 94
SWIDTH 1000 0
DWIDTH 30 0
BBX 49 60 -9 -12
BITMAP
00000000000000
00000000000000
00000000000000
00000000000000
00000000000000
00000000000000
0000007f000000
0000007f000000
0000007f000000
000000fe000000
000000fe000000
000000fe000000
00000fff800000
00000fff800000
00000fff800000
00001fff000000
00001fff000000
00001fff000000
0001fc1fc00000
0001fc1fc00000
0001fc1fc00000
0003f83f800000
0003f83f800000
0003f83f800000
003f800fe00000
003f800fe00000
003f800fe00000
007f001fc00000
007f001fc00000
007f001fc00000
00000000000000
00000000000000
00000000000000
00000000000000
00000000000000
00000000000000
00000000000000
00000000000000
00000000000000
00000000000000
00000000000000
00000000000000
00000000000000
00000000000000
00000000000000
00000000000000
00000000000000
00000000000000
00000000000000
00000000000000
00000000000000
00000000000000
00000000000000
00000000000000
00000000000000
00000000000000
00000000000000
00000000000000
00000000000000
00000000000000
ENDCHAR
STARTCHAR U+005D
ENCODING 93
SWIDTH 1000 0
DWIDTH 30 0
BBX 49 60 -9 -12
BITMAP
00000000000000
00000000000000
00000000000000
00000000000000
00000000000000
00000000000000
00001fffe00000
00001fffe00000
00001fffe00000
00003fffc00000
00003fffc00000
00003fffc00000
0000003f800000
0000003f800000
0000003f800000
0000007f000000
0000007f000000
0000007f000000
000000fe000000
000000fe000000
000000fe000000
000001fc000000
000001fc000000
000001fc000000
000003f8000000
000003f8000000
000003f8000000
000007f0000000
000007f0000000
000007f0000000
00000fe0000000
00000fe0000000
00000fe0000000
00001fc0000000
00001fc0000000
00001fc0000000
00003f80000000
00003f80000000
00003f80000000
00007f00000000
00007f00000000
00007f00000000
01fffe00000000
01fffe00000000
01fffe00000000
03fffc00000000
03fffc00000000
03fffc00000000
00000000000000
00000000000000
00000000000000
00000000000000
00000000000000
00000000000000
00000000000000
00000000000000
00000000000000
00000000000000
00000000000000
00000000000000
ENDCHAR
STARTCHAR U+005C
ENCODING 92
SWIDTH 1000 0
DWIDTH 30 0
BBX 49 60 -9 -12
BITMAP
00000000000000
00000000000000
00000000000000
00000000000000
00000000000000
00000000000000
0000fe00000000
0000fe00000000
0000fe00000000
0001fc00000000
0001fc00000000
0001fc00000000
00007f00000000
00007f00000000
00007f00000000
0000fe00000000
0000fe00000000
0000fe00000000
00003f80000000
00003f80000000
00003f80000000
00007f00000000
00007f00000000
00007f00000000
00001fc0000000
00001fc0000000
00001fc0000000
00003f80000000
00003f80000000
00003f80000000
00000fe0000000
00000fe0000000
00000fe0000000
00001fc0000000
00001fc0000000
00001fc0000000
000007f0000000
000007f0000000
000007f0000000
00000fe0000000
00000fe0000000
00000fe0000000
000003f8000000
000003f8000000
000003f8000000
000007f0000000
000007f0000000
000007f0000000
00000000000000
00000000000000
00000000000000
00000000000000
00000000000000
00000000000000
00000000000000
00000000000000
00000000000000
00000000000000
00000000000000
00000000000000
ENDCHAR
STARTCHAR U+005B
ENCODING 91
SWIDTH 1000 0
DWIDTH 30 0
BBX 49 60 -9 -12
BITMAP
00000000000000
00000000000000
00000000000000
00000000000000
00000000000000
00000000000000
000003fffc0000
000003fffc0000
000003fffc0000
000007fff80000
000007fff80000
000007fff80000
00000fe0000000
00000fe0000000
00000fe0000000
00001fc0000000
00001fc0000000
00001fc0000000
00003f80000000
00003f80000000
00003f80000000
00007f00000000
00007f00000000
00007f00000000
0000fe00000000
0000fe00000000
0000fe00000000
0001fc00000000
0001fc00000000
0001fc00000000
0003f800000000
0003f800000000
0003f800000000
0007f000000000
0007f000000000
0007f000000000
000fe000000000
000fe000000000
000fe000000000
001fc000000000
001fc000000000
001fc000000000
003fffc0000000
003fffc0000000
003fffc0000000
007fff80000000
007fff80000000
007fff80000000
00000000000000
00000000000000
00000000000000
00000000000000
00000000000000
00000000000000
00000000000000
00000000000000
00000000000000
00000000000000
00000000000000
00000000000000
ENDCHAR
STARTCHAR U+005A
ENCODING 90
SWIDTH 1000 0
DWIDTH 30 0
BBX 49 60 -9 -12
BITMAP
00000000000000
00000000000000
00000000000000
00000000000000
00000000000000
00000000000000
0000ffffff8000
0000ffffff8000
0000ffffff8000
0001ffffff0000
0001ffffff0000
0001ffffff0000
00000007f00000
00000007f00000
00000007f00000
0000000fe00000
0000000fe00000
0000000fe00000
000000fe000000
000000fe000000
000000fe000000
000001fc000000
000001fc000000
000001fc000000
00001fc0000000
00001fc0000000
00001fc0000000
00003f80000000
00003f80000000
00003f80000000
0003f800000000
0003f800000000
0003f800000000
0007f000000000
0007f000000000
0007f000000000
007f0000000000
007f0000000000
007f0000000000
00fe0000000000
00fe0000000000
00fe0000000000
0ffffff8000000
0ffffff8000000
0ffffff8000000
1ffffff0000000
1ffffff0000000
1ffffff0000000
00000000000000
00000000000000
00000000000000
00000000000000
00000000000000
00000000000000
00000000000000
00000000000000
00000000000000
00000000000000
00000000000000
00000000000000
ENDCHAR
STARTCHAR U+0059
ENCODING 89
SWIDTH 1000 0
DWIDTH 30 0
BBX 49 60 -9 -12
BITMAP
00000000000000
00000000000000
00000000000000
00000000000000
00000000000000
00000000000000
0000fe003f8000
0000fe003f8000
0000fe003f8000
0001fc007f0000
0001fc007f0000
0001fc007f0000
00007f07f00000
00007f07f00000
00007f07f00000
0000fe0fe00000
0000fe0fe00000
0000fe0fe00000
00003ffe000000
00003ffe000000
00003ffe000000
00007ffc000000
00007ffc000000
00007ffc000000
00001fc0000000
00001fc0000000
00001fc0000000
00003f80000000
00003f80000000
00003f80000000
00007f00000000
00007f00000000
00007f00000000
0000fe00000000
0000fe00000000
0000fe00000000
0001fc00000000
0001fc00000000
0001fc00000000
0003f800000000
0003f800000000
0003f800000000
0007f000000000
0007f000000000
0007f000000000
000fe000000000
000fe000000000
000fe000000000
00000000000000
00000000000000
00000000000000
00000000000000
00000000000000
00000000000000
00000000000000
00000000000000
00000000000000
00000000000000
00000000000000
00000000000000
ENDCHAR
STARTCHAR U+0058
ENCODING 88
SWIDTH 1000 0
DWIDTH 30 0
BBX 49 60 -9 -12
BITMAP
00000000000000
00000000000000
00000000000000
00000000000000
00000000000000
00000000000000
0000fe003f8000
0000fe003f8000
0000fe003f8000
0001fc007f0000
0001fc007f0000
0001fc007f0000
00007f07f00000
00007f07f00000
00007f07f00000
0000fe0fe00000
0000fe0fe00000
0000fe0fe00000
00003ffe000000
00003ffe000000
00003ffe000000
00007ffc000000
00007ffc000000
00007ffc000000
00001fc0000000
00001fc0000000
00001fc0000000
00003f80000000
00003f80000000
00003f80000000
0003ffe0000000
0003ffe0000000
0003ffe0000000
0007ffc0000000
0007ffc0000000
0007ffc0000000
007f07f0000000
007f07f0000000
007f07f0000000
00fe0fe0000000
00fe0fe0000000
00fe0fe0000000
0fe003f8000000
0fe003f8000000
0fe003f8000000
1fc007f0000000
1fc007f0000000
1fc007f0000000
00000000000000
00000000000000
00000000000000
00000000000000
00000000000000
00000000000000
00000000000000
00000000000000
00000000000000
00000000000000
00000000000000
00000000000000
ENDCHAR
STARTCHAR U+0057
ENCODING 87
SWIDTH 1000 0
DWIDTH 30 0
BBX 49 60 -9 -12
BITMAP
00000000000000
00000000000000
00000000000000
00000000000000
00000000000000
00000000000000
0000fe003f8000
0000fe003f8000
0000fe003f8000
0001fc007f0000
0001fc007f0000
0001fc007f0000
0003f800fe0000
0003f800fe0000
0003f800fe0000
0007f001fc0000
0007f001fc0000
0007f001fc0000
000fe003f80000
000fe003f80000
000fe003f80000
001fc007f00000
001fc007f00000
001fc007f00000
003f9fcfe00000
003f9fcfe00000
003f9fcfe00000
007f3f9fc00000
007f3f9fc00000
007f3f9fc00000
00fe7f3f800000
00fe7f3f800000
00fe7f3f800000
01fcfe7f000000
01fcfe7f000000
01fcfe7f000000
03fffffe000000
03fffffe000000
03fffffe000000
07fffffc000000
07fffffc000000
07fffffc000000
01fc1fc0000000
01fc1fc0000000
01fc1fc0000000
03f83f80000000
03f83f80000000
03f83f80000000
00000000000000
00000000000000
00000000000000
00000000000000
00000000000000
00000000000000
00000000000000
00000000000000
00000000000000
00000000000000
00000000000000
00000000000000
ENDCHAR
STARTCHAR U+0056
ENCODING 86
SWIDTH 1000 0
DWIDTH 30 0
BBX 49 60 -9 -12
BITMAP
00000000000000
00000000000000
00000000000000
00000000000000
00000000000000
00000000000000
0000fe003f8000
0000fe003f8000
0000fe003f8000
0001fc007f0000
0001fc007f0000
0001fc007f0000
0003f800fe0000
0003f800fe0000
0003f800fe0000
0007f001fc0000
0007f001fc0000
0007f001fc0000
0001fc1fc00000
0001fc1fc00000
0001fc1fc00000
0003f83f800000
0003f83f800000
0003f83f800000
0007f07f000000
0007f07f000000
0007f07f000000
000fe0fe000000
000fe0fe000000
000fe0fe000000
0003ffe0000000
0003ffe0000000
0003ffe0000000
0007ffc0000000
0007ffc0000000
0007ffc0000000
000fff80000000
000fff80000000
000fff80000000
001fff00000000
001fff00000000
001fff00000000
0007f000000000
0007f000000000
0007f000000000
000fe000000000
000fe000000000
000fe000000000
00000000000000
00000000000000
00000000000000
00000000000000
00000000000000
00000000000000
00000000000000
00000000000000
00000000000000
00000000000000
00000000000000
00000000000000
ENDCHAR
STARTCHAR U+0055
ENCODING 85
SWIDTH 1000 0
DWIDTH 30 0
BBX 49 60 -9 -12
BITMAP
00000000000000
00000000000000
00000000000000
00000000000000
00000000000000
00000000000000
0000fe003f8000
0000fe003f8000
0000fe003f8000
0001fc007f0000
0001fc007f0000
0001fc007f0000
0003f800fe0000
0003f800fe0000
0003f800fe0000
0007f001fc0000
0007f001fc0000
0007f001fc0000
000fe003f80000
000fe003f80000
000fe003f80000
001fc007f00000
001fc007f00000
001fc007f00000
003f800fe00000
003f800fe00000
003f800fe00000
007f001fc00000
007f001fc00000
007f001fc00000
00fe003f800000
00fe003f800000
00fe003f800000
01fc007f000000
01fc007f000000
01fc007f000000
03f800fe000000
03f800fe000000
03f800fe000000
07f001fc000000
07f001fc000000
07f001fc000000
01ffffc0000000
01ffffc0000000
01ffffc0000000
03ffff80000000
03ffff80000000
03ffff80000000
00000000000000
00000000000000
00000000000000
00000000000000
00000000000000
00000000000000
00000000000000
00000000000000
00000000000000
00000000000000
00000000000000
00000000000000
ENDCHAR
STARTCHAR U+0054
ENCODING 84
SWIDTH 1000 0
DWIDTH 30 0
BBX 49 60 -9 -12
BITMAP
00000000000000
00000000000000
00000000000000
00000000000000
00000000000000
00000000000000
0000ffffff8000
0000ffffff8000
0000ffffff8000
0001ffffff0000
0001ffffff0000
0001ffffff0000
000001fc000000
000001fc000000
000001fc000000
000003f8000000
000003f8000000
000003f8000000
000007f0000000
000007f0000000
000007f0000000
00000fe0000000
00000fe0000000
00000fe0000000
00001fc0000000
00001fc0000000
00001fc0000000
00003f80000000
00003f80000000
00003f80000000
00007f00000000
00007f00000000
00007f00000000
0000fe00000000
0000fe00000000
0000fe00000000
0001fc00000000
0001fc00000000
0001fc00000000
0003f800000000
0003f800000000
0003f800000000
0007f000000000
0007f000000000
0007f000000000
000fe000000000
000fe000000000
000fe000000000
00000000000000
00000000000000
00000000000000
00000000000000
00000000000000
00000000000000
00000000000000
00000000000000
00000000000000
00000000000000
00000000000000
00000000000000
ENDCHAR
STARTCHAR U+0053
ENCODING 83
SWIDTH 1000 0
DWIDTH 30 0
BBX 49 60 -9 -12
BITMAP
00000000000000
00000000000000
00000000000000
00000000000000
00000000000000
00000000000000
00001ffffc0000
00001ffffc0000
00001ffffc0000
00003ffff80000
00003ffff80000
00003ffff80000
0003f800fe0000
0003f800fe0000
0003f800fe0000
0007f001fc0000
0007f001fc0000
0007f001fc0000
000fe000000000
000fe000000000
000fe000000000
001fc000000000
001fc000000000
001fc000000000
0007ffff000000
0007ffff000000
0007ffff000000
000ffffe000000
000ffffe000000
000ffffe000000
0000003f800000
0000003f800000
0000003f800000
0000007f000000
0000007f000000
0000007f000000
03f800fe000000
03f800fe000000
03f800fe000000
07f001fc000000
07f001fc000000
07f001fc000000
01ffffc0000000
01ffffc0000000
01ffffc0000000
03ffff80000000
03ffff80000000
03ffff80000000
00000000000000
00000000000000
00000000000000
00000000000000
00000000000000
00000000000000
00000000000000
00000000000000
00000000000000
00000000000000
00000000000000
00000000000000
ENDCHAR
STARTCHAR U+0052
ENCODING 82
SWIDTH 1000 0
DWIDTH 30 0
BBX 49 60 -9 -12
BITMAP
00000000000000
00000000000000
00000000000000
00000000000000
00000000000000
00000000000000
0000fffffc0000
0000fffffc0000
0000fffffc0000
0001fffff80000
0001fffff80000
0001fffff80000
0003f800fe0000
0003f800fe0000
0003f800fe0000
0007f001fc0000
0007f001fc0000
0007f001fc0000
000fe003f80000
000fe003f80000
000fe003f80000
001fc007f00000
001fc007f00000
001fc007f00000
003fffff000000
003fffff000000
003fffff000000
007ffffe000000
007ffffe000000
007ffffe000000
00fe0fe0000000
00fe0fe0000000
00fe0fe0000000
01fc1fc0000000
01fc1fc0000000
01fc1fc0000000
03f807f0000000
03f807f0000000
03f807f0000000
07f00fe0000000
07f00fe0000000
07f00fe0000000
0fe003f8000000
0fe003f8000000
0fe003f8000000
1fc007f0000000
1fc007f0000000
1fc007f0000000
00000000000000
00000000000000
00000000000000
00000000000000
00000000000000
00000000000000
00000000000000
00000000000000
00000000000000
00000000000000
00000000000000
00000000000000
ENDCHAR
STARTCHAR U+0051
ENCODING 81
SWIDTH 1000 0
DWIDTH 30 0
BBX 49 60 -9 -12
BITMAP
00000000000000
00000000000000
00000000000000
00000000000000
00000000000000
00000000000000
00001ffffc0000
00001ffffc0000
00001ffffc0000
00003ffff80000
00003ffff80000
00003ffff80000
0003f800fe0000
0003f800fe0000
0003f800fe0000
0007f001fc0000
0007f001fc0000
0007f001fc0000
000fe003f80000
000fe003f80000
000fe003f80000
001fc007f00000
001fc007f00000
001fc007f00000
003f800fe00000
003f800fe00000
003f800fe00000
007f001fc00000
007f001fc00000
007f001fc00000
00fe0fff800000
00fe0fff800000
00fe0fff800000
01fc1fff000000
01fc1fff000000
01fc1fff000000
03f807f0000000
03f807f0000000
03f807f0000000
07f00fe0000000
07f00fe0000000
07f00fe0000000
01fffff8000000
01fffff8000000
01fffff8000000
03fffff0000000
03fffff0000000
03fffff0000000
00000000000000
00000000000000
00000000000000
00000000000000
00000000000000
00000000000000
00000000000000
00000000000000
00000000000000
00000000000000
00000000000000
00000000000000
ENDCHAR
STARTCHAR U+0050
ENCODING 80
SWIDTH 1000 0
DWIDTH 30 0
BBX 49 60 -9 -12
BITMAP
00000000000000
00000000000000
00000000000000
00000000000000
00000000000000
00000000000000
0000fffffc0000
0000fffffc0000
0000fffffc0000
0001fffff80000
0001fffff80000
0001fffff80000
0003f800fe0000
0003f800fe0000
0003f800fe0000
0007f001fc0000
0007f001fc0000
0007f001fc0000
000fe003f80000
000fe003f80000
000fe003f80000
001fc007f00000
001fc007f00000
001fc007f00000
003fffff000000
003fffff000000
003fffff000000
007ffffe000000
007ffffe000000
007ffffe000000
00fe0000000000
00fe0000000000
00fe0000000000
01fc0000000000
01fc0000000000
01fc0000000000
03f80000000000
03f80000000000
03f80000000000
07f00000000000
07f00000000000
07f00000000000
0fe00000000000
0fe00000000000
0fe00000000000
1fc00000000000
1fc00000000000
1fc00000000000
00000000000000
00000000000000
00000000000000
00000000000000
00000000000000
00000000000000
00000000000000
00000000000000
00000000000000
00000000000000
00000000000000
00000000000000
ENDCHAR
STARTCHAR U+004F
ENCODING 79
SWIDTH 1000 0
DWIDTH 30 0
BBX 49 60 -9 -12
BITMAP
00000000000000
00000000000000
00000000000000
00000000000000
00000000000000
00000000000000
00001ffffc0000
00001ffffc0000
00001ffffc0000
00003ffff80000
00003ffff80000
00003ffff80000
0003f800fe0000
0003f800fe0000
0003f800fe0000
0007f001fc0000
0007f001fc0000
0007f001fc0000
000fe003f80000
000fe003f80000
000fe003f80000
001fc007f00000
001fc007f00000
001fc007f00000
003f800fe00000
003f800fe00000
003f800fe00000
007f001fc00000
007f001fc00000
007f001fc00000
00fe003f800000
00fe003f800000
00fe003f800000
01fc007f000000
01fc007f000000
01fc007f000000
03f800fe000000
03f800fe000000
03f800fe000000
07f001fc000000
07f001fc000000
07f001fc000000
01ffffc0000000
01ffffc0000000
01ffffc0000000
03ffff80000000
03ffff80000000
03ffff80000000
00000000000000
00000000000000
00000000000000
00000000000000
00000000000000
00000000000000
00000000000000
00000000000000
00000000000000
00000000000000
00000000000000
00000000000000
ENDCHAR
STARTCHAR U+004E
ENCODING 78
SWIDTH 1000 0
DWIDTH 30 0
BBX 49 60 -9 -12
BITMAP
00000000000000
00000000000000
00000000000000
00000000000000
00000000000000
00000000000000
0000fe003f8000
0000fe003f8000
0000fe003f8000
0001fc007f0000
0001fc007f0000
0001fc007f0000
0003ff00fe0000
0003ff00fe0000
0003ff00fe0000
0007fe01fc0000
0007fe01fc0000
0007fe01fc0000
000fff83f80000
000fff83f80000
000fff83f80000
001fff07f00000
001fff07f00000
001fff07f00000
003f9fcfe00000
003f9fcfe00000
003f9fcfe00000
007f3f9fc00000
007f3f9fc00000
007f3f9fc00000
00fe0fff800000
00fe0fff800000
00fe0fff800000
01fc1fff000000
01fc1fff000000
01fc1fff000000
03f807fe000000
03f807fe000000
03f807fe000000
07f00ffc000000
07f00ffc000000
07f00ffc000000
0fe003f8000000
0fe003f8000000
0fe003f8000000
1fc007f0000000
1fc007f0000000
1fc007f0000000
00000000000000
00000000000000
00000000000000
00000000000000
00000000000000
00000000000000
00000000000000
00000000000000
00000000000000
00000000000000
00000000000000
00000000000000
ENDCHAR
STARTCHAR U+004D
ENCODING 77
SWIDTH 1000 0
DWIDTH 30 0
BBX 49 60 -9 -12
BITMAP
00000000000000
00000000000000
00000000000000
00000000000000
00000000000000
00000000000000
0000fe003f8000
0000fe003f8000
0000fe003f8000
0001fc007f0000
0001fc007f0000
0001fc007f0000
0003ff07fe0000
0003ff07fe0000
0003ff07fe0000
0007fe0ffc0000
0007fe0ffc0000
0007fe0ffc0000
000ffffff80000
000ffffff80000
000ffffff80000
001ffffff00000
001ffffff00000
001ffffff00000
003f9fcfe00000
003f9fcfe00000
003f9fcfe00000
007f3f9fc00000
007f3f9fc00000
007f3f9fc00000
00fe003f800000
00fe003f800000
00fe003f800000
01fc007f000000
01fc007f000000
01fc007f000000
03f800fe000000
03f800fe000000
03f800fe000000
07f001fc000000
07f001fc000000
07f001fc000000
0fe003f8000000
0fe003f8000000
0fe003f8000000
1fc007f0000000
1fc007f0000000
1fc007f0000000
00000000000000
00000000000000
00000000000000
00000000000000
00000000000000
00000000000000
00000000000000
00000000000000
00000000000000
00000000000000
00000000000000
00000000000000
ENDCHAR
STARTCHAR U+004C
ENCODING 76
SWIDTH 1000 0
DWIDTH 30 0
BBX 49 60 -9 -12
BITMAP
00000000000000
00000000000000
00000000000000
00000000000000
00000000000000
00000000000000
0000fe00000000
0000fe00000000
0000fe00000000
0001fc00000000
0001fc00000000
0001fc00000000
0003f800000000
0003f800000000
0003f800000000
0007f000000000
0007f000000000
0007f000000000
000fe000000000
000fe000000000
000fe000000000
001fc000000000
001fc000000000
001fc000000000
003f8000000000
003f8000000000
003f8000000000
007f0000000000
007f0000000000
007f0000000000
00fe0000000000
00fe0000000000
00fe0000000000
01fc0000000000
01fc0000000000
01fc0000000000
03f80000000000
03f80000000000
03f80000000000
07f00000000000
07f00000000000
07f00000000000
0ffffff8000000
0ffffff8000000
0ffffff8000000
1ffffff0000000
1ffffff0000000
1ffffff0000000
00000000000000
00000000000000
00000000000000
00000000000000
00000000000000
00000000000000
00000000000000
00000000000000
00000000000000
00000000000000
00000000000000
00000000000000
ENDCHAR
STARTCHAR U+004B
ENCODING 75
SWIDTH 1000 0
DWIDTH 30 0
BBX 49 60 -9 -12
BITMAP
00000000000000
00000000000000
00000000000000
00000000000000
00000000000000
00000000000000
0000fe003f8000
0000fe003f8000
0000fe003f8000
0001fc007f0000
0001fc007f0000
0001fc007f0000
0003f83ff00000
0003f83ff00000
0003f83ff00000
0007f07fe00000
0007f07fe00000
0007f07fe00000
000ffff0000000
000ffff0000000
000ffff0000000
001fffe0000000
001fffe0000000
001fffe0000000
003ff000000000
003ff000000000
003ff000000000
007fe000000000
007fe000000000
007fe000000000
00ffff00000000
00ffff00000000
00ffff00000000
01fffe00000000
01fffe00000000
01fffe00000000
03f83ff0000000
03f83ff0000000
03f83ff0000000
07f07fe0000000
07f07fe0000000
07f07fe0000000
0fe003f8000000
0fe003f8000000
0fe003f8000000
1fc007f0000000
1fc007f0000000
1fc007f0000000
00000000000000
00000000000000
00000000000000
00000000000000
00000000000000
00000000000000
00000000000000
00000000000000
00000000000000
00000000000000
00000000000000
00000000000000
ENDCHAR
STARTCHAR U+004A
ENCODING 74
SWIDTH 1000 0
DWIDTH 30 0
BBX 49 60 -9 -12
BITMAP
00000000000000
00000000000000
00000000000000
00000000000000
00000000000000
00000000000000
0000000fff8000
0000000fff8000
0000000fff8000
0000001fff0000
0000001fff0000
0000001fff0000
00000007f00000
00000007f00000
00000007f00000
0000000fe00000
0000000fe00000
0000000fe00000
0000001fc00000
0000001fc00000
0000001fc00000
0000003f800000
0000003f800000
0000003f800000
0000007f000000
0000007f000000
0000007f000000
000000fe000000
000000fe000000
000000fe000000
000001fc000000
000001fc000000
000001fc000000
000003f8000000
000003f8000000
000003f8000000
03f807f0000000
03f807f0000000
03f807f0000000
07f00fe0000000
07f00fe0000000
07f00fe0000000
01fffe00000000
01fffe00000000
01fffe00000000
03fffc00000000
03fffc00000000
03fffc00000000
00000000000000
00000000000000
00000000000000
00000000000000
00000000000000
00000000000000
00000000000000
00000000000000
00000000000000
00000000000000
00000000000000
00000000000000
ENDCHAR
STARTCHAR U+0049
ENCODING 73
SWIDTH 1000 0
DWIDTH 30 0
BBX 49 60 -9 -12
BITMAP
00000000000000
00000000000000
00000000000000
00000000000000
00000000000000
00000000000000
00001ffffc0000
00001ffffc0000
00001ffffc0000
00003ffff80000
00003ffff80000
00003ffff80000
000001fc000000
000001fc000000
000001fc000000
000003f8000000
000003f8000000
000003f8000000
000007f0000000
000007f0000000
000007f0000000
00000fe0000000
00000fe0000000
00000fe0000000
00001fc0000000
00001fc0000000
00001fc0000000
00003f80000000
00003f80000000
00003f80000000
00007f00000000
00007f00000000
00007f00000000
0000fe00000000
0000fe00000000
0000fe00000000
0001fc00000000
0001fc00000000
0001fc00000000
0003f800000000
0003f800000000
0003f800000000
01ffffc0000000
01ffffc0000000
01ffffc0000000
03ffff80000000
03ffff80000000
03ffff80000000
00000000000000
00000000000000
00000000000000
00000000000000
00000000000000
00000000000000
00000000000000
00000000000000
00000000000000
00000000000000
00000000000000
00000000000000
ENDCHAR
STARTCHAR U+0048
ENCODING 72
SWIDTH 1000 0
DWIDTH 30 0
BBX 49 60 -9 -12
BITMAP
00000000000000
00000000000000
00000000000000
00000000000000
00000000000000
00000000000000
0000fe003f8000
0000fe003f8000
0000fe003f8000
0001fc007f0000
0001fc007f0000
0001fc007f0000
0003f800fe0000
0003f800fe0000
0003f800fe0000
0007f001fc0000
0007f001fc0000
0007f001fc0000
000fe003f80000
000fe003f80000
000fe003f80000
001fc007f00000
001fc007f00000
001fc007f00000
003fffffe00000
003fffffe00000
003fffffe00000
007fffffc00000
007fffffc00000
007fffffc00000
00fe003f800000
00fe003f800000
00fe003f800000
01fc007f000000
01fc007f000000
01fc007f000000
03f800fe000000
03f800fe000000
03f800fe000000
07f001fc000000
07f001fc000000
07f001fc000000
0fe003f8000000
0fe003f8000000
0fe003f8000000
1fc007f0000000
1fc007f0000000
1fc007f0000000
00000000000000
00000000000000
00000000000000
00000000000000
00000000000000
00000000000000
00000000000000
00000000000000
00000000000000
00000000000000
00000000000000
00000000000000
ENDCHAR
STARTCHAR U+0047
ENCODING 71
SWIDTH 1000 0
DWIDTH 30 0
BBX 49 60 -9 -12
BITMAP
00000000000000
00000000000000
00000000000000
00000000000000
00000000000000
00000000000000
000003fffc0000
000003fffc0000
000003fffc0000
000007fff80000
000007fff80000
000007fff80000
00007f00fe0000
00007f00fe0000
00007f00fe0000
0000fe01fc0000
0000fe01fc0000
0000fe01fc0000
000fe000000000
000fe000000000
000fe000000000
001fc000000000
001fc000000000
001fc000000000
003f8000000000
003f8000000000
003f8000000000
007f0000000000
007f0000000000
007f0000000000
00fe0fff800000
00fe0fff800000
00fe0fff800000
01fc1fff000000
01fc1fff000000
01fc1fff000000
007f00fe000000
007f00fe000000
007f00fe000000
00fe01fc000000
00fe01fc000000
00fe01fc000000
003fffc0000000
003fffc0000000
003fffc0000000
007fff80000000
007fff80000000
007fff80000000
00000000000000
00000000000000
00000000000000
00000000000000
00000000000000
00000000000000
00000000000000
00000000000000
00000000000000
00000000000000
00000000000000
00000000000000
ENDCHAR
STARTCHAR U+0046
ENCODING 70
SWIDTH 1000 0
DWIDTH 30 0
BBX 49 60 -9 -12
BITMAP
00000000000000
00000000000000
00000000000000
00000000000000
00000000000000
00000000000000
0000ffffff8000
0000ffffff8000
0000ffffff8000
0001ffffff0000
0001ffffff0000
0001ffffff0000
0003f800000000
0003f800000000
0003f800000000
0007f000000000
0007f000000000
0007f000000000
000fe000000000
000fe000000000
000fe000000000
001fc000000000
001fc000000000
001fc000000000
003ffff8000000
003ffff8000000
003ffff8000000
007ffff0000000
007ffff0000000
007ffff0000000
00fe0000000000
00fe0000000000
00fe0000000000
01fc0000000000
01fc0000000000
01fc0000000000
03f80000000000
03f80000000000
03f80000000000
07f00000000000
07f00000000000
07f00000000000
0fe00000000000
0fe00000000000
0fe00000000000
1fc00000000000
1fc00000000000
1fc00000000000
00000000000000
00000000000000
00000000000000
00000000000000
00000000000000
00000000000000
00000000000000
00000000000000
00000000000000
00000000000000
00000000000000
00000000000000
ENDCHAR
STARTCHAR U+0045
ENCODING 69
SWIDTH 1000 0
DWIDTH 30 0
BBX 49 60 -9 -12
BITMAP
00000000000000
00000000000000
00000000000000
00000000000000
00000000000000
00000000000000
0000ffffff8000
0000ffffff8000
0000ffffff8000
0001ffffff0000
0001ffffff0000
0001ffffff0000
0003f800000000
0003f800000000
0003f800000000
0007f000000000
0007f000000000
0007f000000000
000fe000000000
000fe000000000
000fe000000000
001fc000000000
001fc000000000
001fc000000000
003ffff8000000
003ffff8000000
003ffff8000000
007ffff0000000
007ffff0000000
007ffff0000000
00fe0000000000
00fe0000000000
00fe0000000000
01fc0000000000
01fc0000000000
01fc0000000000
03f80000000000
03f80000000000
03f80000000000
07f00000000000
07f00000000000
07f00000000000
0ffffff8000000
0ffffff8000000
0ffffff8000000
1ffffff0000000
1ffffff0000000
1ffffff0000000
00000000000000
00000000000000
00000000000000
00000000000000
00000000000000
00000000000000
00000000000000
00000000000000
00000000000000
00000000000000
00000000000000
00000000000000
ENDCHAR
STARTCHAR U+0044
ENCODING 68
SWIDTH 1000 0
DWIDTH 30 0
BBX 49 60 -9 -12
BITMAP
00000000000000
00000000000000
00000000000000
00000000000000
00000000000000
00000000000000
0000ffffe00000
0000ffffe00000
0000ffffe00000
0001ffffc00000
0001ffffc00000
0001ffffc00000
00007f07f00000
00007f07f00000
00007f07f00000
0000fe0fe00000
0000fe0fe00000
0000fe0fe00000
0001fc03f80000
0001fc03f80000
0001fc03f80000
0003f807f00000
0003f807f00000
0003f807f00000
0007f00fe00000
0007f00fe00000
0007f00fe00000
000fe01fc00000
000fe01fc00000
000fe01fc00000
001fc03f800000
001fc03f800000
001fc03f800000
003f807f000000
003f807f000000
003f807f000000
007f07f0000000
007f07f0000000
007f07f0000000
00fe0fe0000000
00fe0fe0000000
00fe0fe0000000
0ffffe00000000
0ffffe00000000
0ffffe00000000
1ffffc00000000
1ffffc00000000
1ffffc00000000
00000000000000
00000000000000
00000000000000
00000000000000
00000000000000
00000000000000
00000000000000
00000000000000
00000000000000
00000000000000
00000000000000
00000000000000
ENDCHAR
STARTCHAR U+0043
ENCODING 67
SWIDTH 1000 0
DWIDTH 30 0
BBX 49 60 -9 -12
BITMAP
00000000000000
00000000000000
00000000000000
00000000000000
00000000000000
00000000000000
000003fffc0000
000003fffc0000
000003fffc0000
000007fff80000
000007fff80000
000007fff80000
00007f00fe0000
00007f00fe0000
00007f00fe0000
0000fe01fc0000
0000fe01fc0000
0000fe01fc0000
000fe000000000
000fe000000000
000fe000000000
001fc000000000
001fc000000000
001fc000000000
003f8000000000
003f8000000000
003f8000000000
007f0000000000
007f0000000000
007f0000000000
00fe0000000000
00fe0000000000
00fe0000000000
01fc0000000000
01fc0000000000
01fc0000000000
007f00fe000000
007f00fe000000
007f00fe000000
00fe01fc000000
00fe01fc000000
00fe01fc000000
003fffc0000000
003fffc0000000
003fffc0000000
007fff80000000
007fff80000000
007fff80000000
00000000000000
00000000000000
00000000000000
00000000000000
00000000000000
00000000000000
00000000000000
00000000000000
00000000000000
00000000000000
00000000000000
00000000000000
ENDCHAR
STARTCHAR U+0042
ENCODING 66
SWIDTH 1000 0
DWIDTH 30 0
BBX 49 60 -9 -12
BITMAP
00000000000000
00000000000000
00000000000000
00000000000000
00000000000000
00000000000000
0000fffffc0000
0000fffffc0000
0000fffffc0000
0001fffff80000
0001fffff80000
0001fffff80000
00007f00fe0000
00007f00fe0000
00007f00fe0000
0000fe01fc0000
0000fe01fc0000
0000fe01fc0000
0001fc03f80000
0001fc03f80000
0001fc03f80000
0003f807f00000
0003f807f00000
0003f807f00000
0007ffff000000
0007ffff000000
0007ffff000000
000ffffe000000
000ffffe000000
000ffffe000000
001fc03f800000
001fc03f800000
001fc03f800000
003f807f000000
003f807f000000
003f807f000000
007f00fe000000
007f00fe000000
007f00fe000000
00fe01fc000000
00fe01fc000000
00fe01fc000000
0fffffc0000000
0fffffc0000000
0fffffc0000000
1fffff80000000
1fffff80000000
1fffff80000000
00000000000000
00000000000000
00000000000000
00000000000000
00000000000000
00000000000000
00000000000000
00000000000000
00000000000000
00000000000000
00000000000000
00000000000000
ENDCHAR
STARTCHAR U+0041
ENCODING 65
SWIDTH 1000 0
DWIDTH 30 0
BBX 49 60 -9 -12
BITMAP
00000000000000
00000000000000
00000000000000
00000000000000
00000000000000
00000000000000
0000007f000000
0000007f000000
0000007f000000
000000fe000000
000000fe000000
000000fe000000
00000fff800000
00000fff800000
00000fff800000
00001fff000000
00001fff000000
00001fff000000
0001fc1fc00000
0001fc1fc00000
0001fc1fc00000
0003f83f800000
0003f83f800000
0003f83f800000
003f800fe00000
003f800fe00000
003f800fe00000
007f001fc00000
007f001fc00000
007f001fc00000
00ffffff800000
00ffffff800000
00ffffff800000
01ffffff000000
01ffffff000000
01ffffff000000
03f800fe000000
03f800fe000000
03f800fe000000
07f001fc000000
07f001fc000000
07f001fc000000
0fe003f8000000
0fe003f8000000
0fe003f8000000
1fc007f0000000
1fc007f0000000
1fc007f0000000
00000000000000
00000000000000
00000000000000
00000000000000
00000000000000
00000000000000
00000000000000
00000000000000
00000000000000
00000000000000
00000000000000
00000000000000
ENDCHAR
STARTCHAR U+0040
ENCODING 64
SWIDTH 1000 0
DWIDTH 30 0
BBX 49 60 -9 -12
BITMAP
00000000000000
00000000000000
00000000000000
00000000000000
00000000000000
00000000000000
00001ffffc0000
00001ffffc0000
00001ffffc0000
00003ffff80000
00003ffff80000
00003ffff80000
0003f800fe0000
0003f800fe0000
0003f800fe0000
0007f001fc0000
0007f001fc0000
0007f001fc0000
000fe7fff80000
000fe7fff80000
000fe7fff80000
001fcffff00000
001fcffff00000
001fcffff00000
003ffe7fe00000
003ffe7fe00000
003ffe7fe00000
007ffcffc00000
007ffcffc00000
007ffcffc00000
00fe7fff800000
00fe7fff800000
00fe7fff800000
01fcffff000000
01fcffff000000
01fcffff000000
03f80000000000
03f80000000000
03f80000000000
07f00000000000
07f00000000000
07f00000000000
01ffffc0000000
01ffffc0000000
01ffffc0000000
03ffff80000000
03ffff80000000
03ffff80000000
00000000000000
00000000000000
00000000000000
00000000000000
00000000000000
00000000000000
00000000000000
00000000000000
00000000000000
00000000000000
00000000000000
00000000000000
ENDCHAR
STARTCHAR U+003F
ENCODING 63
SWIDTH 1000 0
DWIDTH 30 0
BBX 49 60 -9 -12
BITMAP
00000000000000
00000000000000
00000000000000
00000000000000
00000000000000
00000000000000
00001ffffc0000
00001ffffc0000
00001ffffc0000
00003ffff80000
00003ffff80000
00003ffff80000
0003f800fe0000
0003f800fe0000
0003f800fe0000
0007f001fc0000
0007f001fc0000
0007f001fc0000
000000ffc00000
000000ffc00000
000000ffc00000
000001ff800000
000001ff800000
000001ff800000
00001fc0000000
00001fc0000000
00001fc0000000
00003f80000000
00003f80000000
00003f80000000
00007f00000000
00007f00000000
00007f00000000
0000fe00000000
0000fe00000000
0000fe00000000
00000000000000
00000000000000
00000000000000
00000000000000
00000000000000
00000000000000
0007f000000000
0007f000000000
0007f000000000
000fe000000000
000fe000000000
000fe000000000
00000000000000
00000000000000
00000000000000
00000000000000
00000000000000
00000000000000
00000000000000
00000000000000
00000000000000
00000000000000
00000000000000
00000000000000
ENDCHAR
STARTCHAR U+003E
ENCODING 62
SWIDTH 1000 0
DWIDTH 30 0
BBX 49 60 -9 -12
BITMAP
00000000000000
00000000000000
00000000000000
00000000000000
00000000000000
00000000000000
0000fe00000000
0000fe00000000
0000fe00000000
0001fc00000000
0001fc00000000
0001fc00000000
00000fe0000000
00000fe0000000
00000fe0000000
00001fc0000000
00001fc0000000
00001fc0000000
000000fe000000
000000fe000000
000000fe000000
000001fc000000
000001fc000000
000001fc000000
0000000fe00000
0000000fe00000
0000000fe00000
0000001fc00000
0000001fc00000
0000003fc00000
00000fe0000000
00000fe0000000
00000fe0000000
00001fc0000000
00001fc0000000
00003fc0000000
000fe000000000
000fe000000000
000fe000000000
001fc000000000
001fc000000000
003fc000000000
0fe00000000000
0fe00000000000
0fe00000000000
1fc00000000000
1fc00000000000
1fc00000000000
00000000000000
00000000000000
00000000000000
00000000000000
00000000000000
00000000000000
00000000000000
00000000000000
00000000000000
00000000000000
00000000000000
00000000000000
ENDCHAR
STARTCHAR U+003D
ENCODING 61
SWIDTH 1000 0
DWIDTH 30 0
BBX 49 60 -9 -12
BITMAP
00000000000000
00000000000000
00000000000000
00000000000000
00000000000000
00000000000000
00000000000000
00000000000000
00000000000000
00000000000000
00000000000000
00000000000000
00000000000000
00000000000000
00000000000000
00000000000000
00000000000000
00000000000000
000ffffff80000
000ffffff80000
000ffffff80000
001ffffff00000
001ffffff00000
001ffffff00000
00000000000000
00000000000000
00000000000000
00000000000000
00000000000000
00000000000000
00ffffff800000
00ffffff800000
00ffffff800000
01ffffff000000
01ffffff000000
01ffffff000000
00000000000000
00000000000000
00000000000000
00000000000000
00000000000000
00000000000000
00000000000000
00000000000000
00000000000000
00000000000000
00000000000000
00000000000000
00000000000000
00000000000000
00000000000000
00000000000000
00000000000000
00000000000000
00000000000000
00000000000000
00000000000000
00000000000000
00000000000000
00000000000000
ENDCHAR
STARTCHAR U+003C
ENCODING 60
SWIDTH 1000 0
DWIDTH 30 0
BBX 49 60 -9 -12
BITMAP
00000000000000
00000000000000
00000000000000
00000000000000
00000000000000
00000000000000
000000003f8000
000000003f8000
000000003f8000
000000007f0000
000000007f0000
00000000ff0000
0000003f800000
0000003f800000
0000003f800000
0000007f000000
0000007f000000
000000ff000000
00003f80000000
00003f80000000
00003f80000000
00007f00000000
00007f00000000
0000ff00000000
003f8000000000
003f8000000000
003f8000000000
007f0000000000
007f0000000000
007f0000000000
0003f800000000
0003f800000000
0003f800000000
0007f000000000
0007f000000000
0007f000000000
00003f80000000
00003f80000000
00003f80000000
00007f00000000
00007f00000000
00007f00000000
000003f8000000
000003f8000000
000003f8000000
000007f0000000
000007f0000000
000007f0000000
00000000000000
00000000000000
00000000000000
00000000000000
00000000000000
00000000000000
00000000000000
00000000000000
00000000000000
00000000000000
00000000000000
00000000000000
ENDCHAR
STARTCHAR U+003B
ENCODING 59
SWIDTH 1000 0
DWIDTH 30 0
BBX 49 60 -9 -12
BITMAP
00000000000000
00000000000000
00000000000000
00000000000000
00000000000000
00000000000000
00000000000000
00000000000000
00000000000000
00000000000000
00000000000000
00000000000000
00000ffc000000
00000ffc000000
00000ffc000000
00001ff8000000
00001ff8000000
00001ff8000000
00003ff0000000
00003ff0000000
00003ff0000000
00007fe0000000
00007fe0000000
00007fe0000000
00000000000000
00000000000000
00000000000000
00000000000000
00000000000000
00000000000000
00000000000000
00000000000000
00000000000000
00000000000000
00000000000000
00000000000000
000ffc00000000
000ffc00000000
000ffc00000000
001ff800000000
001ff800000000
001ff800000000
003f8000000000
003f8000000000
003f8000000000
007f0000000000
007f0000000000
007f0000000000
07f00000000000
07f00000000000
07f00000000000
0fe00000000000
0fe00000000000
0fe00000000000
00000000000000
00000000000000
00000000000000
00000000000000
00000000000000
00000000000000
ENDCHAR
STARTCHAR U+003A
ENCODING 58
SWIDTH 1000 0
DWIDTH 30 0
BBX 49 60 -9 -12
BITMAP
00000000000000
00000000000000
00000000000000
00000000000000
00000000000000
00000000000000
00000000000000
00000000000000
00000000000000
00000000000000
00000000000000
00000000000000
00000ffc000000
00000ffc000000
00000ffc000000
00001ff8000000
00001ff8000000
00001ff8000000
00003ff0000000
00003ff0000000
00003ff0000000
00007fe0000000
00007fe0000000
00007fe0000000
00000000000000
00000000000000
00000000000000
00000000000000
00000000000000
00000000000000
00000000000000
00000000000000
00000000000000
00000000000000
00000000000000
00000000000000
000ffc00000000
000ffc00000000
000ffc00000000
001ff800000000
001ff800000000
001ff800000000
003ff000000000
003ff000000000
003ff000000000
007fe000000000
007fe000000000
007fe000000000
00000000000000
00000000000000
00000000000000
00000000000000
00000000000000
00000000000000
00000000000000
00000000000000
00000000000000
00000000000000
00000000000000
00000000000000
ENDCHAR
STARTCHAR U+0039
ENCODING 57
SWIDTH 1000 0
DWIDTH 30 0
BBX 49 60 -9 -12
BITMAP
00000000000000
00000000000000
00000000000000
00000000000000
00000000000000
00000000000000
00001ffffc0000
00001ffffc0000
00001ffffc0000
00003ffff80000
00003ffff80000
00003ffff80000
0003f800fe0000
0003f800fe0000
0003f800fe0000
0007f001fc0000
0007f001fc0000
0007f001fc0000
000fe01ff80000
000fe01ff80000
000fe01ff80000
001fc03ff00000
001fc03ff00000
001fc03ff00000
0007ffffe00000
0007ffffe00000
0007ffffe00000
000fffffc00000
000fffffc00000
000fffffc00000
0000003f800000
0000003f800000
0000003f800000
0000007f000000
0000007f000000
0000007f000000
000007f0000000
000007f0000000
000007f0000000
00000fe0000000
00000fe0000000
00000fe0000000
01fffe00000000
01fffe00000000
01fffe00000000
03fffc00000000
03fffc00000000
03fffc00000000
00000000000000
00000000000000
00000000000000
00000000000000
00000000000000
00000000000000
00000000000000
00000000000000
00000000000000
00000000000000
00000000000000
00000000000000
ENDCHAR
STARTCHAR U+0038
ENCODING 56
SWIDTH 1000 0
DWIDTH 30 0
BBX 49 60 -9 -12
BITMAP
00000000000000
00000000000000
00000000000000
00000000000000
00000000000000
00000000000000
00001ffffc0000
00001ffffc0000
00001ffffc0000
00003ffff80000
00003ffff80000
00003ffff80000
0003f800fe0000
0003f800fe0000
0003f800fe0000
0007f001fc0000
0007f001fc0000
0007f001fc0000
000fe003f80000
000fe003f80000
000fe003f80000
001fc007f00000
001fc007f00000
001fc007f00000
0007ffff000000
0007ffff000000
0007ffff000000
000ffffe000000
000ffffe000000
000ffffe000000
00fe003f800000
00fe003f800000
00fe003f800000
01fc007f000000
01fc007f000000
01fc007f000000
03f800fe000000
03f800fe000000
03f800fe000000
07f001fc000000
07f001fc000000
07f001fc000000
01ffffc0000000
01ffffc0000000
01ffffc0000000
03ffff80000000
03ffff80000000
03ffff80000000
00000000000000
00000000000000
00000000000000
00000000000000
00000000000000
00000000000000
00000000000000
00000000000000
00000000000000
00000000000000
00000000000000
00000000000000
ENDCHAR
STARTCHAR U+0037
ENCODING 55
SWIDTH 1000 0
DWIDTH 30 0
BBX 49 60 -9 -12
BITMAP
00000000000000
00000000000000
00000000000000
00000000000000
00000000000000
00000000000000
0000ffffff8000
0000ffffff8000
0000ffffff8000
0001ffffff0000
0001ffffff0000
0001ffffff0000
00000000fe0000
00000000fe0000
00000000fe0000
00000001fc0000
00000001fc0000
00000001fc0000
0000001fc00000
0000001fc00000
0000001fc00000
0000003f800000
0000003f800000
0000003f800000
000003f8000000
000003f8000000
000003f8000000
000007f0000000
000007f0000000
000007f0000000
00007f00000000
00007f00000000
00007f00000000
0000fe00000000
0000fe00000000
0000fe00000000
000fe000000000
000fe000000000
000fe000000000
001fc000000000
001fc000000000
001fc000000000
003f8000000000
003f8000000000
003f8000000000
007f0000000000
007f0000000000
007f0000000000
00000000000000
00000000000000
00000000000000
00000000000000
00000000000000
00000000000000
00000000000000
00000000000000
00000000000000
00000000000000
00000000000000
00000000000000
ENDCHAR
STARTCHAR U+0036
ENCODING 54
SWIDTH 1000 0
DWIDTH 30 0
BBX 49 60 -9 -12
BITMAP
00000000000000
00000000000000
00000000000000
00000000000000
00000000000000
00000000000000
000003fffc0000
000003fffc0000
000003fffc0000
000007fff80000
000007fff80000
000007fff80000
00007f00000000
00007f00000000
00007f00000000
0000fe00000000
0000fe00000000
0000fe00000000
000fe000000000
000fe000000000
000fe000000000
001fc000000000
001fc000000000
001fc000000000
003fffff000000
003fffff000000
003fffff000000
007ffffe000000
007ffffe000000
007ffffe000000
00ffc03f800000
00ffc03f800000
00ffc03f800000
01ff807f000000
01ff807f000000
01ff807f000000
03f800fe000000
03f800fe000000
03f800fe000000
07f001fc000000
07f001fc000000
07f001fc000000
01ffffc0000000
01ffffc0000000
01ffffc0000000
03ffff80000000
03ffff80000000
03ffff80000000
00000000000000
00000000000000
00000000000000
00000000000000
00000000000000
00000000000000
00000000000000
00000000000000
00000000000000
00000000000000
00000000000000
00000000000000
ENDCHAR
STARTCHAR U+0035
ENCODING 53
SWIDTH 1000 0
DWIDTH 30 0
BBX 49 60 -9 -12
BITMAP
00000000000000
00000000000000
00000000000000
00000000000000
00000000000000
00000000000000
0000ffffff8000
0000ffffff8000
0000ffffff8000
0001ffffff0000
0001ffffff0000
0001ffffff0000
0003f800000000
0003f800000000
0003f800000000
0007f000000000
0007f000000000
0007f000000000
000fffffc00000
000fffffc00000
000fffffc00000
001fffff800000
001fffff800000
001fffff800000
003ff00fe00000
003ff00fe00000
003ff00fe00000
007fe01fc00000
007fe01fc00000
007fe01fc00000
0000003f800000
0000003f800000
0000003f800000
0000007f000000
0000007f000000
0000007f000000
03f800fe000000
03f800fe000000
03f800fe000000
07f001fc000000
07f001fc000000
07f001fc000000
01ffffc0000000
01ffffc0000000
01ffffc0000000
03ffff80000000
03ffff80000000
03ffff80000000
00000000000000
00000000000000
00000000000000
00000000000000
00000000000000
00000000000000
00000000000000
00000000000000
00000000000000
00000000000000
00000000000000
00000000000000
ENDCHAR
STARTCHAR U+0034
ENCODING 52
SWIDTH 1000 0
DWIDTH 30 0
BBX 49 60 -9 -12
BITMAP
00000000000000
00000000000000
00000000000000
00000000000000
00000000000000
00000000000000
0000000fe00000
0000000fe00000
0000000fe00000
0000001fc00000
0000001fc00000
0000001fc00000
000001ff800000
000001ff800000
000001ff800000
000003ff000000
000003ff000000
000003ff000000
00003ffe000000
00003ffe000000
00003ffe000000
00007ffc000000
00007ffc000000
00007ffc000000
0007f3f8000000
0007f3f8000000
0007f3f8000000
000fe7f0000000
000fe7f0000000
000fe7f0000000
00ffffff800000
00ffffff800000
00ffffff800000
01ffffff000000
01ffffff000000
01ffffff000000
00003f80000000
00003f80000000
00003f80000000
00007f00000000
00007f00000000
00007f00000000
0000fe00000000
0000fe00000000
0000fe00000000
0001fc00000000
0001fc00000000
0001fc00000000
00000000000000
00000000000000
00000000000000
00000000000000
00000000000000
00000000000000
00000000000000
00000000000000
00000000000000
00000000000000
00000000000000
00000000000000
ENDCHAR
STARTCHAR U+0033
ENCODING 51
SWIDTH 1000 0
DWIDTH 30 0
BBX 49 60 -9 -12
BITMAP
00000000000000
00000000000000
00000000000000
00000000000000
00000000000000
00000000000000
0000ffffff8000
0000ffffff8000
0000ffffff8000
0001ffffff0000
0001ffffff0000
0001ffffff0000
00000007f00000
00000007f00000
00000007f00000
0000000fe00000
0000000fe00000
0000000fe00000
000000fe000000
000000fe000000
000000fe000000
000001fc000000
000001fc000000
000001fc000000
00001fff000000
00001fff000000
00001fff000000
00003ffe000000
00003ffe000000
00003ffe000000
0000003f800000
0000003f800000
0000003f800000
0000007f000000
0000007f000000
0000007f000000
03f800fe000000
03f800fe000000
03f800fe000000
07f001fc000000
07f001fc000000
07f001fc000000
01ffffc0000000
01ffffc0000000
01ffffc0000000
03ffff80000000
03ffff80000000
03ffff80000000
00000000000000
00000000000000
00000000000000
00000000000000
00000000000000
00000000000000
00000000000000
00000000000000
00000000000000
00000000000000
00000000000000
00000000000000
ENDCHAR
STARTCHAR U+0032
ENCODING 50
SWIDTH 1000 0
DWIDTH 30 0
BBX 49 60 -9 -12
BITMAP
00000000000000
00000000000000
00000000000000
00000000000000
00000000000000
00000000000000
00001ffffc0000
00001ffffc0000
00001ffffc0000
00003ffff80000
00003ffff80000
00003ffff80000
0003f800fe0000
0003f800fe0000
0003f800fe0000
0007f001fc0000
0007f001fc0000
0007f001fc0000
00000003f80000
00000003f80000
00000003f80000
00000007f00000
00000007f00000
00000007f00000
00001fff000000
00001fff000000
00001fff000000
00003ffe000000
00003ffe000000
00003ffe000000
001ff800000000
001ff800000000
001ff800000000
003ff000000000
003ff000000000
003ff000000000
03f80000000000
03f80000000000
03f80000000000
07f00000000000
07f00000000000
07f00000000000
0ffffff8000000
0ffffff8000000
0ffffff8000000
1ffffff0000000
1ffffff0000000
1ffffff0000000
00000000000000
00000000000000
00000000000000
00000000000000
00000000000000
00000000000000
00000000000000
00000000000000
00000000000000
00000000000000
00000000000000
00000000000000
ENDCHAR
STARTCHAR U+0031
ENCODING 49
SWIDTH 1000 0
DWIDTH 30 0
BBX 49 60 -9 -12
BITMAP
00000000000000
00000000000000
00000000000000
00000000000000
00000000000000
00000000000000
0000007f000000
0000007f000000
0000007f000000
000000fe000000
000000fe000000
000000fe000000
00000ffc000000
00000ffc000000
00000ffc000000
00001ff8000000
00001ff8000000
00001ff8000000
0001fff0000000
0001fff0000000
0001fff0000000
0003ffe0000000
0003ffe0000000
0003ffe0000000
00001fc0000000
00001fc0000000
00001fc0000000
00003f80000000
00003f80000000
00003f80000000
00007f00000000
00007f00000000
00007f00000000
0000fe00000000
0000fe00000000
0000fe00000000
0001fc00000000
0001fc00000000
0001fc00000000
0003f800000000
0003f800000000
0003f800000000
01ffffc0000000
01ffffc0000000
01ffffc0000000
03ffff80000000
03ffff80000000
03ffff80000000
00000000000000
00000000000000
00000000000000
00000000000000
00000000000000
00000000000000
00000000000000
00000000000000
00000000000000
00000000000000
00000000000000
00000000000000
ENDCHAR
STARTCHAR U+0030
ENCODING 48
SWIDTH 1000 0
DWIDTH 30 0
BBX 49 60 -9 -12
BITMAP
00000000000000
00000000000000
00000000000000
00000000000000
00000000000000
00000000000000
000003ffe00000
000003ffe00000
000003ffe00000
000007ffc00000
000007ffc00000
000007ffc00000
00007f07f00000
00007f07f00000
00007f07f00000
0000fe0fe00000
0000fe0fe00000
0000fe0fe00000
000fe003f80000
000fe003f80000
000fe003f80000
001fc007f00000
001fc007f00000
001fc007f00000
003f800fe00000
003f800fe00000
003f800fe00000
007f001fc00000
007f001fc00000
007f001fc00000
00fe003f800000
00fe003f800000
00fe003f800000
01fc007f000000
01fc007f000000
01fc007f000000
007f07f0000000
007f07f0000000
007f07f0000000
00fe0fe0000000
00fe0fe0000000
00fe0fe0000000
003ffe00000000
003ffe00000000
003ffe00000000
007ffc00000000
007ffc00000000
007ffc00000000
00000000000000
00000000000000
00000000000000
00000000000000
00000000000000
00000000000000
00000000000000
00000000000000
00000000000000
00000000000000
00000000000000
00000000000000
ENDCHAR
STARTCHAR U+002F
ENCODING 47
SWIDTH 1000 0
DWIDTH 30 0
BBX 49 60 -9 -12
BITMAP
00000000000000
00000000000000
00000000000000
00000000000000
00000000000000
00000000000000
000000003f8000
000000003f8000
000000003f8000
000000007f0000
000000007f0000
000000007f0000
00000007f00000
00000007f00000
00000007f00000
0000000fe00000
0000000fe00000
0000000fe00000
000000fe000000
000000fe000000
000000fe000000
000001fc000000
000001fc000000
000001fc000000
00001fc0000000
00001fc0000000
00001fc0000000
00003f80000000
00003f80000000
00003f80000000
0003f800000000
0003f800000000
0003f800000000
0007f000000000
0007f000000000
0007f000000000
007f0000000000
007f0000000000
007f0000000000
00fe0000000000
00fe0000000000
00fe0000000000
0fe00000000000
0fe00000000000
0fe00000000000
1fc00000000000
1fc00000000000
1fc00000000000
00000000000000
00000000000000
00000000000000
00000000000000
00000000000000
00000000000000
00000000000000
00000000000000
00000000000000
00000000000000
00000000000000
00000000000000
ENDCHAR
STARTCHAR U+002E
ENCODING 46
SWIDTH 1000 0
DWIDTH 30 0
BBX 49 60 -9 -12
BITMAP
00000000000000
00000000000000
00000000000000
00000000000000
00000000000000
00000000000000
00000000000000
00000000000000
00000000000000
00000000000000
00000000000000
00000000000000
00000000000000
00000000000000
00000000000000
00000000000000
00000000000000
00000000000000
00000000000000
00000000000000
00000000000000
00000000000000
00000000000000
00000000000000
00000000000000
00000000000000
00000000000000
00000000000000
00000000000000
00000000000000
00000000000000
00000000000000
00000000000000
00000000000000
00000000000000
00000000000000
000ffc00000000
000ffc00000000
000ffc00000000
001ff800000000
001ff800000000
001ff800000000
003ff000000000
003ff000000000
003ff000000000
007fe000000000
007fe000000000
007fe000000000
00000000000000
00000000000000
00000000000000
00000000000000
00000000000000
00000000000000
00000000000000
00000000000000
00000000000000
00000000000000
00000000000000
00000000000000
ENDCHAR
STARTCHAR U+002D
ENCODING 45
SWIDTH 1000 0
DWIDTH 30 0
BBX 49 60 -9 -12
BITMAP
00000000000000
00000000000000
00000000000000
00000000000000
00000000000000
00000000000000
00000000000000
00000000000000
00000000000000
00000000000000
00000000000000
00000000000000
00000000000000
00000000000000
00000000000000
00000000000000
00000000000000
00000000000000
00000000000000
00000000000000
00000000000000
00000000000000
00000000000000
00000000000000
003fffffe00000
003fffffe00000
003fffffe00000
007fffffc00000
007fffffc00000
007fffffc00000
00000000000000
00000000000000
00000000000000
00000000000000
00000000000000
00000000000000
00000000000000
00000000000000
00000000000000
00000000000000
00000000000000
00000000000000
00000000000000
00000000000000
00000000000000
00000000000000
00000000000000
00000000000000
00000000000000
00000000000000
00000000000000
00000000000000
00000000000000
00000000000000
00000000000000
00000000000000
00000000000000
00000000000000
00000000000000
00000000000000
ENDCHAR
STARTCHAR U+002C
ENCODING 44
SWIDTH 1000 0
DWIDTH 30 0
BBX 49 60 -9 -12
BITMAP
00000000000000
00000000000000
00000000000000
00000000000000
00000000000000
00000000000000
00000000000000
00000000000000
00000000000000
00000000000000
00000000000000
00000000000000
00000000000000
00000000000000
00000000000000
00000000000000
00000000000000
00000000000000
00000000000000
00000000000000
00000000000000
00000000000000
00000000000000
00000000000000
00000000000000
00000000000000
00000000000000
00000000000000
00000000000000
00000000000000
00000000000000
00000000000000
00000000000000
00000000000000
00000000000000
00000000000000
000ffc00000000
000ffc00000000
000ffc00000000
001ff800000000
001ff800000000
001ff800000000
003f8000000000
003f8000000000
003f8000000000
007f0000000000
007f0000000000
007f0000000000
07f00000000000
07f00000000000
07f00000000000
0fe00000000000
0fe00000000000
0fe00000000000
00000000000000
00000000000000
00000000000000
00000000000000
00000000000000
00000000000000
ENDCHAR
STARTCHAR U+002B
ENCODING 43
SWIDTH 1000 0
DWIDTH 30 0
BBX 49 60 -9 -12
BITMAP
00000000000000
00000000000000
00000000000000
00000000000000
00000000000000
00000000000000
00000000000000
00000000000000
00000000000000
00000000000000
00000000000000
00000000000000
000001fc000000
000001fc000000
000001fc000000
000003f8000000
000003f8000000
000003f8000000
000007f0000000
000007f0000000
000007f0000000
00000fe0000000
00000fe0000000
00000fe0000000
003fffffe00000
003fffffe00000
003fffffe00000
007fffffc00000
007fffffc00000
007fffffc00000
00007f00000000
00007f00000000
00007f00000000
0000fe00000000
0000fe00000000
0000fe00000000
0001fc00000000
0001fc00000000
0001fc00000000
0003f800000000
0003f800000000
0003f800000000
00000000000000
00000000000000
00000000000000
00000000000000
00000000000000
00000000000000
00000000000000
00000000000000
00000000000000
00000000000000
00000000000000
00000000000000
00000000000000
00000000000000
00000000000000
00000000000000
00000000000000
00000000000000
ENDCHAR
STARTCHAR U+002A
ENCODING 42
SWIDTH 1000 0
DWIDTH 30 0
BBX 49 60 -9 -12
BITMAP
00000000000000
00000000000000
00000000000000
00000000000000
00000000000000
00000000000000
00000000000000
00000000000000
00000000000000
00000000000000
00000000000000
00000000000000
00007f07f00000
00007f07f00000
00007f07f00000
0000fe0fe00000
0000fe0fe00000
0000fe0fe00000
00003ffe000000
00003ffe000000
00003ffe000000
00007ffc000000
00007ffc000000
00007ffc000000
003fffffe00000
003fffffe00000
003fffffe00000
007fffffc00000
007fffffc00000
007fffffc00000
0003ffe0000000
0003ffe0000000
0003ffe0000000
0007ffc0000000
0007ffc0000000
0007ffc0000000
007f07f0000000
007f07f0000000
007f07f0000000
00fe0fe0000000
00fe0fe0000000
00fe0fe0000000
00000000000000
00000000000000
00000000000000
00000000000000
00000000000000
00000000000000
00000000000000
00000000000000
00000000000000
00000000000000
00000000000000
00000000000000
00000000000000
00000000000000
00000000000000
00000000000000
00000000000000
00000000000000
ENDCHAR
STARTCHAR U+0029
ENCODING 41
SWIDTH 1000 0
DWIDTH 30 0
BBX 49 60 -9 -12
BITMAP
00000000000000
00000000000000
00000000000000
00000000000000
00000000000000
00000000000000
000003f8000000
000003f8000000
000003f8000000
000007f0000000
000007f0000000
000007f0000000
000001fc000000
000001fc000000
000001fc000000
000003f8000000
000003f8000000
000003f8000000
000000fe000000
000000fe000000
000000fe000000
000001fc000000
000001fc000000
000001fc000000
000003f8000000
000003f8000000
000003f8000000
000007f0000000
000007f0000000
000007f0000000
00000fe0000000
00000fe0000000
00000fe0000000
00001fc0000000
00001fc0000000
00001fc0000000
0001fc00000000
0001fc00000000
0001fc00000000
0003f800000000
0003f800000000
0003f800000000
003f8000000000
003f8000000000
003f8000000000
007f0000000000
007f0000000000
007f0000000000
00000000000000
00000000000000
00000000000000
00000000000000
00000000000000
00000000000000
00000000000000
00000000000000
00000000000000
00000000000000
00000000000000
00000000000000
ENDCHAR
STARTCHAR U+0028
ENCODING 40
SWIDTH 1000 0
DWIDTH 30 0
BBX 49 60 -9 -12
BITMAP
00000000000000
00000000000000
00000000000000
00000000000000
00000000000000
00000000000000
0000000fe00000
0000000fe00000
0000000fe00000
0000001fc00000
0000001fc00000
0000001fc00000
000001fc000000
000001fc000000
000001fc000000
000003f8000000
000003f8000000
000003f8000000
00003f80000000
00003f80000000
00003f80000000
00007f00000000
00007f00000000
00007f00000000
0000fe00000000
0000fe00000000
0000fe00000000
0001fc00000000
0001fc00000000
0001fc00000000
0003f800000000
0003f800000000
0003f800000000
0007f000000000
0007f000000000
0007f000000000
0001fc00000000
0001fc00000000
0001fc00000000
0003f800000000
0003f800000000
0003f800000000
0000fe00000000
0000fe00000000
0000fe00000000
0001fc00000000
0001fc00000000
0001fc00000000
00000000000000
00000000000000
00000000000000
00000000000000
00000000000000
00000000000000
00000000000000
00000000000000
00000000000000
00000000000000
00000000000000
00000000000000
ENDCHAR
STARTCHAR U+0027
ENCODING 39
SWIDTH 1000 0
DWIDTH 30 0
BBX 49 60 -9 -12
BITMAP
00000000000000
00000000000000
00000000000000
00000000000000
00000000000000
00000000000000
0000007fe00000
0000007fe00000
0000007fe00000
000000ffc00000
000000ffc00000
000000ffc00000
000001fc000000
000001fc000000
000001fc000000
000003f8000000
000003f8000000
000003f8000000
00003f80000000
00003f80000000
00003f80000000
00007f00000000
00007f00000000
00007f00000000
00000000000000
00000000000000
00000000000000
00000000000000
00000000000000
00000000000000
00000000000000
00000000000000
00000000000000
00000000000000
00000000000000
00000000000000
00000000000000
00000000000000
00000000000000
00000000000000
00000000000000
00000000000000
00000000000000
00000000000000
00000000000000
00000000000000
00000000000000
00000000000000
00000000000000
00000000000000
00000000000000
00000000000000
00000000000000
00000000000000
00000000000000
00000000000000
00000000000000
00000000000000
00000000000000
00000000000000
ENDCHAR
STARTCHAR U+0026
ENCODING 38
SWIDTH 1000 0
DWIDTH 30 0
BBX 49 60 -9 -12
BITMAP
00000000000000
00000000000000
00000000000000
00000000000000
00000000000000
00000000000000
00001fff000000
00001fff000000
00001fff000000
00003ffe000000
00003ffe000000
00003ffe000000
0003f83f800000
0003f83f800000
0003f83f800000
0007f07f000000
0007f07f000000
0007f07f000000
000fe0fe000000
000fe0fe000000
000fe0fe000000
001fc1fc000000
001fc1fc000000
001fc1fc000000
0007ffc0000000
0007ffc0000000
0007ffc0000000
000fff80000000
000fff80000000
000fff80000000
00fe0fff800000
00fe0fff800000
00fe0fff800000
01fc1fff000000
01fc1fff000000
01fc1fff000000
03f807f0000000
03f807f0000000
03f807f0000000
07f00fe0000000
07f00fe0000000
07f00fe0000000
01fffff8000000
01fffff8000000
01fffff8000000
03fffff0000000
03fffff0000000
03fffff0000000
00000000000000
00000000000000
00000000000000
00000000000000
00000000000000
00000000000000
00000000000000
00000000000000
00000000000000
00000000000000
00000000000000
00000000000000
ENDCHAR
STARTCHAR U+0025
ENCODING 37
SWIDTH 1000 0
DWIDTH 30 0
BBX 49 60 -9 -12
BITMAP
00000000000000
00000000000000
00000000000000
00000000000000
00000000000000
00000000000000
00001fc03f8000
00001fc03f8000
00001fc03f8000
00003f807f0000
00003f807f0000
00003f807f0000
0003ffe7f00000
0003ffe7f00000
0003ffe7f00000
0007ffcfe00000
0007ffcfe00000
0007ffcfe00000
0001fcfe000000
0001fcfe000000
0001fcfe000000
0003f9fc000000
0003f9fc000000
0003f9fc000000
00001fc0000000
00001fc0000000
00001fc0000000
00003f80000000
00003f80000000
00003f80000000
0003f9fc000000
0003f9fc000000
0003f9fc000000
0007f3f8000000
0007f3f8000000
0007f3f8000000
007f3ffe000000
007f3ffe000000
007f3ffe000000
00fe7ffc000000
00fe7ffc000000
00fe7ffc000000
0fe01fc0000000
0fe01fc0000000
0fe01fc0000000
1fc03f80000000
1fc03f80000000
1fc03f80000000
00000000000000
00000000000000
00000000000000
00000000000000
00000000000000
00000000000000
00000000000000
00000000000000
00000000000000
00000000000000
00000000000000
00000000000000
ENDCHAR
STARTCHAR U+0024
ENCODING 36
SWIDTH 1000 0
DWIDTH 30 0
BBX 49 60 -9 -12
BITMAP
00000000000000
00000000000000
00000000000000
00000000000000
00000000000000
00000000000000
0000007f000000
0000007f000000
0000007f000000
000000fe000000
000000fe000000
000000fe000000
00007ffff00000
00007ffff00000
00007ffff00000
0000ffffe00000
0000ffffe00000
0000ffffe00000
000fe7f0000000
000fe7f0000000
000fe7f0000000
001fcfe0000000
001fcfe0000000
001fcfe0000000
0007ffff000000
0007ffff000000
0007ffff000000
000ffffe000000
000ffffe000000
000ffffe000000
00007f3f800000
00007f3f800000
00007f3f800000
0000fe7f000000
0000fe7f000000
0000fe7f000000
007ffff0000000
007ffff0000000
007ffff0000000
00ffffe0000000
00ffffe0000000
00ffffe0000000
0007f000000000
0007f000000000
0007f000000000
000fe000000000
000fe000000000
000fe000000000
00000000000000
00000000000000
00000000000000
00000000000000
00000000000000
00000000000000
00000000000000
00000000000000
00000000000000
00000000000000
00000000000000
00000000000000
ENDCHAR
ENDFONT
